<?xml version="1.0" standalone="no"?>
<!DOCTYPE svg PUBLIC "-//W3C//DTD SVG 20010904//EN"
 "http://www.w3.org/TR/2001/REC-SVG-20010904/DTD/svg10.dtd">
<svg version="1.0" xmlns="http://www.w3.org/2000/svg"
 width="247.000000pt" height="264.000000pt" viewBox="0 0 247.000000 264.000000"
 preserveAspectRatio="xMidYMid meet">
<metadata>
Created by potrace 1.16, written by Peter Selinger 2001-2019
</metadata>
<g transform="translate(0.000000,264.000000) scale(0.100000,-0.100000)"
fill="#000000" stroke="none">
<path d="M1044 2465 c-256 -56 -475 -246 -570 -497 -26 -68 -28 -84 -29 -223
0 -132 3 -159 24 -220 65 -193 221 -365 414 -456 107 -49 205 -69 347 -69 157
0 247 21 380 87 80 40 110 62 190 143 103 103 147 169 188 282 25 67 27 85 27
228 0 137 -3 163 -23 220 -90 253 -333 461 -596 509 -80 15 -277 13 -352 -4z
m338 -70 c143 -30 266 -95 367 -195 80 -78 130 -158 167 -265 24 -69 28 -96
28 -195 0 -99 -4 -126 -28 -195 -97 -281 -341 -458 -651 -472 -296 -13 -558
133 -680 379 -196 396 36 843 490 943 81 18 225 18 307 0z"/>
<path d="M874 2160 c-86 -49 -133 -123 -148 -236 -12 -85 18 -202 69 -268 14
-18 16 -18 70 15 38 23 54 39 51 49 -3 8 -14 40 -25 70 -64 173 17 290 199
290 38 0 70 2 70 5 0 2 -5 27 -11 55 l-11 50 -106 0 c-100 0 -110 -2 -158 -30z"/>
<path d="M1236 2168 c-13 -19 -16 -59 -16 -240 l0 -218 75 0 75 0 0 170 0 170
75 0 75 0 0 -170 0 -170 75 0 75 0 0 223 c0 204 -2 225 -18 240 -16 15 -46 17
-210 17 -186 0 -191 -1 -206 -22z"/>
<path d="M1010 1890 l0 -180 70 0 70 0 0 180 0 180 -70 0 -70 0 0 -180z"/>
<path d="M930 1415 c0 -42 3 -55 15 -55 11 0 15 11 15 40 0 35 3 40 23 40 20
0 22 -4 19 -40 -4 -35 -2 -40 17 -40 18 0 21 6 21 48 l0 47 20 -25 c11 -14 20
-35 20 -47 0 -14 6 -23 15 -23 10 0 15 10 15 28 0 16 9 37 20 47 20 18 20 17
20 -28 0 -35 4 -47 15 -47 8 0 15 9 15 19 0 13 8 21 23 23 14 2 23 11 25 27 5
31 -12 41 -69 41 -34 0 -49 -4 -53 -16 -6 -16 -8 -16 -24 0 -13 11 -38 16 -85
16 l-67 0 0 -55z"/>
<path d="M1327 1452 c-10 -11 -16 -33 -15 -55 l1 -37 80 1 79 1 -4 30 -5 29
32 -31 c45 -44 55 -39 55 25 0 42 -3 55 -15 55 -10 0 -15 -10 -15 -32 l0 -32
-33 32 c-44 42 -61 42 -53 0 5 -28 4 -30 -5 -13 -26 47 -73 59 -102 27z"/>
<path d="M0 270 l0 -170 160 0 c153 0 160 1 160 20 0 19 -7 20 -135 20 l-135
0 0 150 0 150 -25 0 -25 0 0 -170z"/>
<path d="M1280 398 l0 -43 -105 0 c-134 0 -147 -10 -153 -115 -5 -82 10 -113
63 -136 44 -18 132 -18 168 0 15 8 27 11 27 5 0 -5 11 -9 25 -9 l25 0 0 170 0
170 -25 0 c-23 0 -25 -4 -25 -42z m-22 -94 c18 -13 22 -25 22 -73 0 -85 -12
-96 -105 -96 -93 0 -105 11 -105 96 0 74 18 89 105 89 39 0 69 -6 83 -16z"/>
<path d="M373 350 c-36 -15 -56 -56 -57 -119 -1 -103 29 -132 144 -138 123 -7
170 30 170 134 0 106 -32 133 -157 132 -43 0 -88 -4 -100 -9z m187 -50 c25
-25 28 -120 5 -144 -31 -30 -146 -34 -180 -6 -10 9 -15 32 -15 76 0 80 16 94
107 94 50 0 67 -4 83 -20z"/>
<path d="M720 347 c-16 -8 -26 -23 -28 -40 -3 -23 0 -27 22 -27 16 0 26 6 26
14 0 19 23 26 89 26 63 0 91 -18 91 -57 0 -20 -4 -21 -82 -16 -109 7 -154 -10
-163 -60 -4 -20 -2 -44 4 -56 16 -29 83 -44 161 -37 36 3 82 6 103 6 l37 -1 0
68 c-1 93 -14 144 -45 171 -23 19 -37 22 -108 22 -46 0 -93 -6 -107 -13z"/>
<path d="M1510 230 l0 -130 25 0 c25 0 25 1 25 88 0 48 4 92 8 98 23 35 129
47 170 18 20 -14 22 -23 22 -110 0 -94 0 -94 25 -94 l25 0 0 105 c0 99 -2 107
-25 130 -21 22 -33 25 -102 25 -55 0 -85 -5 -101 -16 -20 -14 -22 -14 -22 0 0
10 -9 16 -25 16 l-25 0 0 -130z"/>
<path d="M1890 332 c-59 -60 -48 -191 20 -224 39 -20 142 -24 184 -8 32 12 36
-8 8 -33 -25 -23 -170 -24 -178 -2 -4 8 -17 15 -30 15 -34 0 -32 -35 3 -57 39
-26 187 -25 226 0 41 26 47 54 47 201 l0 133 -126 2 -125 1 -29 -28z m210 -32
c15 -15 20 -33 20 -73 0 -76 -20 -92 -111 -92 -87 0 -101 12 -103 90 -1 77 20
95 110 95 51 0 68 -4 84 -20z"/>
</g>
</svg>
