<?xml version="1.0" standalone="no"?>
<!DOCTYPE svg PUBLIC "-//W3C//DTD SVG 20010904//EN"
 "http://www.w3.org/TR/2001/REC-SVG-20010904/DTD/svg10.dtd">
<svg version="1.0" xmlns="http://www.w3.org/2000/svg"
 width="775.000000pt" height="742.000000pt" viewBox="0 0 775.000000 742.000000"
 preserveAspectRatio="xMidYMid meet">
<metadata>
Created by potrace 1.16, written by Peter Selinger 2001-2019
</metadata>
<g transform="translate(0.000000,742.000000) scale(0.100000,-0.100000)"
fill="#000000" stroke="none">
<path d="M3600 7203 c-25 -2 -112 -13 -195 -24 -1610 -218 -2871 -1504 -3060
-3119 -79 -675 35 -1355 326 -1960 125 -257 238 -441 415 -670 117 -151 445
-479 599 -598 406 -314 840 -528 1310 -647 290 -74 496 -102 800 -112 659 -20
1308 143 1881 473 879 505 1513 1384 1713 2372 56 278 66 386 66 732 -1 328
-9 421 -56 670 -77 400 -226 793 -432 1140 -593 994 -1609 1635 -2757 1740
-105 9 -502 11 -610 3z m580 -313 c1352 -122 2496 -1078 2856 -2390 38 -138
76 -330 96 -490 20 -157 17 -622 -5 -777 -102 -728 -400 -1346 -897 -1857
-542 -557 -1202 -881 -1995 -978 -132 -16 -552 -16 -685 0 -545 66 -1021 238
-1453 526 -1065 708 -1618 1950 -1427 3207 159 1049 822 1956 1779 2433 221
110 488 205 731 259 111 25 357 63 450 70 108 8 445 6 550 -3z"/>
<path d="M2581 5790 c-183 -48 -354 -148 -510 -296 -264 -252 -399 -551 -440
-978 -36 -361 24 -722 169 -1021 49 -101 124 -221 177 -284 l29 -34 242 162
c133 89 242 163 242 165 0 2 -24 57 -54 122 -184 408 -243 725 -186 1004 60
295 288 533 609 639 60 20 86 21 384 21 299 0 319 1 315 18 -2 9 -27 126 -54
259 l-49 243 -400 -1 c-362 0 -407 -2 -474 -19z"/>
<path d="M4023 5789 c-49 -24 -98 -76 -122 -128 -14 -32 -16 -142 -19 -1093
l-3 -1058 306 0 305 0 0 835 0 835 375 0 375 0 0 -835 0 -835 305 0 305 0 -2
1063 -3 1062 -22 40 c-12 22 -36 54 -55 72 -68 66 -25 63 -905 63 -790 0 -798
0 -840 -21z"/>
<path d="M2920 4355 l0 -845 290 0 290 0 0 845 0 845 -290 0 -290 0 0 -845z"/>
<path d="M2160 2749 c-58 -132 -107 -245 -109 -250 -2 -6 21 -9 54 -7 l58 3
66 157 67 158 70 -158 70 -157 100 -3 100 -3 26 61 27 60 96 0 96 0 26 -60 26
-60 54 0 c29 0 53 3 53 8 -1 4 -45 113 -98 242 l-98 235 -55 3 -55 3 -93 -218
c-51 -120 -96 -221 -100 -225 -3 -4 -54 95 -111 220 -101 217 -107 227 -135
230 l-30 3 -105 -242z"/>
<path d="M3670 2975 c-59 -19 -128 -78 -151 -129 -23 -50 -25 -162 -5 -210 24
-58 83 -113 144 -137 116 -43 257 -5 323 87 62 84 61 217 -1 302 -58 80 -205
121 -310 87z m157 -101 c80 -38 114 -135 74 -212 -50 -97 -169 -116 -247 -38
-78 78 -58 196 41 246 48 24 86 25 132 4z"/>
<path d="M5422 2975 c-66 -20 -116 -60 -148 -118 -23 -43 -28 -64 -28 -122 0
-78 16 -119 68 -173 55 -59 100 -77 196 -77 68 0 93 5 125 22 48 25 96 75 121
123 26 51 24 162 -3 216 -60 115 -201 170 -331 129z m159 -105 c96 -49 115
-173 38 -250 -63 -63 -161 -58 -223 10 -48 53 -55 106 -24 168 41 83 128 113
209 72z"/>
<path d="M3030 2940 l0 -40 85 0 85 0 0 -205 0 -205 55 0 55 0 0 205 0 205 80
0 80 0 0 40 0 40 -220 0 -220 0 0 -40z"/>
<path d="M4100 2735 l0 -245 50 0 50 0 2 161 3 162 64 -82 c35 -44 69 -81 76
-81 7 0 41 37 76 81 l64 82 3 -162 2 -161 50 0 50 0 0 245 0 245 -47 -1 c-51
0 -55 -4 -183 -170 -14 -18 -19 -14 -90 76 l-75 95 -47 0 -48 0 0 -245z"/>
<path d="M4680 2735 l0 -245 160 0 160 0 0 45 0 45 -105 0 -105 0 0 60 0 60
95 0 95 0 0 40 0 40 -95 0 -95 0 0 60 0 60 100 0 100 0 0 40 0 40 -155 0 -155
0 0 -245z"/>
<path d="M5070 2735 l0 -245 50 0 50 0 0 245 0 245 -50 0 -50 0 0 -245z"/>
<path d="M2550 2060 l0 -250 55 0 55 0 0 205 0 205 115 0 115 0 0 -205 0 -205
55 0 55 0 0 250 0 250 -225 0 -225 0 0 -250z"/>
<path d="M3030 2305 c0 -3 43 -62 95 -132 l95 -126 0 -114 0 -113 50 0 50 0 0
117 0 117 88 115 c49 64 92 122 96 129 5 9 -8 12 -56 12 l-64 0 -55 -75 c-29
-41 -57 -75 -61 -75 -3 0 -30 34 -60 75 l-53 75 -62 0 c-35 0 -63 -2 -63 -5z"/>
<path d="M3540 2061 l0 -251 50 0 50 0 0 99 0 99 74 7 c121 12 171 56 170 151
-2 108 -47 137 -221 142 l-123 4 0 -251z"/>
<path d="M3940 2060 l0 -250 55 0 55 0 0 205 0 205 95 0 95 0 0 45 0 45 -150
0 -150 0 0 -250z"/>
<path d="M4392 2288 c-133 -65 -171 -242 -74 -349 l34 -39 -46 0 -46 0 0 -45
0 -45 115 0 115 0 0 39 c0 33 -5 42 -38 64 -69 45 -101 157 -65 227 38 74 132
102 200 60 90 -55 84 -211 -12 -287 -29 -23 -35 -35 -35 -65 l0 -38 110 0 110
0 0 45 0 45 -40 0 -41 0 29 38 c90 114 58 279 -67 344 -45 24 -65 28 -130 28
-56 -1 -87 -7 -119 -22z"/>
<path d="M4830 2060 l0 -250 50 0 50 0 2 165 3 166 144 -166 144 -165 44 0 43
0 0 250 0 250 -55 0 -54 0 -3 -156 -3 -155 -138 155 -137 156 -45 0 -45 0 0
-250z"/>
<path d="M3333 1408 c-56 -128 -105 -241 -109 -251 -6 -16 -1 -18 51 -15 l57
3 65 155 c36 85 66 156 67 158 2 1 34 -69 73 -155 l71 -158 57 -3 c50 -3 57
-1 51 14 -3 9 -55 121 -114 250 -105 230 -107 234 -138 234 -30 0 -31 -2 -131
-232z"/>
<path d="M3710 1595 l0 -45 85 0 85 0 0 -205 0 -205 50 0 50 0 0 205 0 205 85
0 85 0 0 45 0 45 -220 0 -220 0 0 -45z"/>
<path d="M4253 1408 c-56 -128 -105 -241 -109 -250 -6 -17 10 -18 246 -18 228
0 252 2 246 16 -3 9 -55 121 -114 250 -105 230 -108 234 -137 234 -30 0 -32
-2 -132 -232z m218 -135 l18 -43 -100 0 c-77 0 -100 3 -96 13 2 6 24 59 48
116 l44 103 34 -73 c18 -41 42 -93 52 -116z"/>
</g>
</svg>
