<?xml version="1.0" encoding="utf-8"?>
<!-- Generator: Adobe Illustrator 19.0.0, SVG Export Plug-In . SVG Version: 6.00 Build 0)  -->
<svg version="1.1" id="Layer_1" xmlns="http://www.w3.org/2000/svg" xmlns:xlink="http://www.w3.org/1999/xlink" x="0px" y="0px"
	 viewBox="0 0 595.3 595.3" style="enable-background:new 0 0 595.3 595.3;" xml:space="preserve">
<style type="text/css">
	.st0{fill:#43A2DA;}
	.st1{fill:#101144;}
</style>
<g id="XMLID_42_">
	<path id="XMLID_62_" class="st0" d="M499.9,330.2c0-5.8,4.8-10.7,10.7-10.7s10.7,4.8,10.7,10.7c0,5.8-4.8,10.7-10.7,10.7
		S499.9,336,499.9,330.2z"/>
	<path id="XMLID_59_" class="st1" d="M105.9,325.8c4.6,0,8.5-1.8,10.8-4.3l13.5,7.7c-5.5,7.6-13.8,11.6-24.5,11.6
		c-19.2,0-31.1-12.9-31.1-29.6c0-16.7,12.1-29.6,29.8-29.6c16.4,0,28.5,12.7,28.5,29.6c0,2.4-0.2,4.6-0.7,6.7H92.4
		C94.6,323.8,99.7,325.8,105.9,325.8z M116.2,305.4c-1.8-6.5-6.8-8.9-11.9-8.9c-6.4,0-10.7,3.1-12.2,8.9H116.2z"/>
	<path id="XMLID_57_" class="st1" d="M175.3,339.3l-10.4-14.8l-10.4,14.8h-19.3l20.1-28.5l-19.4-27.6h19.3l9.8,13.9l9.8-13.9h19.3
		l-19.4,27.6l20.1,28.5H175.3z"/>
	<path id="XMLID_54_" class="st1" d="M227.6,325.8c4.6,0,8.5-1.8,10.8-4.3l13.5,7.7c-5.5,7.6-13.8,11.6-24.5,11.6
		c-19.2,0-31.1-12.9-31.1-29.6c0-16.7,12.1-29.6,29.8-29.6c16.4,0,28.5,12.7,28.5,29.6c0,2.4-0.2,4.6-0.7,6.7h-39.8
		C216.3,323.8,221.4,325.8,227.6,325.8z M237.9,305.4c-1.8-6.5-6.8-8.9-11.9-8.9c-6.4,0-10.7,3.1-12.2,8.9H237.9z"/>
	<path id="XMLID_52_" class="st1" d="M266.4,257.4h16.8v81.9h-16.8V257.4z"/>
	<path id="XMLID_50_" class="st1" d="M319.1,299.3v19.9c0,4.8,4.2,5.3,11.6,4.8v15.3c-22,2.2-28.4-4.4-28.4-20.1v-19.9h-9v-16.2h9
		v-10.7l16.8-5v15.7h11.6v16.2H319.1z"/>
	<path id="XMLID_48_" class="st0" d="M342.4,283.2h16.8v56.1h-16.8V283.2z"/>
	<path id="XMLID_46_" class="st1" d="M428.2,283.2l-20.8,56.1h-19.1l-20.8-56.1h18.6l11.7,35.6l11.7-35.6H428.2z"/>
	<path id="XMLID_43_" class="st1" d="M462.9,325.8c4.6,0,8.5-1.8,10.8-4.3l13.5,7.7c-5.5,7.6-13.8,11.6-24.5,11.6
		c-19.2,0-31.1-12.9-31.1-29.6c0-16.7,12.1-29.6,29.8-29.6c16.4,0,28.5,12.7,28.5,29.6c0,2.4-0.2,4.6-0.7,6.7h-39.8
		C451.5,323.8,456.7,325.8,462.9,325.8z M473.2,305.4c-1.8-6.5-6.8-8.9-11.9-8.9c-6.4,0-10.7,3.1-12.2,8.9H473.2z"/>
</g>
<path id="XMLID_40_" class="st0" d="M340.2,264.9c0-5.8,4.8-10.7,10.7-10.7c5.8,0,10.7,4.8,10.7,10.7c0,5.8-4.8,10.7-10.7,10.7
	C345,275.6,340.2,270.7,340.2,264.9z"/>
</svg>
