<svg width="1440" height="835" viewBox="0 0 1440 835" fill="none" xmlns="http://www.w3.org/2000/svg">
<path d="M0 -164H1440L1487.5 660.5L0 834V-164Z" fill="url(#paint0_linear)"/>
<rect x="248" y="-21.9902" width="957" height="1152.81" transform="rotate(-31.4283 248 -21.9902)" fill="#2766ED" fill-opacity="0.08"/>
<rect x="-896" y="92.0098" width="957" height="1152.81" transform="rotate(-31.4283 -896 92.0098)" fill="#2766ED" fill-opacity="0.08"/>
<rect x="580" y="81.0098" width="957" height="1152.81" transform="rotate(-31.4283 580 81.0098)" fill="#2098F0" fill-opacity="0.25"/>
<rect x="731" y="-400.99" width="957" height="1152.81" transform="rotate(-31.4283 731 -400.99)" fill="url(#paint1_linear)"/>
<rect x="-681" y="-255.606" width="553.081" height="1152.81" transform="rotate(-31.4283 -681 -255.606)" fill="url(#paint2_linear)" fill-opacity="0.5"/>
<path d="M80.4555 342.699L91.4069 300.039L171.909 277L162.766 319.142L80.4555 342.699Z" fill="#388FFF"/>
<path d="M613.966 690.644L604.191 652.565L532.333 632L540.494 669.617L613.966 690.644Z" fill="#3BCBF9"/>
<path d="M894.466 260.675L895.267 216.639L823.804 173L821.397 216.055L894.466 260.675Z" fill="#2BB1FC"/>
<rect x="928" y="220.01" width="957" height="1152.81" transform="rotate(-31.4283 928 220.01)" fill="url(#paint3_linear)" fill-opacity="0.5"/>
<defs>
<linearGradient id="paint0_linear" x1="-354.5" y1="-557" x2="1395.5" y2="945.5" gradientUnits="userSpaceOnUse">
<stop offset="0.230479" stop-color="#2D4AEC"/>
<stop offset="0.813766" stop-color="#0EF3F4"/>
</linearGradient>
<linearGradient id="paint1_linear" x1="1209.5" y1="-400.99" x2="1114.8" y2="1030.66" gradientUnits="userSpaceOnUse">
<stop stop-color="#1E9EF0"/>
<stop offset="1" stop-color="#1CAAF1"/>
</linearGradient>
<linearGradient id="paint2_linear" x1="-760.937" y1="1116.56" x2="-487.822" y2="147.332" gradientUnits="userSpaceOnUse">
<stop stop-color="#1CA8F1"/>
<stop offset="0.716141" stop-color="#2478EE"/>
</linearGradient>
<linearGradient id="paint3_linear" x1="1406.5" y1="220.01" x2="1406.5" y2="1372.82" gradientUnits="userSpaceOnUse">
<stop stop-color="#1DA7F1"/>
<stop offset="0.744792" stop-color="#14D9F3"/>
</linearGradient>
</defs>
</svg>
