<svg width="584" height="631" viewBox="0 0 584 631" fill="none" xmlns="http://www.w3.org/2000/svg">
<g filter="url(#filter0_d)">
<rect x="10" y="295.132" width="210.795" height="374.662" rx="20" transform="rotate(-29.6539 10 295.132)" fill="white"/>
</g>
<mask id="mask0" mask-type="alpha" maskUnits="userSpaceOnUse" x="10" y="190" width="369" height="431">
<rect x="10" y="295.132" width="210.795" height="374.662" rx="20" transform="rotate(-29.6539 10 295.132)" fill="white"/>
</mask>
<g mask="url(#mask0)">
<g filter="url(#filter1_d)">
<rect x="10" y="295.132" width="210.795" height="374.662" rx="20" transform="rotate(-29.6539 10 295.132)" fill="white"/>
</g>
<path d="M248.927 330.854C248.786 330.935 248.624 330.949 248.455 330.891L243.085 328.922C242.76 328.798 242.552 328.434 242.625 328.083C242.705 327.747 243.026 327.565 243.364 327.681L248.112 329.424L249.037 324.452C249.097 324.108 249.431 323.918 249.761 324.02C250.091 324.122 250.307 324.502 250.247 324.845L249.199 330.467C249.163 330.642 249.068 330.774 248.927 330.854Z" fill="#7E8791"/>
<path d="M269.773 367.47C269.631 367.55 269.47 367.565 269.301 367.507L263.931 365.538C263.606 365.414 263.398 365.049 263.471 364.699C263.551 364.363 263.872 364.18 264.21 364.297L268.958 366.039L269.883 361.067C269.943 360.724 270.277 360.534 270.607 360.636C270.937 360.738 271.153 361.118 271.093 361.461L270.045 367.083C270.009 367.258 269.914 367.39 269.773 367.47Z" fill="#7E8791"/>
<rect x="114" y="464.165" width="196.388" height="34.9927" rx="5" transform="rotate(-29.6539 114 464.165)" fill="#F3F3F3"/>
<rect x="130.729" y="471.897" width="87.0035" height="4.28482" rx="2.14241" transform="rotate(-29.6539 130.729 471.897)" fill="#D6D8DB"/>
<path d="M290.619 404.086C290.477 404.166 290.316 404.181 290.147 404.122L284.777 402.154C284.452 402.03 284.244 401.665 284.316 401.315C284.397 400.979 284.718 400.796 285.056 400.913L289.804 402.655L290.729 397.683C290.789 397.34 291.122 397.15 291.452 397.252C291.782 397.354 291.999 397.733 291.939 398.077L290.891 403.699C290.855 403.874 290.76 404.005 290.619 404.086Z" fill="#7E8791"/>
<rect x="134.846" y="500.78" width="196.388" height="34.9927" rx="5" transform="rotate(-29.6539 134.846 500.78)" fill="#FBFBFB"/>
<rect x="151.575" y="508.513" width="77.8454" height="4.28482" rx="2.14241" transform="rotate(-29.6539 151.575 508.513)" fill="#D6D8DB"/>
<path d="M311.465 440.701C311.324 440.782 311.163 440.796 310.993 440.738L305.624 438.77C305.299 438.646 305.091 438.281 305.163 437.93C305.244 437.594 305.565 437.412 305.903 437.528L310.651 439.271L311.576 434.299C311.635 433.956 311.969 433.766 312.299 433.868C312.629 433.97 312.845 434.349 312.786 434.692L311.738 440.314C311.702 440.49 311.606 440.621 311.465 440.701Z" fill="#7E8791"/>
<rect x="155.692" y="537.396" width="196.388" height="34.9927" rx="5" transform="rotate(-29.6539 155.692 537.396)" fill="#F3F3F3"/>
<rect x="172.421" y="545.129" width="88.9126" height="4.28482" rx="2.14241" transform="rotate(-29.6539 172.421 545.129)" fill="#D6D8DB"/>
<path d="M332.311 477.317C332.17 477.398 332.008 477.412 331.839 477.354L326.47 475.386C326.144 475.262 325.937 474.897 326.009 474.546C326.09 474.21 326.411 474.028 326.749 474.144L331.497 475.887L332.422 470.915C332.481 470.571 332.815 470.382 333.145 470.484C333.475 470.586 333.691 470.965 333.632 471.308L332.584 476.93C332.548 477.105 332.452 477.237 332.311 477.317Z" fill="#7E8791"/>
<path d="M179.012 578.357C177.646 575.957 178.484 572.904 180.884 571.538L342.86 479.321C345.26 477.955 348.313 478.793 349.679 481.193L359.218 497.948L188.552 595.113L179.012 578.357Z" fill="#FBFBFB"/>
<rect x="193.267" y="581.745" width="63.3509" height="4.28482" rx="2.14241" transform="rotate(-29.6539 193.267 581.745)" fill="#D6D8DB"/>
<path d="M353.158 513.933C353.017 514.013 352.855 514.028 352.686 513.97L347.317 512.001C346.991 511.877 346.783 511.512 346.856 511.162C346.936 510.826 347.257 510.643 347.596 510.76L352.343 512.503L353.269 507.53C353.328 507.187 353.662 506.997 353.992 507.099C354.322 507.201 354.538 507.581 354.478 507.924L353.43 513.546C353.394 513.721 353.299 513.853 353.158 513.933Z" fill="#7E8791"/>
<rect x="26.8062" y="310.217" width="196.388" height="34.2786" rx="2" transform="rotate(-29.6539 26.8062 310.217)" fill="#FFECC8"/>
<rect opacity="0.6" x="88.572" y="293.131" width="72.1278" height="4.28482" rx="2.14241" transform="rotate(-29.6539 88.572 293.131)" fill="white"/>
<rect x="48.0054" y="347.453" width="95.6943" height="57.1309" rx="5" transform="rotate(-29.6539 48.0054 347.453)" fill="#FBFBFB"/>
<rect x="79" y="402.165" width="95.6943" height="57.1309" rx="5" transform="rotate(-29.6539 79 402.165)" fill="#FBFBFB"/>
<rect opacity="0.3" x="101.341" y="340.098" width="25.7089" height="4.28482" rx="2.14241" transform="rotate(-29.6539 101.341 340.098)" fill="#7E8791"/>
<rect opacity="0.3" x="132.335" y="394.809" width="25.7089" height="4.28482" rx="2.14241" transform="rotate(-29.6539 132.335 394.809)" fill="#7E8791"/>
<rect opacity="0.1" x="94.9434" y="351.957" width="47.133" height="3.57068" rx="1.78534" transform="rotate(-29.6539 94.9434 351.957)" fill="#7E8791"/>
<rect opacity="0.1" x="125.939" y="406.668" width="47.133" height="3.57068" rx="1.78534" transform="rotate(-29.6539 125.939 406.668)" fill="#7E8791"/>
<rect opacity="0.1" x="97.771" y="356.922" width="47.133" height="3.57068" rx="1.78534" transform="rotate(-29.6539 97.771 356.922)" fill="#7E8791"/>
<rect opacity="0.1" x="128.766" y="411.633" width="47.133" height="3.57068" rx="1.78534" transform="rotate(-29.6539 128.766 411.633)" fill="#7E8791"/>
<path d="M70.091 354.602C69.9056 354.708 69.7842 354.867 69.7267 355.081C69.6691 355.295 69.6936 355.495 69.8001 355.683L72.3571 360.174C72.4636 360.361 72.4881 360.562 72.4306 360.775C72.3729 360.989 72.2517 361.149 72.0663 361.254C71.881 361.36 71.6817 361.383 71.4684 361.323C71.2551 361.264 71.0953 361.14 70.9888 360.953L68.4317 356.462C68.3252 356.275 68.1653 356.151 67.952 356.091C67.7387 356.032 67.5394 356.055 67.3541 356.16C67.1689 356.266 67.0475 356.425 66.9899 356.639C66.9324 356.853 66.9569 357.053 67.0634 357.241L69.6204 361.732C69.727 361.919 69.7515 362.12 69.694 362.333C69.6364 362.547 69.5151 362.707 69.3298 362.812C69.1444 362.918 68.9451 362.941 68.7319 362.881C68.5186 362.822 68.3587 362.698 68.2522 362.511L65.6952 358.02C65.5886 357.833 65.4288 357.709 65.2155 357.649C65.0023 357.59 64.8031 357.613 64.6177 357.718C64.4324 357.824 64.311 357.983 64.2534 358.197C64.196 358.411 64.2204 358.611 64.327 358.799L68.2608 365.708C68.5108 366.147 68.8645 366.475 69.3225 366.691C69.7805 366.907 70.2535 366.971 70.7415 366.883L75.5298 375.294C75.7429 375.668 76.0626 375.915 76.4892 376.034C76.9157 376.154 77.3143 376.108 77.6848 375.897L79.0529 375.118C79.4235 374.907 79.6662 374.587 79.7813 374.16C79.8964 373.732 79.8473 373.331 79.6343 372.957L74.8461 364.546C75.1704 364.171 75.3562 363.732 75.4045 363.228C75.4527 362.724 75.3518 362.252 75.1018 361.813L71.168 354.904C71.0614 354.717 70.9015 354.593 70.6887 354.533C70.4755 354.474 70.2763 354.497 70.091 354.602Z" fill="#9CE283"/>
<path d="M78.8972 349.86C78.684 349.8 78.4847 349.823 78.2995 349.929L75.5632 351.487C74.6225 352.022 74.01 352.819 73.7254 353.877C73.4408 354.935 73.5686 355.939 74.1096 356.889L79.0268 365.526C79.0802 365.62 79.1602 365.681 79.2668 365.711C79.3735 365.741 79.4732 365.729 79.5655 365.677L81.9599 364.314L85.107 369.842C85.3201 370.216 85.6399 370.462 86.0664 370.582C86.4928 370.701 86.8916 370.655 87.2622 370.444L88.6301 369.666C89.0008 369.455 89.2435 369.135 89.3586 368.708C89.4736 368.28 89.4249 367.879 89.2119 367.505L79.3771 350.23C79.2703 350.043 79.1105 349.92 78.8972 349.86Z" fill="#9CE283"/>
<path d="M101.085 409.314C100.899 409.419 100.778 409.579 100.72 409.793C100.663 410.006 100.687 410.207 100.794 410.394L103.351 414.885C103.457 415.072 103.482 415.273 103.424 415.487C103.367 415.701 103.245 415.86 103.06 415.966C102.875 416.071 102.675 416.094 102.462 416.035C102.249 415.975 102.089 415.852 101.982 415.664L99.4254 411.173C99.3189 410.986 99.159 410.863 98.9457 410.803C98.7323 410.743 98.533 410.766 98.3478 410.872C98.1626 410.977 98.0412 411.137 97.9836 411.351C97.9261 411.564 97.9505 411.765 98.0571 411.952L100.614 416.443C100.721 416.631 100.745 416.831 100.688 417.045C100.63 417.259 100.509 417.418 100.323 417.524C100.138 417.629 99.9388 417.652 99.7255 417.593C99.5122 417.533 99.3524 417.41 99.2458 417.222L96.6888 412.731C96.5823 412.544 96.4225 412.421 96.2092 412.361C95.9959 412.301 95.7968 412.324 95.6114 412.43C95.426 412.535 95.3047 412.695 95.2471 412.909C95.1896 413.122 95.2141 413.323 95.3206 413.51L99.2545 420.42C99.5044 420.859 99.8581 421.186 100.316 421.402C100.774 421.618 101.247 421.682 101.735 421.595L106.523 430.005C106.737 430.38 107.056 430.626 107.483 430.746C107.909 430.865 108.308 430.819 108.678 430.608L110.047 429.829C110.417 429.618 110.66 429.299 110.775 428.871C110.89 428.444 110.841 428.043 110.628 427.668L105.84 419.258C106.164 418.883 106.35 418.443 106.398 417.939C106.446 417.435 106.345 416.964 106.095 416.525L102.162 409.615C102.055 409.428 101.895 409.305 101.682 409.245C101.469 409.185 101.27 409.208 101.085 409.314Z" fill="#9CE283"/>
<path d="M109.891 404.572C109.678 404.512 109.478 404.535 109.293 404.64L106.557 406.198C105.616 406.734 105.004 407.531 104.719 408.588C104.434 409.646 104.562 410.65 105.103 411.6L110.02 420.237C110.074 420.331 110.154 420.393 110.26 420.423C110.367 420.452 110.467 420.441 110.559 420.388L112.954 419.025L116.101 424.553C116.314 424.927 116.634 425.174 117.06 425.293C117.486 425.413 117.885 425.367 118.256 425.156L119.624 424.377C119.994 424.166 120.237 423.847 120.352 423.419C120.467 422.991 120.419 422.59 120.206 422.216L110.371 404.942C110.264 404.755 110.104 404.631 109.891 404.572Z" fill="#9CE283"/>
<rect x="136.132" y="297.281" width="94.9802" height="57.1309" rx="5" transform="rotate(-29.6539 136.132 297.281)" fill="#FBFBFB"/>
<rect x="167.126" y="351.992" width="94.9802" height="57.1309" rx="5" transform="rotate(-29.6539 167.126 351.992)" fill="#FBFBFB"/>
<rect opacity="0.3" x="187.605" y="290.985" width="25.7089" height="4.28482" transform="rotate(-29.6539 187.605 290.985)" fill="#7E8791"/>
<rect opacity="0.3" x="218.6" y="345.696" width="25.7089" height="4.28482" transform="rotate(-29.6539 218.6 345.696)" fill="#7E8791"/>
<rect opacity="0.1" x="181.209" y="302.844" width="47.133" height="3.57068" transform="rotate(-29.6539 181.209 302.844)" fill="#7E8791"/>
<rect opacity="0.1" x="212.204" y="357.556" width="47.133" height="3.57068" transform="rotate(-29.6539 212.204 357.556)" fill="#7E8791"/>
<rect opacity="0.1" x="184.035" y="307.809" width="47.133" height="3.57068" transform="rotate(-29.6539 184.035 307.809)" fill="#7E8791"/>
<rect opacity="0.1" x="215.03" y="362.521" width="47.133" height="3.57068" transform="rotate(-29.6539 215.03 362.521)" fill="#7E8791"/>
<path d="M160.409 319.636C163.351 324.6 168.169 324.163 168.169 324.163C168.169 324.163 168.908 324.158 169.323 323.222C169.593 322.514 170.589 320.183 170.226 316.822C169.355 310.495 163.978 307.02 163.527 306.69C163.527 306.69 162.373 305.906 161.92 304.556C161.547 303.448 162.202 301.992 162.202 301.992C158.905 305.671 157.773 310.217 158.504 314.474C158.811 316.273 159.456 318.027 160.409 319.636Z" fill="#9CE283"/>
<path d="M191.403 374.347C194.346 379.312 199.164 378.874 199.164 378.874C199.164 378.874 199.903 378.87 200.318 377.933C200.587 377.226 201.584 374.894 201.221 371.533C200.349 365.206 194.972 361.731 194.522 361.402C194.522 361.402 193.368 360.617 192.914 359.268C192.542 358.159 193.197 356.703 193.197 356.703C189.9 360.382 188.768 364.928 189.499 369.185C189.806 370.984 190.45 372.738 191.403 374.347Z" fill="#9CE283"/>
</g>
<g filter="url(#filter2_d)">
<rect x="151.344" y="69.6809" width="332.482" height="531.402" rx="20" transform="rotate(-10.33 151.344 69.6809)" fill="white"/>
</g>
<mask id="mask1" mask-type="alpha" maskUnits="userSpaceOnUse" x="151" y="10" width="424" height="583">
<rect x="151.679" y="69.6196" width="332.482" height="531.402" rx="20" transform="rotate(-10.33 151.679 69.6196)" fill="white"/>
</mask>
<g mask="url(#mask1)">
<g filter="url(#filter3_d)">
<rect x="151.344" y="69.6809" width="332.482" height="531.402" rx="20" transform="rotate(-10.33 151.344 69.6809)" fill="white"/>
</g>
<rect x="166.771" y="92.0205" width="310.796" height="38.3131" rx="2" transform="rotate(-10.33 166.771 92.0205)" fill="#FFECC8"/>
<g opacity="0.7">
<rect x="185.185" y="102.457" width="23.0119" height="1.99547" transform="rotate(-10.33 185.185 102.457)" fill="#DAB879"/>
<rect x="186.077" y="107.365" width="23.0119" height="1.99547" transform="rotate(-10.33 186.077 107.365)" fill="#DAB879"/>
<rect x="186.972" y="112.273" width="23.0119" height="1.99547" transform="rotate(-10.33 186.972 112.273)" fill="#DAB879"/>
</g>
<g opacity="0.7">
<path fill-rule="evenodd" clip-rule="evenodd" d="M448.991 65.934C447.868 66.1387 447.083 66.9816 447.234 67.8094C447.385 68.6372 448.417 69.1489 449.54 68.9442C450.663 68.7395 451.458 67.8947 451.307 67.0669C451.157 66.2391 450.114 65.7293 448.991 65.934ZM440.67 55.0103L440.945 56.5153L442.987 56.1431L447.703 61.1849L446.661 63.2798C446.536 63.5203 446.489 63.7854 446.537 64.0488C446.688 64.8766 447.731 65.3864 448.854 65.1817L461.105 62.9485L460.831 61.4435L449.008 63.5985C448.865 63.6245 448.738 63.5622 448.719 63.4568L448.733 63.361L449.428 61.9668L457.034 60.5804C457.8 60.4409 458.418 60.0095 458.68 59.4797L461.445 53.9295C461.507 53.8093 461.525 53.6739 461.501 53.546C461.426 53.1321 460.905 52.8772 460.343 52.9795L445.243 55.7319L444.009 54.4017L440.67 55.0103ZM459.2 64.0735C458.077 64.2782 457.292 65.1211 457.443 65.9489C457.594 66.7767 458.626 67.2884 459.749 67.0836C460.872 66.8789 461.667 66.0342 461.516 65.2064C461.366 64.3786 460.323 63.8688 459.2 64.0735Z" fill="#DAB879"/>
</g>
<rect x="178.862" y="149.581" width="307.303" height="191.179" rx="5" transform="rotate(-10.33 178.862 149.581)" fill="#FBFBFB"/>
<rect x="234.068" y="461.241" width="310.796" height="39.1113" rx="5" transform="rotate(-10.33 234.068 461.241)" fill="#FBFBFB"/>
<rect x="255.185" y="474.431" width="89.8818" height="4.78913" rx="2.39457" transform="rotate(-10.33 255.185 474.431)" fill="#D6D8DB"/>
<path d="M524.659 430.993C524.416 431.037 524.183 431.003 523.979 430.887L517.596 427.089C517.212 426.854 517.128 426.392 517.426 426.033C517.728 425.691 518.279 425.591 518.685 425.822L524.329 429.183L528.424 424.047C528.7 423.691 529.273 423.587 529.676 423.8C530.079 424.013 530.167 424.493 529.89 424.848L525.257 430.655C525.108 430.834 524.901 430.948 524.659 430.993Z" fill="#DBDBDB"/>
<rect x="242.513" y="507.571" width="310.796" height="39.1113" rx="5" transform="rotate(-10.33 242.513 507.571)" fill="#F3F3F3"/>
<rect x="263.63" y="520.76" width="81.2185" height="4.78913" rx="2.39457" transform="rotate(-10.33 263.63 520.76)" fill="#D6D8DB"/>
<path d="M533.103 477.322C532.861 477.367 532.627 477.333 532.424 477.217L526.04 473.419C525.656 473.184 525.572 472.722 525.871 472.362C526.173 472.021 526.723 471.921 527.13 472.152L532.773 475.512L536.868 470.377C537.145 470.021 537.717 469.917 538.121 470.13C538.524 470.342 538.611 470.823 538.334 471.178L533.702 476.984C533.552 477.164 533.345 477.278 533.103 477.322Z" fill="#DBDBDB"/>
<rect x="256.083" y="582.017" width="310.796" height="39.1113" rx="5" transform="rotate(-10.33 256.083 582.017)" fill="#FBFBFB"/>
<rect x="277.199" y="595.207" width="103.96" height="4.78913" transform="rotate(-10.33 277.199 595.207)" fill="#C4C4C4"/>
<path d="M546.672 551.769C546.43 551.813 546.196 551.779 545.993 551.663L539.61 547.865C539.225 547.63 539.141 547.168 539.44 546.808C539.742 546.467 540.293 546.367 540.699 546.598L546.342 549.958L550.437 544.823C550.714 544.467 551.287 544.363 551.69 544.576C552.093 544.788 552.18 545.269 551.904 545.624L547.271 551.43C547.122 551.61 546.915 551.724 546.672 551.769Z" fill="#7E8791"/>
<rect opacity="0.3" x="302.97" y="242.118" width="97.0058" height="7.78879" rx="3.8944" transform="rotate(-10.33 302.97 242.118)" fill="#7E8791"/>
<rect opacity="0.1" x="246.303" y="274.759" width="219.644" height="9.71367" rx="4.85683" transform="rotate(-10.33 246.303 274.759)" fill="#7E8791"/>
<rect opacity="0.1" x="249.206" y="290.686" width="219.644" height="9.71367" rx="4.85683" transform="rotate(-10.33 249.206 290.686)" fill="#7E8791"/>
<rect opacity="0.6" x="268.998" y="91.2368" width="109.374" height="4.78913" rx="2.39457" transform="rotate(-10.33 268.998 91.2368)" fill="white"/>
<rect x="215.429" y="350.201" width="119.664" height="98.422" rx="5" transform="rotate(-10.33 215.429 350.201)" fill="#FBFBFB"/>
<rect opacity="0.3" x="246.87" y="412.125" width="80.7202" height="6.37265" rx="3.18632" transform="rotate(-10.33 246.87 412.125)" fill="#BDC3CA"/>
<rect x="242.632" y="424.414" width="92.7574" height="4.24843" rx="2.12422" transform="rotate(-10.33 242.632 424.414)" fill="#E9EBED"/>
<path d="M285.279 359.392C287.438 360.698 289.15 362.696 290.085 365.086C290.534 366.233 289.532 367.426 288.341 367.091C287.91 366.969 287.54 366.653 287.367 366.203C286.819 364.775 285.931 363.553 284.795 362.622C284.205 362.138 282.734 361.301 281.231 360.875C279.139 360.281 276.282 360.366 273.701 361.506C275.859 362.812 277.569 364.809 278.503 367.198C278.953 368.346 277.947 369.536 276.759 369.202C276.328 369.08 275.958 368.764 275.785 368.314C275.228 366.862 274.319 365.624 273.158 364.687C272.265 363.968 269.973 363.071 269.925 363.052C261.778 360.763 253.907 367.835 255.447 376.26C255.592 377.056 256.358 377.582 257.154 377.437L300.136 369.603C300.932 369.458 301.463 368.695 301.318 367.899C299.985 360.564 292.122 356.38 285.279 359.392Z" fill="#FF8F73"/>
<path d="M298.97 372.802C298.432 372.9 261.766 379.583 259.205 380.05C257.819 380.302 257.552 382.185 258.817 382.811L268.707 387.706C269.448 388.073 270.347 387.754 270.693 387.004L273.426 381.066L281.962 385.29C282.704 385.657 283.602 385.338 283.948 384.588L286.681 378.65L295.217 382.874C295.958 383.241 296.857 382.922 297.202 382.171L300.568 374.861C301.064 373.784 300.139 372.589 298.97 372.802Z" fill="#FF8F73"/>
<path d="M296.846 385.854C295.862 386.078 294.815 385.952 293.914 385.507L293.55 385.326C291.288 387.506 288.135 388.207 285.332 387.439C283.957 388.52 282.125 388.648 280.659 387.923L280.211 387.701C278.046 389.84 274.924 390.67 272.011 389.906C270.764 390.848 269.171 391.022 267.811 390.515C265.299 392.458 261.734 392.931 258.656 391.351C260.544 395.111 264.75 397.35 269.094 396.559L295.83 391.686C300.073 390.912 303.173 387.478 303.724 383.419C301.838 385.285 299.285 386.099 296.846 385.854Z" fill="#FF8F73"/>
<path d="M288.086 382.623L287.094 384.777C288.323 384.886 289.58 384.593 290.657 383.895L288.086 382.623Z" fill="#FF8F73"/>
<path d="M300.39 382.273C302.511 381.119 303.758 378.662 303.218 376.129L300.39 382.273Z" fill="#FF8F73"/>
<path d="M257.125 385.226C258.011 388.412 261.486 390.206 264.635 388.969C256.863 385.122 257.405 385.401 257.125 385.226Z" fill="#FF8F73"/>
<path d="M274.831 385.039L273.821 387.233C275.037 387.31 276.276 386.995 277.336 386.278L274.831 385.039Z" fill="#FF8F73"/>
<rect x="343.603" y="326.838" width="119.664" height="98.422" rx="5" transform="rotate(-10.33 343.603 326.838)" fill="#FBFBFB"/>
<rect opacity="0.3" x="375.042" y="388.763" width="80.7202" height="6.37265" rx="3.18632" transform="rotate(-10.33 375.042 388.763)" fill="#BDC3CA"/>
<rect x="370.805" y="401.051" width="92.7574" height="4.24843" rx="2.12422" transform="rotate(-10.33 370.805 401.051)" fill="#E9EBED"/>
<rect x="471.079" y="303.603" width="119.664" height="98.422" rx="5" transform="rotate(-10.33 471.079 303.603)" fill="#FBFBFB"/>
<path d="M513.359 334.18L513.65 335.774C515.227 344.424 523.547 350.179 532.198 348.602L536.347 347.846C544.998 346.269 550.753 337.949 549.176 329.298L548.886 327.704C536.737 329.919 525.763 331.919 513.359 334.18Z" fill="#FF8F73"/>
<path d="M525.172 329.732L532.877 328.328C532.462 327.214 532.28 325.971 532.4 324.715C529.042 323.912 525.621 326.181 525.172 329.732Z" fill="#FF8F73"/>
<path d="M516.032 318.717C516.511 319.125 516.948 319.606 517.317 320.134C519.512 323.275 521.87 325.42 523.737 326.804C524.132 326.014 524.652 325.295 525.276 324.674C523.095 323.413 521.06 321.875 519.21 320.089C518.196 319.111 516.893 318.661 516.032 318.717Z" fill="#FF8F73"/>
<path d="M512.104 317.853L512.853 317.716L512.67 319.577C512.581 319.584 512.515 319.603 512.478 319.631C512.368 319.714 512.255 320.108 512.392 320.859C512.419 321.007 512.708 326.888 515.496 331.496L522.877 330.151C522.89 329.781 522.929 329.414 522.994 329.05C517.915 325.496 515.74 321.565 514.821 320.668C514.844 320.563 514.813 320.842 515.162 317.295L517.1 316.942C517.713 316.83 518.12 316.243 518.008 315.629C517.896 315.016 517.308 314.61 516.695 314.722L511.699 315.632C511.086 315.744 510.68 316.331 510.791 316.945C510.903 317.558 511.491 317.964 512.104 317.853Z" fill="#FF8F73"/>
<path d="M537.188 320.163C538.608 319.904 538.54 319.913 538.54 319.92C535.313 321.072 533.718 324.764 535.146 327.914L546.423 325.859C546.635 322.527 544.058 319.747 540.83 319.582C540.903 318.928 541.066 318.347 541.346 318.137C542.076 317.589 542.477 317.477 542.481 317.476C542.451 317.484 542.435 317.486 542.435 317.486C543.048 317.374 543.455 316.786 543.343 316.173C543.231 315.56 542.644 315.154 542.03 315.265C541.839 315.3 541.125 315.48 539.991 316.332C539.442 316.744 539.046 317.368 538.805 318.192C537.857 316.66 536.038 315.784 534.158 316.127C533.963 316.162 531.93 316.533 531.938 316.531C532.385 318.984 534.735 320.61 537.188 320.163Z" fill="#FF8F73"/>
<rect opacity="0.3" x="502.519" y="365.528" width="80.7202" height="6.37265" rx="3.18632" transform="rotate(-10.33 502.519 365.528)" fill="#BDC3CA"/>
<rect x="498.282" y="377.816" width="92.7574" height="4.24843" rx="2.12422" transform="rotate(-10.33 498.282 377.816)" fill="#E9EBED"/>
<path d="M420.47 369.346L401.615 372.783C393.562 374.251 385.816 368.893 384.348 360.84C384.196 360.011 384.746 359.216 385.575 359.065L430.638 350.851C431.467 350.7 432.262 351.25 432.413 352.079C433.881 360.132 428.523 367.878 420.47 369.346Z" fill="#FF8F73"/>
<path d="M412.748 341.863L399.144 344.343C393.415 345.387 389.213 349.986 388.397 355.448L426.722 348.463C424.031 343.639 418.476 340.819 412.748 341.863ZM398.936 350.2C398.668 350.753 398.451 351.398 397.583 351.557C396.371 351.778 395.387 350.521 395.938 349.388L396.191 348.866C396.56 348.108 397.473 347.792 398.231 348.16C398.989 348.529 399.305 349.442 398.936 350.2ZM408.352 348.484C408.083 349.037 407.867 349.682 406.998 349.841C405.79 350.061 404.801 348.808 405.353 347.672L405.607 347.15C405.976 346.392 406.889 346.076 407.647 346.444C408.405 346.813 408.72 347.726 408.352 348.484ZM417.088 346.891C416.819 347.445 416.602 348.09 415.734 348.248C414.522 348.469 413.538 347.212 414.089 346.08L414.342 345.558C414.711 344.8 415.624 344.484 416.382 344.852C417.14 345.22 417.456 346.133 417.088 346.891Z" fill="#FF8F73"/>
<path d="M407.693 339.682C405.198 336.184 400.486 334.998 396.604 336.996C396.045 337.284 395.719 337.885 395.784 338.511C395.905 339.673 396.254 340.779 396.795 341.776C397.994 341.413 397.792 341.487 407.693 339.682Z" fill="#FF8F73"/>
<path d="M414.039 338.633C414.194 337.51 414.131 336.351 413.834 335.221C413.674 334.613 413.158 334.165 412.533 334.093C410.714 333.884 408.908 334.252 407.348 335.105C408.841 336.151 410.058 337.52 410.92 339.095C412.216 338.858 412.913 338.709 414.039 338.633Z" fill="#FF8F73"/>
<path d="M374.696 162.797L302.606 175.937C299.174 176.563 297.046 180.023 298.05 183.324C304.291 203.897 325.162 216.609 346.552 212.71C367.915 208.817 382.986 189.579 381.566 168.101C381.34 164.654 378.124 162.172 374.696 162.797ZM326.327 200.494C326.019 200.55 325.69 200.516 325.384 200.376C321.284 198.511 317.538 195.753 314.552 192.401C313.972 191.749 314.033 190.752 314.69 190.173C315.346 189.595 316.348 189.654 316.929 190.305C319.625 193.332 323.006 195.822 326.708 197.506C328.119 198.148 327.844 200.217 326.327 200.494ZM363.627 215.948L331.716 221.764C330.854 221.921 330.029 221.354 329.873 220.497C329.716 219.64 330.288 218.817 331.151 218.66L363.061 212.844C363.923 212.687 364.749 213.254 364.905 214.111C365.061 214.968 364.489 215.791 363.627 215.948ZM332.675 167.249L319.923 169.574C319.321 169.683 318.724 169.367 318.481 168.809L317.261 166.015C316.912 165.216 315.978 164.85 315.174 165.198C314.37 165.547 314.002 166.477 314.35 167.276L315.029 168.832C315.366 169.605 314.891 170.491 314.056 170.643L305.42 172.217C304.698 172.349 304.017 171.867 303.886 171.15C303.736 170.326 303.699 169.482 303.835 168.649C304.375 165.344 306.557 164.745 307.017 162.298C307.638 159.002 304.381 157.197 305.755 153.661C307.071 150.276 312.143 147.936 315.547 149.41C320.247 151.447 318.169 158.553 321.483 160.442C324.054 161.909 327.625 158.751 331.076 161.113C332.466 162.065 333.351 163.595 333.739 165.738C333.866 166.444 333.385 167.12 332.675 167.249ZM370.945 160.274L362.234 161.861C361.767 161.947 361.298 161.764 360.997 161.4C355.567 154.829 344.9 156.797 342.146 164.838C341.993 165.284 341.619 165.619 341.154 165.704L337.627 166.347C336.886 166.482 336.188 165.97 336.088 165.227C335.423 160.293 332.547 157.513 327.544 158.328C326.526 158.494 325.725 157.468 326.13 156.524C327.607 153.087 331.028 150.948 334.928 150.446C340.499 149.738 342.6 153.412 345.022 152.734C348.035 151.891 347.404 145.21 352.873 142.74C356.847 140.949 362.305 142.12 364.552 145.247C367.188 148.916 364.124 153.102 365.895 155.06C367.082 156.373 369.602 155.65 371.719 158.171C372.376 158.952 371.905 160.099 370.945 160.274Z" fill="#9CE283"/>
<circle cx="462.136" cy="128.178" r="16.2857" transform="rotate(-10.33 462.136 128.178)" fill="#FFECC8"/>
<path d="M463.163 135.794L464.616 135.529L464.369 134.105C466.998 133.416 468.285 131.719 467.901 129.582C467.513 127.484 465.727 126.658 463.446 126.565L463.067 126.545L462.531 123.462C463.385 123.504 463.979 123.936 464.194 124.699L466.748 124.233C466.346 122.201 464.56 121.019 462.143 121.193L461.891 119.744L460.439 120.009L460.688 121.445C458.324 122.118 456.889 123.88 457.284 125.977C457.617 127.837 459.122 128.663 461.345 128.786L461.963 128.826L462.526 132.088C461.488 132.08 460.698 131.588 460.443 130.572L457.864 131.042C458.379 133.518 460.264 134.612 462.915 134.364L463.163 135.794ZM463.979 131.823L463.479 128.944C464.488 129.072 465.076 129.365 465.21 130.066C465.34 130.812 464.874 131.469 463.979 131.823ZM461.546 126.434C460.729 126.31 460.102 126.01 459.985 125.3C459.865 124.642 460.24 124.045 461.075 123.709L461.546 126.434Z" fill="#DAB879"/>
</g>
<defs>
<filter id="filter0_d" x="0" y="180.839" width="388.555" height="449.885" filterUnits="userSpaceOnUse" color-interpolation-filters="sRGB">
<feFlood flood-opacity="0" result="BackgroundImageFix"/>
<feColorMatrix in="SourceAlpha" type="matrix" values="0 0 0 0 0 0 0 0 0 0 0 0 0 0 0 0 0 0 127 0"/>
<feOffset/>
<feGaussianBlur stdDeviation="5"/>
<feColorMatrix type="matrix" values="0 0 0 0 0 0 0 0 0 0 0 0 0 0 0 0 0 0 0.25 0"/>
<feBlend mode="normal" in2="BackgroundImageFix" result="effect1_dropShadow"/>
<feBlend mode="normal" in="SourceGraphic" in2="effect1_dropShadow" result="shape"/>
</filter>
<filter id="filter1_d" x="6" y="186.839" width="376.555" height="437.885" filterUnits="userSpaceOnUse" color-interpolation-filters="sRGB">
<feFlood flood-opacity="0" result="BackgroundImageFix"/>
<feColorMatrix in="SourceAlpha" type="matrix" values="0 0 0 0 0 0 0 0 0 0 0 0 0 0 0 0 0 0 127 0"/>
<feOffset/>
<feGaussianBlur stdDeviation="2"/>
<feColorMatrix type="matrix" values="0 0 0 0 0 0 0 0 0 0 0 0 0 0 0 0 0 0 0.25 0"/>
<feBlend mode="normal" in2="BackgroundImageFix" result="effect1_dropShadow"/>
<feBlend mode="normal" in="SourceGraphic" in2="effect1_dropShadow" result="shape"/>
</filter>
<filter id="filter2_d" x="141.344" y="0.0612793" width="442.382" height="602.409" filterUnits="userSpaceOnUse" color-interpolation-filters="sRGB">
<feFlood flood-opacity="0" result="BackgroundImageFix"/>
<feColorMatrix in="SourceAlpha" type="matrix" values="0 0 0 0 0 0 0 0 0 0 0 0 0 0 0 0 0 0 127 0"/>
<feOffset/>
<feGaussianBlur stdDeviation="5"/>
<feColorMatrix type="matrix" values="0 0 0 0 0 0 0 0 0 0 0 0 0 0 0 0 0 0 0.25 0"/>
<feBlend mode="normal" in2="BackgroundImageFix" result="effect1_dropShadow"/>
<feBlend mode="normal" in="SourceGraphic" in2="effect1_dropShadow" result="shape"/>
</filter>
<filter id="filter3_d" x="141.344" y="0.0612793" width="442.382" height="602.409" filterUnits="userSpaceOnUse" color-interpolation-filters="sRGB">
<feFlood flood-opacity="0" result="BackgroundImageFix"/>
<feColorMatrix in="SourceAlpha" type="matrix" values="0 0 0 0 0 0 0 0 0 0 0 0 0 0 0 0 0 0 127 0"/>
<feOffset/>
<feGaussianBlur stdDeviation="5"/>
<feColorMatrix type="matrix" values="0 0 0 0 0 0 0 0 0 0 0 0 0 0 0 0 0 0 0.15 0"/>
<feBlend mode="normal" in2="BackgroundImageFix" result="effect1_dropShadow"/>
<feBlend mode="normal" in="SourceGraphic" in2="effect1_dropShadow" result="shape"/>
</filter>
</defs>
</svg>
