<svg width="489" height="413" viewBox="0 0 489 413" fill="none" xmlns="http://www.w3.org/2000/svg">
<path d="M90.2691 406.765L39.7846 88.6384C39.3575 85.9469 41.1644 83.409 43.8475 82.9319L358.374 27.0054C360.849 26.5654 363.266 28.0312 364.019 30.4294L446.582 293.199C447.406 295.822 445.958 298.618 443.341 299.459L96.7357 410.741C93.8168 411.679 90.7496 409.792 90.2691 406.765Z" fill="#E8FBFF"/>
<g filter="url(#filter0_d)">
<path d="M10 73.7275C10 69.4295 13.4842 65.9453 17.7822 65.9453H450.862C455.16 65.9453 458.644 69.4295 458.644 73.7275V351.163C458.644 355.461 455.16 358.945 450.862 358.945H17.7822C13.4842 358.945 10 355.461 10 351.163V73.7275Z" fill="white"/>
</g>
<mask id="mask0" mask-type="alpha" maskUnits="userSpaceOnUse" x="11" y="68" width="450" height="294">
<path d="M11.9453 76.782C11.9453 72.484 15.4295 68.9998 19.7275 68.9998H452.807C457.105 68.9998 460.589 72.484 460.589 76.782V354.218C460.589 358.516 457.105 362 452.807 362H19.7275C15.4295 362 11.9453 358.516 11.9453 354.218V76.782Z" fill="white"/>
</mask>
<g mask="url(#mask0)">
<path opacity="0.8" d="M18.9456 86.8989C18.9456 84.7499 20.6877 83.0078 22.8367 83.0078H445.799C447.948 83.0078 449.691 84.7499 449.691 86.8989V133.592C449.691 135.741 447.948 137.483 445.799 137.483H22.8367C20.6877 137.483 18.9456 135.741 18.9456 133.592V86.8989Z" fill="url(#paint0_linear)"/>
<path d="M190.945 104.409C190.945 103.334 191.816 102.463 192.891 102.463H276.55C277.624 102.463 278.495 103.334 278.495 104.409V104.798C278.495 105.872 277.624 106.743 276.55 106.743H192.891C191.816 106.743 190.945 105.872 190.945 104.798V104.409Z" fill="white"/>
<path d="M202.945 113.553C202.945 112.801 203.555 112.191 204.307 112.191H264.619C265.371 112.191 265.981 112.801 265.981 113.553C265.981 114.305 265.371 114.915 264.619 114.915H204.307C203.555 114.915 202.945 114.305 202.945 113.553Z" fill="white"/>
</g>
<path d="M19 150.963C19 149.879 19.474 149 20.0588 149H226.941C227.526 149 228 149.879 228 150.963V189.037C228 190.121 227.526 191 226.941 191H20.0588C19.474 191 19 190.121 19 189.037V150.963Z" fill="#FBFBFB"/>
<path d="M19 309.963C19 308.879 19.474 308 20.0588 308H226.941C227.526 308 228 308.879 228 309.963V348.037C228 349.121 227.526 350 226.941 350H20.0588C19.474 350 19 349.121 19 348.037V309.963Z" fill="#FBFBFB"/>
<path opacity="0.4" d="M66.541 166.613C66.541 165.753 67.2379 165.057 68.0975 165.057H163.819C164.678 165.057 165.375 165.753 165.375 166.613C165.375 167.473 164.678 168.17 163.819 168.17H68.0975C67.2379 168.17 66.541 167.473 66.541 166.613Z" fill="#C4C4C4"/>
<path opacity="0.4" d="M66.541 325.121C66.541 324.261 67.2379 323.564 68.0975 323.564H163.819C164.678 323.564 165.375 324.261 165.375 325.121C165.375 325.98 164.678 326.677 163.819 326.677H68.0975C67.2379 326.677 66.541 325.98 66.541 325.121Z" fill="#C4C4C4"/>
<path opacity="0.4" d="M66.541 174.394C66.541 173.535 67.2379 172.838 68.0975 172.838H143.585C144.444 172.838 145.141 173.535 145.141 174.394C145.141 175.254 144.444 175.951 143.585 175.951H68.0975C67.2379 175.951 66.541 175.254 66.541 174.394Z" fill="#C4C4C4"/>
<path opacity="0.4" d="M66.541 332.902C66.541 332.043 67.2379 331.346 68.0975 331.346H143.585C144.444 331.346 145.141 332.043 145.141 332.902C145.141 333.762 144.444 334.459 143.585 334.459H68.0975C67.2379 334.459 66.541 333.762 66.541 332.902Z" fill="#C4C4C4"/>
<path d="M19 203.963C19 202.879 19.474 202 20.0588 202H226.941C227.526 202 228 202.879 228 203.963V242.037C228 243.121 227.526 244 226.941 244H20.0588C19.474 244 19 243.121 19 242.037V203.963Z" fill="#FBFBFB"/>
<path opacity="0.4" d="M66.541 219.121C66.541 218.261 67.2379 217.564 68.0975 217.564H163.819C164.678 217.564 165.375 218.261 165.375 219.121C165.375 219.98 164.678 220.677 163.819 220.677H68.0975C67.2379 220.677 66.541 219.98 66.541 219.121Z" fill="#C4C4C4"/>
<path opacity="0.4" d="M66.541 226.904C66.541 226.044 67.2379 225.348 68.0975 225.348H143.585C144.444 225.348 145.141 226.044 145.141 226.904C145.141 227.764 144.444 228.461 143.585 228.461H68.0975C67.2379 228.461 66.541 227.764 66.541 226.904Z" fill="#C4C4C4"/>
<path d="M19 256.963C19 255.879 19.474 255 20.0588 255H226.941C227.526 255 228 255.879 228 256.963V295.037C228 296.121 227.526 297 226.941 297H20.0588C19.474 297 19 296.121 19 295.037V256.963Z" fill="#FBFBFB"/>
<path opacity="0.4" d="M66.541 275.154C66.541 274.294 67.2379 273.598 68.0975 273.598H163.819C164.678 273.598 165.375 274.294 165.375 275.154C165.375 276.014 164.678 276.711 163.819 276.711H68.0975C67.2379 276.711 66.541 276.014 66.541 275.154Z" fill="#C4C4C4"/>
<path opacity="0.4" d="M66.541 282.935C66.541 282.076 67.2379 281.379 68.0975 281.379H143.585C144.444 281.379 145.141 282.076 145.141 282.935C145.141 283.795 144.444 284.492 143.585 284.492H68.0975C67.2379 284.492 66.541 283.795 66.541 282.935Z" fill="#C4C4C4"/>
<rect x="24.4453" y="155.5" width="29" height="29" rx="4.5" fill="white" stroke="#EEEEEE"/>
<path d="M47.58 167.499H31.2987C30.5235 167.499 29.9206 168.171 30.0085 168.932C30.5531 173.678 34.6086 177.288 39.4393 177.288C44.2641 177.288 48.3249 173.684 48.8702 168.932C48.9582 168.17 48.3541 167.499 47.58 167.499ZM35.5054 173.812C35.4357 173.812 35.3653 173.792 35.3038 173.749C34.482 173.178 33.7731 172.426 33.254 171.574C33.1531 171.408 33.2063 171.193 33.3728 171.093C33.5393 170.992 33.7561 171.045 33.857 171.211C34.3256 171.98 34.9656 172.659 35.7076 173.174C35.9905 173.371 35.8479 173.812 35.5054 173.812ZM43.0428 178.676H35.8359C35.6412 178.676 35.4834 178.519 35.4834 178.326C35.4834 178.132 35.6412 177.975 35.8359 177.975H43.0428C43.2375 177.975 43.3953 178.132 43.3953 178.326C43.3953 178.519 43.2375 178.676 43.0428 178.676ZM38.2175 166.798H35.3374C35.2015 166.798 35.0835 166.705 35.0526 166.574L34.8975 165.914C34.8528 165.726 34.6632 165.609 34.4737 165.653C34.2841 165.697 34.1666 165.886 34.2108 166.074L34.2972 166.441C34.3402 166.624 34.2009 166.798 34.0124 166.798H32.062C31.899 166.798 31.7693 166.666 31.7693 166.504C31.7693 166.318 31.7949 166.132 31.8576 165.955C32.1075 165.254 32.6082 165.21 32.8063 164.694C33.0733 163.998 32.4333 163.474 32.8744 162.756C33.2971 162.068 34.499 161.759 35.1842 162.217C36.1305 162.849 35.3932 164.319 36.0423 164.864C36.5459 165.288 37.452 164.74 38.1123 165.393C38.3783 165.657 38.5107 166.026 38.5101 166.51C38.5099 166.67 38.3779 166.798 38.2175 166.798ZM46.8605 166.798H44.8932C44.7877 166.798 44.6924 166.74 44.6411 166.648C43.7161 164.996 41.306 165.001 40.3836 166.649C40.3325 166.74 40.2374 166.798 40.1323 166.798H39.3359C39.1684 166.798 39.0362 166.659 39.0439 166.492C39.0953 165.387 38.5773 164.665 37.4512 164.644C37.2223 164.64 37.0879 164.383 37.2141 164.193C37.6739 163.501 38.5068 163.17 39.3795 163.215C40.6253 163.282 40.9382 164.169 41.4945 164.118C42.1866 164.053 42.315 162.568 43.6088 162.246C44.5488 162.013 45.6953 162.486 46.0619 163.259C46.4918 164.166 45.6554 164.959 45.9643 165.458C46.1716 165.792 46.7511 165.734 47.1135 166.37C47.2259 166.567 47.0773 166.798 46.8605 166.798Z" fill="#FF8F73"/>
<rect x="24.4453" y="314.5" width="29" height="29" rx="4.5" fill="white" stroke="#EEEEEE"/>
<path d="M47.58 326.499H31.2987C30.5235 326.499 29.9206 327.171 30.0085 327.932C30.5531 332.678 34.6086 336.288 39.4393 336.288C44.2641 336.288 48.3249 332.684 48.8702 327.932C48.9582 327.17 48.3541 326.499 47.58 326.499ZM35.5054 332.812C35.4357 332.812 35.3653 332.792 35.3038 332.749C34.482 332.178 33.7731 331.426 33.254 330.574C33.1531 330.408 33.2063 330.193 33.3728 330.093C33.5393 329.992 33.7561 330.045 33.857 330.211C34.3256 330.98 34.9656 331.659 35.7076 332.174C35.9905 332.371 35.8479 332.812 35.5054 332.812ZM43.0428 337.676H35.8359C35.6412 337.676 35.4834 337.519 35.4834 337.326C35.4834 337.132 35.6412 336.975 35.8359 336.975H43.0428C43.2375 336.975 43.3953 337.132 43.3953 337.326C43.3953 337.519 43.2375 337.676 43.0428 337.676ZM38.2175 325.798H35.3374C35.2015 325.798 35.0835 325.705 35.0526 325.574L34.8975 324.914C34.8528 324.726 34.6632 324.609 34.4737 324.653C34.2841 324.697 34.1666 324.886 34.2108 325.074L34.2972 325.441C34.3402 325.624 34.2009 325.798 34.0124 325.798H32.062C31.899 325.798 31.7693 325.666 31.7693 325.504C31.7693 325.318 31.7949 325.132 31.8576 324.955C32.1075 324.254 32.6082 324.21 32.8063 323.694C33.0733 322.998 32.4333 322.474 32.8744 321.756C33.2971 321.068 34.499 320.759 35.1842 321.217C36.1305 321.849 35.3932 323.319 36.0423 323.864C36.5459 324.288 37.452 323.74 38.1123 324.393C38.3783 324.657 38.5107 325.026 38.5101 325.51C38.5099 325.67 38.3779 325.798 38.2175 325.798ZM46.8605 325.798H44.8932C44.7877 325.798 44.6924 325.74 44.6411 325.648C43.7161 323.996 41.306 324.001 40.3836 325.649C40.3325 325.74 40.2374 325.798 40.1323 325.798H39.3359C39.1684 325.798 39.0362 325.659 39.0439 325.492C39.0953 324.387 38.5773 323.665 37.4512 323.644C37.2223 323.64 37.0879 323.383 37.2141 323.193C37.6739 322.501 38.5068 322.17 39.3795 322.215C40.6253 322.282 40.9382 323.169 41.4945 323.118C42.1866 323.053 42.315 321.568 43.6088 321.246C44.5488 321.013 45.6953 321.486 46.0619 322.259C46.4918 323.166 45.6554 323.959 45.9643 324.458C46.1716 324.792 46.7511 324.734 47.1135 325.37C47.2259 325.567 47.0773 325.798 46.8605 325.798Z" fill="#FF8F73"/>
<rect x="25.4453" y="207.852" width="29" height="29" rx="4.5" fill="white" stroke="#EEEEEE"/>
<rect x="25.4453" y="263.852" width="29" height="29" rx="4.5" fill="white" stroke="#EEEEEE"/>
<path d="M43.3354 271.134C44.1141 271.823 44.6603 272.759 44.8625 273.797C44.9596 274.295 44.4654 274.704 44.0078 274.48C43.8421 274.399 43.7154 274.244 43.6786 274.049C43.5618 273.429 43.2921 272.868 42.9009 272.407C42.6974 272.167 42.1629 271.72 41.5854 271.436C40.7817 271.041 39.6174 270.864 38.4873 271.135C39.2653 271.824 39.811 272.76 40.0131 273.797C40.1103 274.295 39.6149 274.703 39.1583 274.48C38.9926 274.399 38.8659 274.244 38.8291 274.049C38.7104 273.419 38.4338 272.85 38.0321 272.385C37.7235 272.027 36.861 271.494 36.8428 271.483C33.7105 269.954 29.9985 272.238 30 275.766C30.0002 276.1 30.2718 276.369 30.6051 276.369H48.6018C48.9351 276.369 49.2068 276.1 49.2069 275.766C49.2082 272.695 46.3312 270.419 43.3354 271.134Z" fill="#FF8F73"/>
<path d="M47.8935 277.58C47.6681 277.58 32.3157 277.58 31.2435 277.58C30.6629 277.58 30.4158 278.323 30.8822 278.67L34.5284 281.384C34.8019 281.587 35.1895 281.525 35.3851 281.246L36.9315 279.042L40.0784 281.384C40.3521 281.588 40.7396 281.525 40.9351 281.246L42.4815 279.042L45.6284 281.384C45.9019 281.587 46.2895 281.525 46.4851 281.246L48.3888 278.532C48.6694 278.132 48.383 277.58 47.8935 277.58Z" fill="#FF8F73"/>
<path d="M46.0682 282.711C45.653 282.729 45.2377 282.601 44.9055 282.354L44.7712 282.254C43.6936 282.97 42.3642 283.021 41.2853 282.503C40.648 282.839 39.8961 282.756 39.3555 282.354L39.1903 282.231C38.1552 282.938 36.8284 283.043 35.7046 282.519C35.1298 282.808 34.4712 282.761 33.9577 282.455C32.796 283.057 31.3161 282.986 30.1858 282.118C30.6731 283.781 32.2123 284.999 34.0308 284.999H45.2257C47.0022 284.999 48.5121 283.837 49.0352 282.232C48.1332 282.849 47.0383 282.991 46.0682 282.711Z" fill="#FF8F73"/>
<path d="M42.7574 280.757L42.1963 281.556C42.6861 281.691 43.2173 281.665 43.7051 281.462L42.7574 280.757Z" fill="#FF8F73"/>
<path d="M47.769 281.523C48.7138 281.212 49.4005 280.308 49.369 279.242L47.769 281.523Z" fill="#FF8F73"/>
<path d="M30.0176 279.524C30.141 280.881 31.4168 281.864 32.7845 281.596C29.9187 279.463 30.1178 279.616 30.0176 279.524Z" fill="#FF8F73"/>
<path d="M37.2075 280.757L36.636 281.571C37.1233 281.692 37.6487 281.656 38.131 281.444L37.2075 280.757Z" fill="#FF8F73"/>
<path d="M32 222.669V223.427C32 227.537 35.3442 230.881 39.4547 230.881H41.4264C45.5369 230.881 48.8812 227.537 48.8812 223.427V222.669C43.1084 222.669 37.894 222.669 32 222.669Z" fill="#FF8F73"/>
<path d="M37.8059 221.614H41.4667C41.3696 221.067 41.3899 220.48 41.5504 219.912C40.0735 219.262 38.31 220.018 37.8059 221.614Z" fill="#FF8F73"/>
<path d="M34.5254 215.782C34.7113 216.01 34.8719 216.268 34.9975 216.542C35.7433 218.17 36.6481 219.354 37.3909 220.147C37.6385 219.817 37.9379 219.53 38.2772 219.297C37.38 218.534 36.5729 217.656 35.8716 216.679C35.4875 216.145 34.9257 215.828 34.5254 215.782Z" fill="#FF8F73"/>
<path d="M32.7915 215.055H33.1471L32.907 215.896C32.8658 215.891 32.8338 215.895 32.8142 215.904C32.7568 215.933 32.6721 216.105 32.6721 216.462C32.6721 216.532 32.312 219.261 33.2078 221.614H36.715C36.7519 221.445 36.8007 221.279 36.8611 221.117C34.8231 219.057 34.1526 217.067 33.8051 216.578C33.8246 216.531 33.7868 216.657 34.2445 215.055H35.1654C35.4567 215.055 35.6929 214.819 35.6929 214.528C35.6929 214.236 35.4567 214 35.1654 214H32.7915C32.5001 214 32.2639 214.236 32.2639 214.528C32.2639 214.819 32.5001 215.055 32.7915 215.055Z" fill="#FF8F73"/>
<path d="M44.1333 218.22C44.8082 218.22 44.7761 218.219 44.7754 218.222C43.1948 218.481 42.1518 220.045 42.5445 221.614H47.9029C48.2798 220.099 47.328 218.605 45.8571 218.258C45.9452 217.964 46.0689 217.71 46.2156 217.637C46.597 217.446 46.7909 217.428 46.7929 217.428C46.7783 217.429 46.771 217.429 46.771 217.429C47.0624 217.429 47.2986 217.193 47.2986 216.901C47.2986 216.61 47.0624 216.374 46.771 216.374C46.6799 216.374 46.3366 216.397 45.7438 216.693C45.4566 216.837 45.2222 217.091 45.0425 217.449C44.7345 216.665 43.9715 216.11 43.0783 216.11C42.9856 216.11 42.0198 216.11 42.0232 216.11C42.0232 217.275 42.968 218.22 44.1333 218.22Z" fill="#FF8F73"/>
<path d="M241 150.963C241 149.879 241.474 149 242.059 149H448.941C449.526 149 450 149.879 450 150.963V189.037C450 190.121 449.526 191 448.941 191H242.059C241.474 191 241 190.121 241 189.037V150.963Z" fill="#FBFBFB"/>
<path d="M241 309.963C241 308.879 241.474 308 242.059 308H448.941C449.526 308 450 308.879 450 309.963V348.037C450 349.121 449.526 350 448.941 350H242.059C241.474 350 241 349.121 241 348.037V309.963Z" fill="#FBFBFB"/>
<path opacity="0.4" d="M288.541 166.613C288.541 165.753 289.238 165.057 290.097 165.057H385.819C386.678 165.057 387.375 165.753 387.375 166.613C387.375 167.473 386.678 168.17 385.819 168.17H290.097C289.238 168.17 288.541 167.473 288.541 166.613Z" fill="#C4C4C4"/>
<path opacity="0.4" d="M288.541 325.121C288.541 324.261 289.238 323.564 290.097 323.564H385.819C386.678 323.564 387.375 324.261 387.375 325.121C387.375 325.98 386.678 326.677 385.819 326.677H290.097C289.238 326.677 288.541 325.98 288.541 325.121Z" fill="#C4C4C4"/>
<path opacity="0.4" d="M288.541 174.394C288.541 173.535 289.238 172.838 290.097 172.838H365.585C366.444 172.838 367.141 173.535 367.141 174.394C367.141 175.254 366.444 175.951 365.585 175.951H290.097C289.238 175.951 288.541 175.254 288.541 174.394Z" fill="#C4C4C4"/>
<path opacity="0.4" d="M288.541 332.902C288.541 332.043 289.238 331.346 290.097 331.346H365.585C366.444 331.346 367.141 332.043 367.141 332.902C367.141 333.762 366.444 334.459 365.585 334.459H290.097C289.238 334.459 288.541 333.762 288.541 332.902Z" fill="#C4C4C4"/>
<path d="M241 203.963C241 202.879 241.474 202 242.059 202H448.941C449.526 202 450 202.879 450 203.963V242.037C450 243.121 449.526 244 448.941 244H242.059C241.474 244 241 243.121 241 242.037V203.963Z" fill="#FBFBFB"/>
<path opacity="0.4" d="M288.541 219.121C288.541 218.261 289.238 217.564 290.097 217.564H385.819C386.678 217.564 387.375 218.261 387.375 219.121C387.375 219.98 386.678 220.677 385.819 220.677H290.097C289.238 220.677 288.541 219.98 288.541 219.121Z" fill="#C4C4C4"/>
<path opacity="0.4" d="M288.541 226.904C288.541 226.044 289.238 225.348 290.097 225.348H365.585C366.444 225.348 367.141 226.044 367.141 226.904C367.141 227.764 366.444 228.461 365.585 228.461H290.097C289.238 228.461 288.541 227.764 288.541 226.904Z" fill="#C4C4C4"/>
<path d="M241 256.963C241 255.879 241.474 255 242.059 255H448.941C449.526 255 450 255.879 450 256.963V295.037C450 296.121 449.526 297 448.941 297H242.059C241.474 297 241 296.121 241 295.037V256.963Z" fill="#FBFBFB"/>
<path opacity="0.4" d="M288.541 275.154C288.541 274.294 289.238 273.598 290.097 273.598H385.819C386.678 273.598 387.375 274.294 387.375 275.154C387.375 276.014 386.678 276.711 385.819 276.711H290.097C289.238 276.711 288.541 276.014 288.541 275.154Z" fill="#C4C4C4"/>
<path opacity="0.4" d="M288.541 282.935C288.541 282.076 289.238 281.379 290.097 281.379H365.585C366.444 281.379 367.141 282.076 367.141 282.935C367.141 283.795 366.444 284.492 365.585 284.492H290.097C289.238 284.492 288.541 283.795 288.541 282.935Z" fill="#C4C4C4"/>
<rect x="246.445" y="208.5" width="29" height="29" rx="4.5" fill="white" stroke="#EEEEEE"/>
<path d="M269.58 220.499H253.299C252.524 220.499 251.921 221.171 252.009 221.932C252.553 226.678 256.609 230.288 261.439 230.288C266.264 230.288 270.325 226.684 270.87 221.932C270.958 221.17 270.354 220.499 269.58 220.499ZM257.505 226.812C257.436 226.812 257.365 226.792 257.304 226.749C256.482 226.178 255.773 225.426 255.254 224.574C255.153 224.408 255.206 224.193 255.373 224.093C255.539 223.992 255.756 224.045 255.857 224.211C256.326 224.98 256.966 225.659 257.708 226.174C257.991 226.371 257.848 226.812 257.505 226.812ZM265.043 231.676H257.836C257.641 231.676 257.483 231.519 257.483 231.326C257.483 231.132 257.641 230.975 257.836 230.975H265.043C265.237 230.975 265.395 231.132 265.395 231.326C265.395 231.519 265.237 231.676 265.043 231.676ZM260.217 219.798H257.337C257.202 219.798 257.084 219.705 257.053 219.574L256.897 218.914C256.853 218.726 256.663 218.609 256.474 218.653C256.284 218.697 256.167 218.886 256.211 219.074L256.297 219.441C256.34 219.624 256.201 219.798 256.012 219.798H254.062C253.899 219.798 253.769 219.666 253.769 219.504C253.769 219.318 253.795 219.132 253.858 218.955C254.108 218.254 254.608 218.21 254.806 217.694C255.073 216.998 254.433 216.474 254.874 215.756C255.297 215.068 256.499 214.759 257.184 215.217C258.131 215.849 257.393 217.319 258.042 217.864C258.546 218.288 259.452 217.74 260.112 218.393C260.378 218.657 260.511 219.026 260.51 219.51C260.51 219.67 260.378 219.798 260.217 219.798ZM268.861 219.798H266.893C266.788 219.798 266.692 219.74 266.641 219.648C265.716 217.996 263.306 218.001 262.384 219.649C262.332 219.74 262.237 219.798 262.132 219.798H261.336C261.168 219.798 261.036 219.659 261.044 219.492C261.095 218.387 260.577 217.665 259.451 217.644C259.222 217.64 259.088 217.383 259.214 217.193C259.674 216.501 260.507 216.17 261.379 216.215C262.625 216.282 262.938 217.169 263.495 217.118C264.187 217.053 264.315 215.568 265.609 215.246C266.549 215.013 267.695 215.486 268.062 216.259C268.492 217.166 267.655 217.959 267.964 218.458C268.172 218.792 268.751 218.734 269.114 219.37C269.226 219.567 269.077 219.798 268.861 219.798Z" fill="#FF8F73"/>
<rect x="246.445" y="314.5" width="29" height="29" rx="4.5" fill="white" stroke="#EEEEEE"/>
<path d="M269.58 326.499H253.299C252.524 326.499 251.921 327.171 252.009 327.932C252.553 332.678 256.609 336.288 261.439 336.288C266.264 336.288 270.325 332.684 270.87 327.932C270.958 327.17 270.354 326.499 269.58 326.499ZM257.505 332.812C257.436 332.812 257.365 332.792 257.304 332.749C256.482 332.178 255.773 331.426 255.254 330.574C255.153 330.408 255.206 330.193 255.373 330.093C255.539 329.992 255.756 330.045 255.857 330.211C256.326 330.98 256.966 331.659 257.708 332.174C257.991 332.371 257.848 332.812 257.505 332.812ZM265.043 337.676H257.836C257.641 337.676 257.483 337.519 257.483 337.326C257.483 337.132 257.641 336.975 257.836 336.975H265.043C265.237 336.975 265.395 337.132 265.395 337.326C265.395 337.519 265.237 337.676 265.043 337.676ZM260.217 325.798H257.337C257.202 325.798 257.084 325.705 257.053 325.574L256.897 324.914C256.853 324.726 256.663 324.609 256.474 324.653C256.284 324.697 256.167 324.886 256.211 325.074L256.297 325.441C256.34 325.624 256.201 325.798 256.012 325.798H254.062C253.899 325.798 253.769 325.666 253.769 325.504C253.769 325.318 253.795 325.132 253.858 324.955C254.108 324.254 254.608 324.21 254.806 323.694C255.073 322.998 254.433 322.474 254.874 321.756C255.297 321.068 256.499 320.759 257.184 321.217C258.131 321.849 257.393 323.319 258.042 323.864C258.546 324.288 259.452 323.74 260.112 324.393C260.378 324.657 260.511 325.026 260.51 325.51C260.51 325.67 260.378 325.798 260.217 325.798ZM268.861 325.798H266.893C266.788 325.798 266.692 325.74 266.641 325.648C265.716 323.996 263.306 324.001 262.384 325.649C262.332 325.74 262.237 325.798 262.132 325.798H261.336C261.168 325.798 261.036 325.659 261.044 325.492C261.095 324.387 260.577 323.665 259.451 323.644C259.222 323.64 259.088 323.383 259.214 323.193C259.674 322.501 260.507 322.17 261.379 322.215C262.625 322.282 262.938 323.169 263.495 323.118C264.187 323.053 264.315 321.568 265.609 321.246C266.549 321.013 267.695 321.486 268.062 322.259C268.492 323.166 267.655 323.959 267.964 324.458C268.172 324.792 268.751 324.734 269.114 325.37C269.226 325.567 269.077 325.798 268.861 325.798Z" fill="#FF8F73"/>
<rect x="247.445" y="261.5" width="29" height="29" rx="4.5" fill="white" stroke="#EEEEEE"/>
<path d="M265.335 268.783C266.114 269.471 266.66 270.407 266.863 271.445C266.96 271.943 266.465 272.352 266.008 272.129C265.842 272.048 265.715 271.892 265.679 271.697C265.562 271.078 265.292 270.517 264.901 270.056C264.697 269.816 264.163 269.368 263.585 269.084C262.782 268.689 261.617 268.513 260.487 268.784C261.265 269.473 261.811 270.408 262.013 271.445C262.11 271.944 261.615 272.352 261.158 272.129C260.993 272.048 260.866 271.892 260.829 271.697C260.71 271.067 260.434 270.498 260.032 270.033C259.724 269.675 258.861 269.143 258.843 269.131C255.711 267.602 251.998 269.887 252 273.415C252 273.748 252.272 274.018 252.605 274.018H270.602C270.935 274.018 271.207 273.748 271.207 273.415C271.208 270.344 268.331 268.067 265.335 268.783Z" fill="#FF8F73"/>
<path d="M269.893 275.228C269.668 275.228 254.316 275.228 253.243 275.228C252.663 275.228 252.416 275.971 252.882 276.319L256.528 279.032C256.802 279.236 257.189 279.173 257.385 278.895L258.931 276.69L262.078 279.032C262.352 279.236 262.74 279.173 262.935 278.895L264.481 276.69L267.628 279.032C267.902 279.236 268.289 279.173 268.485 278.895L270.389 276.181C270.669 275.781 270.383 275.228 269.893 275.228Z" fill="#FF8F73"/>
<path d="M268.068 280.359C267.653 280.378 267.238 280.249 266.906 280.002L266.771 279.902C265.694 280.619 264.364 280.67 263.285 280.151C262.648 280.488 261.896 280.404 261.356 280.002L261.19 279.879C260.155 280.586 258.828 280.692 257.705 280.167C257.13 280.457 256.471 280.41 255.958 280.104C254.796 280.705 253.316 280.634 252.186 279.766C252.673 281.429 254.212 282.648 256.031 282.648H267.226C269.002 282.648 270.512 281.485 271.035 279.881C270.133 280.498 269.038 280.639 268.068 280.359Z" fill="#FF8F73"/>
<path d="M264.757 278.405L264.196 279.205C264.686 279.34 265.217 279.314 265.705 279.11L264.757 278.405Z" fill="#FF8F73"/>
<path d="M269.769 279.171C270.714 278.86 271.401 277.957 271.369 276.891L269.769 279.171Z" fill="#FF8F73"/>
<path d="M252.018 277.173C252.141 278.529 253.417 279.513 254.784 279.244C251.919 277.111 252.118 277.264 252.018 277.173Z" fill="#FF8F73"/>
<path d="M259.207 278.405L258.636 279.22C259.123 279.341 259.649 279.304 260.131 279.092L259.207 278.405Z" fill="#FF8F73"/>
<rect x="247.445" y="155.5" width="29" height="29" rx="4.5" fill="white" stroke="#EEEEEE"/>
<path d="M254 170.318V171.075C254 175.185 257.344 178.53 261.455 178.53H263.426C267.537 178.53 270.881 175.185 270.881 171.075V170.318C265.108 170.318 259.894 170.318 254 170.318Z" fill="#FF8F73"/>
<path d="M259.806 169.262H263.467C263.37 168.715 263.39 168.128 263.55 167.561C262.074 166.91 260.31 167.667 259.806 169.262Z" fill="#FF8F73"/>
<path d="M256.525 163.431C256.711 163.658 256.872 163.916 256.998 164.19C257.743 165.818 258.648 167.002 259.391 167.795C259.639 167.465 259.938 167.178 260.277 166.945C259.38 166.182 258.573 165.304 257.872 164.328C257.487 163.793 256.926 163.477 256.525 163.431Z" fill="#FF8F73"/>
<path d="M254.791 162.704H255.147L254.907 163.544C254.866 163.54 254.834 163.543 254.814 163.553C254.757 163.582 254.672 163.753 254.672 164.11C254.672 164.181 254.312 166.909 255.208 169.262H258.715C258.752 169.094 258.801 168.928 258.861 168.766C256.823 166.706 256.153 164.716 255.805 164.226C255.825 164.18 255.787 164.305 256.244 162.704H257.165C257.457 162.704 257.693 162.467 257.693 162.176C257.693 161.885 257.457 161.648 257.165 161.648H254.791C254.5 161.648 254.264 161.885 254.264 162.176C254.264 162.467 254.5 162.704 254.791 162.704Z" fill="#FF8F73"/>
<path d="M266.133 165.869C266.808 165.869 266.776 165.867 266.775 165.87C265.195 166.13 264.152 167.694 264.544 169.262H269.903C270.28 167.748 269.328 166.253 267.857 165.907C267.945 165.612 268.069 165.359 268.216 165.285C268.597 165.095 268.791 165.077 268.793 165.077C268.778 165.078 268.771 165.077 268.771 165.077C269.062 165.077 269.299 164.841 269.299 164.55C269.299 164.259 269.062 164.022 268.771 164.022C268.68 164.022 268.337 164.045 267.744 164.342C267.457 164.485 267.222 164.739 267.042 165.098C266.735 164.314 265.972 163.759 265.078 163.759C264.986 163.759 264.02 163.759 264.023 163.759C264.023 164.924 264.968 165.869 266.133 165.869Z" fill="#FF8F73"/>
<g filter="url(#filter1_d)">
<rect x="305" y="261" width="174" height="116" rx="10" fill="white"/>
</g>
<rect x="329.25" y="284.25" width="125.5" height="69.5" rx="3.75" stroke="#DCDCDC" stroke-width="2.5" stroke-dasharray="8 8"/>
<path d="M395.305 306.5C390.138 309.833 379.505 317 378.305 319V326L387.805 332L399.805 331L408.305 323.5L395.305 306.5Z" fill="#9CE283"/>
<path d="M408.851 314.146C407.31 306.352 400.434 300.473 392.187 300.473C385.64 300.473 379.964 304.188 377.121 309.614C370.313 310.351 365 316.117 365 323.129C365 330.639 371.083 336.723 378.594 336.723H408.047C414.3 336.723 419.375 331.648 419.375 325.395C419.375 319.413 414.719 314.565 408.851 314.146ZM396.719 320.863V329.926H387.656V320.863H380.859L392.187 309.535L403.516 320.863H396.719V320.863Z" fill="#FFECC8"/>
<defs>
<filter id="filter0_d" x="0" y="55.9453" width="468.644" height="313" filterUnits="userSpaceOnUse" color-interpolation-filters="sRGB">
<feFlood flood-opacity="0" result="BackgroundImageFix"/>
<feColorMatrix in="SourceAlpha" type="matrix" values="0 0 0 0 0 0 0 0 0 0 0 0 0 0 0 0 0 0 127 0"/>
<feOffset/>
<feGaussianBlur stdDeviation="5"/>
<feColorMatrix type="matrix" values="0 0 0 0 0 0 0 0 0 0 0 0 0 0 0 0 0 0 0.15 0"/>
<feBlend mode="normal" in2="BackgroundImageFix" result="effect1_dropShadow"/>
<feBlend mode="normal" in="SourceGraphic" in2="effect1_dropShadow" result="shape"/>
</filter>
<filter id="filter1_d" x="295" y="251" width="194" height="136" filterUnits="userSpaceOnUse" color-interpolation-filters="sRGB">
<feFlood flood-opacity="0" result="BackgroundImageFix"/>
<feColorMatrix in="SourceAlpha" type="matrix" values="0 0 0 0 0 0 0 0 0 0 0 0 0 0 0 0 0 0 127 0"/>
<feOffset/>
<feGaussianBlur stdDeviation="5"/>
<feColorMatrix type="matrix" values="0 0 0 0 0 0 0 0 0 0 0 0 0 0 0 0 0 0 0.14 0"/>
<feBlend mode="normal" in2="BackgroundImageFix" result="effect1_dropShadow"/>
<feBlend mode="normal" in="SourceGraphic" in2="effect1_dropShadow" result="shape"/>
</filter>
<linearGradient id="paint0_linear" x1="84.9456" y1="83" x2="388.446" y2="151.5" gradientUnits="userSpaceOnUse">
<stop stop-color="#2184EE"/>
<stop offset="1" stop-color="#18B9F2"/>
</linearGradient>
</defs>
</svg>
