<svg width="526" height="393" viewBox="0 0 526 393" fill="none" xmlns="http://www.w3.org/2000/svg">
<path d="M365.085 387.075L428.544 116.732C429.157 114.121 427.601 111.492 425.018 110.772L117.356 25.0565C114.935 24.3819 112.39 25.6095 111.41 27.924L18.9851 246.279C17.8995 248.843 19.1188 251.801 21.6965 252.855L358.324 390.56C361.17 391.724 364.382 390.068 365.085 387.075Z" fill="#E8FBFF"/>
<g filter="url(#filter0_d)">
<path d="M10 75.7822C10 71.4842 13.4842 68 17.7822 68H450.862C455.16 68 458.644 71.4842 458.644 75.7822V353.218C458.644 357.516 455.16 361 450.862 361H17.7822C13.4842 361 10 357.516 10 353.218V75.7822Z" fill="white"/>
</g>
<mask id="mask0" mask-type="alpha" maskUnits="userSpaceOnUse" x="11" y="71" width="450" height="294">
<path d="M11.9453 78.8366C11.9453 74.5387 15.4295 71.0544 19.7275 71.0544H452.807C457.105 71.0544 460.589 74.5387 460.589 78.8366V356.272C460.589 360.57 457.105 364.054 452.807 364.054H19.7275C15.4295 364.054 11.9453 360.57 11.9453 356.272V78.8366Z" fill="white"/>
</mask>
<g mask="url(#mask0)">
<path d="M9.94531 80.7822C9.94531 76.4842 13.4295 73 17.7275 73H450.807C455.105 73 458.589 76.4842 458.589 80.7822V358.218C458.589 362.516 455.105 366 450.807 366H17.7275C13.4295 366 9.94531 362.516 9.94531 358.218V80.7822Z" fill="white"/>
<path d="M132 155.915C132 154.857 132.655 153.999 133.464 153.999H419.536C420.345 153.999 421 154.857 421 155.915V193.083C421 194.141 420.345 194.999 419.536 194.999H133.464C132.655 194.999 132 194.141 132 193.083V155.915Z" fill="#FBFBFB"/>
<path d="M19 162.176C19 157.66 19.2223 153.999 19.4965 153.999H116.504C116.778 153.999 117 157.66 117 162.176V320.821C117 325.338 116.778 328.999 116.504 328.999H19.4965C19.2223 328.999 19 325.338 19 320.821V162.176Z" fill="#FBFBFB"/>
<path d="M132 193.999H421V220.054C421 221.128 420.345 221.999 419.536 221.999H133.464C132.655 221.999 132 221.128 132 220.054V193.999Z" fill="#F5F5F5"/>
<path opacity="0.4" d="M173.542 170.667C173.542 169.807 174.239 169.11 175.098 169.11H270.82C271.679 169.11 272.376 169.807 272.376 170.667C272.376 171.526 271.679 172.223 270.82 172.223H175.098C174.239 172.223 173.542 171.526 173.542 170.667Z" fill="#C4C4C4"/>
<path opacity="0.4" d="M25 170.499C25 169.67 25.5782 168.999 26.2913 168.999H105.709C106.422 168.999 107 169.67 107 170.499C107 171.327 106.422 171.999 105.709 171.999H26.2913C25.5782 171.999 25 171.327 25 170.499Z" fill="#C4C4C4"/>
<path opacity="0.4" d="M173.542 178.448C173.542 177.588 174.239 176.891 175.098 176.891H250.586C251.445 176.891 252.142 177.588 252.142 178.448C252.142 179.308 251.445 180.004 250.586 180.004H175.098C174.239 180.004 173.542 179.308 173.542 178.448Z" fill="#C4C4C4"/>
<path opacity="0.4" d="M25 178.499C25 177.67 25.5763 176.999 26.2871 176.999H88.7129C89.4237 176.999 90 177.67 90 178.499C90 179.327 89.4237 179.999 88.7129 179.999H26.2871C25.5763 179.999 25 179.327 25 178.499Z" fill="#C4C4C4"/>
<path opacity="0.4" d="M25 186.499C25 185.67 25.5231 184.999 26.1683 184.999H82.8317C83.4769 184.999 84 185.67 84 186.499C84 187.327 83.4769 187.999 82.8317 187.999H26.1683C25.5231 187.999 25 187.327 25 186.499Z" fill="#C4C4C4"/>
<path opacity="0.4" d="M25 194.499C25 193.67 25.6472 192.999 26.4455 192.999H96.5545C97.3528 192.999 98 193.67 98 194.499C98 195.327 97.3528 195.999 96.5545 195.999H26.4455C25.6472 195.999 25 195.327 25 194.499Z" fill="#C4C4C4"/>
<path d="M174.319 204.909C174.319 204.049 175.016 203.352 175.876 203.352H251.363C252.223 203.352 252.92 204.049 252.92 204.909C252.92 205.768 252.223 206.465 251.363 206.465H175.876C175.016 206.465 174.319 205.768 174.319 204.909Z" fill="#E0E0E0"/>
<path d="M174.319 211.133C174.319 210.274 175.016 209.577 175.876 209.577H260.702C261.561 209.577 262.258 210.274 262.258 211.133C262.258 211.993 261.561 212.69 260.702 212.69H175.876C175.016 212.69 174.319 211.993 174.319 211.133Z" fill="#E0E0E0"/>
<path d="M132 235.915C132 234.857 132.655 233.999 133.464 233.999H419.536C420.345 233.999 421 234.857 421 235.915V273.083C421 274.141 420.345 274.999 419.536 274.999H133.464C132.655 274.999 132 274.141 132 273.083V235.915Z" fill="#FBFBFB"/>
<path opacity="0.4" d="M173.542 250.823C173.542 249.963 174.239 249.266 175.098 249.266H270.82C271.679 249.266 272.376 249.963 272.376 250.823C272.376 251.683 271.679 252.379 270.82 252.379H175.098C174.239 252.379 173.542 251.683 173.542 250.823Z" fill="#C4C4C4"/>
<path opacity="0.4" d="M173.542 258.606C173.542 257.747 174.239 257.05 175.098 257.05H250.586C251.445 257.05 252.142 257.747 252.142 258.606C252.142 259.466 251.445 260.163 250.586 260.163H175.098C174.239 260.163 173.542 259.466 173.542 258.606Z" fill="#C4C4C4"/>
<path d="M132 288.962C132 287.878 132.655 286.999 133.464 286.999H419.536C420.345 286.999 421 287.878 421 288.962V327.036C421 328.12 420.345 328.999 419.536 328.999H133.464C132.655 328.999 132 328.12 132 327.036V288.962Z" fill="#FBFBFB"/>
<path opacity="0.4" d="M173.542 306.856C173.542 305.997 174.239 305.3 175.098 305.3H270.82C271.679 305.3 272.376 305.997 272.376 306.856C272.376 307.716 271.679 308.413 270.82 308.413H175.098C174.239 308.413 173.542 307.716 173.542 306.856Z" fill="#C4C4C4"/>
<path opacity="0.4" d="M173.542 314.637C173.542 313.778 174.239 313.081 175.098 313.081H250.586C251.445 313.081 252.142 313.778 252.142 314.637C252.142 315.497 251.445 316.194 250.586 316.194H175.098C174.239 316.194 173.542 315.497 173.542 314.637Z" fill="#C4C4C4"/>
<path opacity="0.8" d="M19.0002 88.9535C19.0002 86.8045 20.7424 85.0624 22.8913 85.0624H445.854C448.003 85.0624 449.745 86.8045 449.745 88.9535V135.647C449.745 137.796 448.003 139.538 445.854 139.538H22.8914C20.7424 139.538 19.0002 137.796 19.0002 135.647V88.9535Z" fill="url(#paint0_linear)"/>
<path d="M191 107.945C191 106.871 191.871 106 192.946 106H276.604C277.679 106 278.55 106.871 278.55 107.945V108.334C278.55 109.409 277.679 110.28 276.604 110.28H192.946C191.871 110.28 191 109.409 191 108.334V107.945Z" fill="white"/>
<path d="M203 117.09C203 116.338 203.61 115.728 204.362 115.728H264.674C265.426 115.728 266.036 116.338 266.036 117.09C266.036 117.842 265.426 118.452 264.674 118.452H204.362C203.61 118.452 203 117.842 203 117.09Z" fill="white"/>
</g>
<rect x="137.445" y="159.555" width="29" height="29" rx="4.5" fill="white" stroke="#EEEEEE"/>
<path fill-rule="evenodd" clip-rule="evenodd" d="M151.946 166.419C148.871 166.419 146.385 168.906 146.385 171.98C146.385 176.151 151.946 182.308 151.946 182.308C151.946 182.308 157.507 176.151 157.507 171.98C157.507 168.906 155.02 166.419 151.946 166.419ZM151.946 173.966C150.85 173.966 149.96 173.076 149.96 171.98C149.96 170.884 150.85 169.994 151.946 169.994C153.043 169.994 153.932 170.884 153.932 171.98C153.932 173.076 153.043 173.966 151.946 173.966Z" fill="#FF9A81"/>
<rect x="138.445" y="239.555" width="29" height="29" rx="4.5" fill="white" stroke="#EEEEEE"/>
<rect x="138.445" y="295.555" width="29" height="29" rx="4.5" fill="white" stroke="#EEEEEE"/>
<path d="M159.081 306.231C159.076 306.168 159.024 306.119 158.961 306.119H156.796V305.518C156.796 303.595 155.231 302.03 153.308 302.03C151.385 302.03 149.82 303.595 149.82 305.518V306.119H147.656C147.593 306.119 147.54 306.168 147.536 306.231L146.694 317.296C146.691 317.329 146.703 317.362 146.725 317.386C146.748 317.411 146.78 317.425 146.814 317.425H159.803C159.836 317.425 159.868 317.411 159.891 317.386C159.914 317.362 159.925 317.329 159.923 317.296L159.081 306.231ZM150.783 305.518C150.783 304.126 151.916 302.992 153.308 302.992C154.701 302.992 155.834 304.126 155.834 305.518V306.119H150.783V305.518ZM150.301 309.487C149.638 309.487 149.099 308.948 149.099 308.284C149.099 307.804 149.339 307.372 149.82 307.182V308.284C149.82 308.55 150.036 308.765 150.301 308.765C150.567 308.765 150.783 308.55 150.783 308.284V307.183C151.264 307.373 151.504 307.808 151.504 308.284C151.504 308.948 150.965 309.487 150.301 309.487ZM156.315 309.487C155.652 309.487 155.112 308.948 155.112 308.284C155.112 307.804 155.353 307.372 155.834 307.182V308.284C155.834 308.55 156.05 308.765 156.315 308.765C156.58 308.765 156.796 308.55 156.796 308.284V307.183C157.277 307.373 157.518 307.808 157.518 308.284C157.518 308.948 156.978 309.487 156.315 309.487Z" fill="#FF9A81"/>
<mask id="mask1" mask-type="alpha" maskUnits="userSpaceOnUse" x="143" y="244" width="20" height="20">
<path fill-rule="evenodd" clip-rule="evenodd" d="M143.58 244.208H162.646V263.275H143.58V244.208Z" fill="white"/>
</mask>
<g mask="url(#mask1)">
<path fill-rule="evenodd" clip-rule="evenodd" d="M153.113 245.797C148.744 245.797 145.169 249.372 145.169 253.742C145.169 258.111 148.744 261.686 153.113 261.686C157.482 261.686 161.057 258.111 161.057 253.742C161.057 249.372 157.482 245.797 153.113 245.797ZM156.45 257.078L152.319 254.536V249.769H153.51V253.9L157.085 256.045L156.45 257.078Z" fill="#FF9A81"/>
</g>
<g filter="url(#filter1_d)">
<rect x="359" y="97" width="111" height="30" rx="5" fill="white"/>
</g>
<path d="M383.503 112.346C383.503 113.308 383.343 114.149 383.022 114.868C382.71 115.579 382.229 116.133 381.579 116.532C380.929 116.931 380.114 117.13 379.135 117.13C378.147 117.13 377.328 116.931 376.678 116.532C376.037 116.133 375.556 115.574 375.235 114.855C374.923 114.136 374.767 113.295 374.767 112.333C374.767 111.38 374.923 110.548 375.235 109.837C375.556 109.118 376.037 108.563 376.678 108.173C377.328 107.774 378.151 107.575 379.148 107.575C380.127 107.575 380.938 107.774 381.579 108.173C382.229 108.563 382.71 109.118 383.022 109.837C383.343 110.548 383.503 111.384 383.503 112.346ZM376.522 112.346C376.522 113.395 376.73 114.218 377.146 114.816C377.562 115.414 378.225 115.713 379.135 115.713C380.054 115.713 380.717 115.414 381.124 114.816C381.54 114.218 381.748 113.395 381.748 112.346C381.748 111.297 381.544 110.474 381.137 109.876C380.73 109.278 380.067 108.979 379.148 108.979C378.238 108.979 377.571 109.278 377.146 109.876C376.73 110.474 376.522 111.297 376.522 112.346ZM389.016 109.824C389.128 109.824 389.25 109.828 389.38 109.837C389.518 109.846 389.635 109.863 389.731 109.889L389.588 111.41C389.501 111.393 389.397 111.38 389.276 111.371C389.154 111.354 389.046 111.345 388.951 111.345C388.604 111.345 388.279 111.419 387.976 111.566C387.672 111.705 387.425 111.926 387.235 112.229C387.053 112.524 386.962 112.896 386.962 113.347V117H385.324V109.954H386.585L386.819 111.176H386.897C387.105 110.803 387.391 110.487 387.755 110.227C388.119 109.958 388.539 109.824 389.016 109.824ZM393.109 117.13C392.286 117.13 391.623 116.822 391.12 116.207C390.618 115.592 390.366 114.686 390.366 113.49C390.366 112.277 390.622 111.362 391.133 110.747C391.645 110.132 392.316 109.824 393.148 109.824C393.668 109.824 394.093 109.924 394.422 110.123C394.76 110.322 395.029 110.565 395.228 110.851H395.306C395.28 110.73 395.254 110.543 395.228 110.292C395.202 110.041 395.189 109.807 395.189 109.59V107.12H396.827V117H395.553L395.254 116.077H395.189C394.99 116.372 394.726 116.623 394.396 116.831C394.067 117.03 393.638 117.13 393.109 117.13ZM393.603 115.804C394.21 115.804 394.635 115.631 394.877 115.284C395.129 114.937 395.259 114.413 395.267 113.711V113.503C395.267 112.749 395.146 112.173 394.903 111.774C394.669 111.367 394.227 111.163 393.577 111.163C393.075 111.163 392.689 111.371 392.42 111.787C392.16 112.194 392.03 112.771 392.03 113.516C392.03 114.261 392.165 114.829 392.433 115.219C392.702 115.609 393.092 115.804 393.603 115.804ZM401.754 109.824C402.699 109.824 403.444 110.106 403.99 110.669C404.545 111.232 404.822 112.017 404.822 113.022V113.854H400.168C400.186 114.495 400.363 114.994 400.701 115.349C401.039 115.696 401.507 115.869 402.105 115.869C402.556 115.869 402.963 115.826 403.327 115.739C403.691 115.644 404.064 115.509 404.445 115.336V116.649C404.099 116.814 403.739 116.935 403.366 117.013C402.994 117.091 402.547 117.13 402.027 117.13C401.343 117.13 400.732 117 400.194 116.74C399.666 116.471 399.25 116.068 398.946 115.531C398.652 114.994 398.504 114.326 398.504 113.529C398.504 112.324 398.803 111.406 399.401 110.773C399.999 110.14 400.784 109.824 401.754 109.824ZM401.754 111.033C401.312 111.033 400.953 111.176 400.675 111.462C400.407 111.739 400.251 112.155 400.207 112.71H403.236C403.228 112.225 403.102 111.826 402.859 111.514C402.625 111.193 402.257 111.033 401.754 111.033ZM410.166 109.824C410.279 109.824 410.4 109.828 410.53 109.837C410.669 109.846 410.786 109.863 410.881 109.889L410.738 111.41C410.651 111.393 410.547 111.38 410.426 111.371C410.305 111.354 410.196 111.345 410.101 111.345C409.754 111.345 409.429 111.419 409.126 111.566C408.823 111.705 408.576 111.926 408.385 112.229C408.203 112.524 408.112 112.896 408.112 113.347V117H406.474V109.954H407.735L407.969 111.176H408.047C408.255 110.803 408.541 110.487 408.905 110.227C409.269 109.958 409.689 109.824 410.166 109.824ZM424.014 112.346C424.014 113.308 423.853 114.149 423.533 114.868C423.221 115.579 422.74 116.133 422.09 116.532C421.44 116.931 420.625 117.13 419.646 117.13C418.658 117.13 417.839 116.931 417.189 116.532C416.547 116.133 416.066 115.574 415.746 114.855C415.434 114.136 415.278 113.295 415.278 112.333C415.278 111.38 415.434 110.548 415.746 109.837C416.066 109.118 416.547 108.563 417.189 108.173C417.839 107.774 418.662 107.575 419.659 107.575C420.638 107.575 421.448 107.774 422.09 108.173C422.74 108.563 423.221 109.118 423.533 109.837C423.853 110.548 424.014 111.384 424.014 112.346ZM417.033 112.346C417.033 113.395 417.241 114.218 417.657 114.816C418.073 115.414 418.736 115.713 419.646 115.713C420.564 115.713 421.227 115.414 421.635 114.816C422.051 114.218 422.259 113.395 422.259 112.346C422.259 111.297 422.055 110.474 421.648 109.876C421.24 109.278 420.577 108.979 419.659 108.979C418.749 108.979 418.081 109.278 417.657 109.876C417.241 110.474 417.033 111.297 417.033 112.346ZM429.604 109.824C430.393 109.824 431.008 110.028 431.45 110.435C431.901 110.842 432.126 111.501 432.126 112.411V117H430.488V112.736C430.488 111.679 430.055 111.15 429.188 111.15C428.53 111.15 428.079 111.358 427.836 111.774C427.594 112.19 427.472 112.784 427.472 113.555V117H425.834V109.954H427.095L427.329 110.877H427.42C427.646 110.513 427.953 110.249 428.343 110.084C428.742 109.911 429.162 109.824 429.604 109.824ZM435.813 117H434.175V107.12H435.813V117ZM438.726 107.237C438.978 107.237 439.19 107.302 439.363 107.432C439.545 107.553 439.636 107.774 439.636 108.095C439.636 108.416 439.545 108.641 439.363 108.771C439.19 108.901 438.978 108.966 438.726 108.966C438.475 108.966 438.258 108.901 438.076 108.771C437.903 108.641 437.816 108.416 437.816 108.095C437.816 107.774 437.903 107.553 438.076 107.432C438.258 107.302 438.475 107.237 438.726 107.237ZM439.545 109.954V117H437.907V109.954H439.545ZM445.41 109.824C446.199 109.824 446.814 110.028 447.256 110.435C447.707 110.842 447.932 111.501 447.932 112.411V117H446.294V112.736C446.294 111.679 445.861 111.15 444.994 111.15C444.335 111.15 443.885 111.358 443.642 111.774C443.399 112.19 443.278 112.784 443.278 113.555V117H441.64V109.954H442.901L443.135 110.877H443.226C443.451 110.513 443.759 110.249 444.149 110.084C444.548 109.911 444.968 109.824 445.41 109.824ZM452.815 109.824C453.759 109.824 454.505 110.106 455.051 110.669C455.605 111.232 455.883 112.017 455.883 113.022V113.854H451.229C451.246 114.495 451.424 114.994 451.762 115.349C452.1 115.696 452.568 115.869 453.166 115.869C453.616 115.869 454.024 115.826 454.388 115.739C454.752 115.644 455.124 115.509 455.506 115.336V116.649C455.159 116.814 454.799 116.935 454.427 117.013C454.054 117.091 453.608 117.13 453.088 117.13C452.403 117.13 451.792 117 451.255 116.74C450.726 116.471 450.31 116.068 450.007 115.531C449.712 114.994 449.565 114.326 449.565 113.529C449.565 112.324 449.864 111.406 450.462 110.773C451.06 110.14 451.844 109.824 452.815 109.824ZM452.815 111.033C452.373 111.033 452.013 111.176 451.736 111.462C451.467 111.739 451.311 112.155 451.268 112.71H454.297C454.288 112.225 454.162 111.826 453.92 111.514C453.686 111.193 453.317 111.033 452.815 111.033Z" fill="#FF9A81"/>
<g filter="url(#filter2_d)">
<rect x="375" y="210" width="141" height="126" rx="10" fill="white"/>
</g>
<path d="M427.612 277.687H480.262V285.242H427.612V277.687Z" fill="#9CE283"/>
<path d="M488.288 290.181H419.587V295.119H424.583C424.187 295.88 423.93 296.723 423.851 297.615C423.475 301.831 426.992 305.348 431.208 304.972C434.44 304.684 437.042 302.081 437.33 298.849C437.451 297.499 437.17 296.221 436.596 295.119H471.277C470.881 295.88 470.624 296.723 470.545 297.615C470.169 301.831 473.686 305.348 477.902 304.972C481.134 304.684 483.736 302.081 484.024 298.849C484.145 297.499 483.864 296.221 483.29 295.119H488.288V290.181Z" fill="#FFECC8"/>
<path d="M408.598 256.308H421.617V261.247H408.598V256.308Z" fill="#E4E4E4"/>
<path d="M408.598 276.063H421.617V281.002H408.598V276.063Z" fill="#E4E4E4"/>
<path d="M404 266.187H421.617V271.125H404V266.187Z" fill="#E4E4E4"/>
<path d="M475.062 272.504C475.062 261.98 467.365 253.254 457.293 251.646C458.543 250.656 459.345 249.126 459.345 247.408C459.345 244.421 456.924 242 453.937 242C450.951 242 448.529 244.421 448.529 247.408C448.529 249.126 449.332 250.656 450.581 251.646C440.51 253.254 432.813 261.98 432.813 272.504V272.749H475.062V272.504Z" fill="#FFECC8"/>
<ellipse cx="453.912" cy="247.324" rx="5.54577" ry="5.32394" fill="#9CE283"/>
<defs>
<filter id="filter0_d" x="0" y="58" width="468.644" height="313" filterUnits="userSpaceOnUse" color-interpolation-filters="sRGB">
<feFlood flood-opacity="0" result="BackgroundImageFix"/>
<feColorMatrix in="SourceAlpha" type="matrix" values="0 0 0 0 0 0 0 0 0 0 0 0 0 0 0 0 0 0 127 0"/>
<feOffset/>
<feGaussianBlur stdDeviation="5"/>
<feColorMatrix type="matrix" values="0 0 0 0 0 0 0 0 0 0 0 0 0 0 0 0 0 0 0.15 0"/>
<feBlend mode="normal" in2="BackgroundImageFix" result="effect1_dropShadow"/>
<feBlend mode="normal" in="SourceGraphic" in2="effect1_dropShadow" result="shape"/>
</filter>
<filter id="filter1_d" x="344" y="86" width="141" height="60" filterUnits="userSpaceOnUse" color-interpolation-filters="sRGB">
<feFlood flood-opacity="0" result="BackgroundImageFix"/>
<feColorMatrix in="SourceAlpha" type="matrix" values="0 0 0 0 0 0 0 0 0 0 0 0 0 0 0 0 0 0 127 0"/>
<feOffset dy="4"/>
<feGaussianBlur stdDeviation="7.5"/>
<feColorMatrix type="matrix" values="0 0 0 0 0 0 0 0 0 0 0 0 0 0 0 0 0 0 0.14 0"/>
<feBlend mode="normal" in2="BackgroundImageFix" result="effect1_dropShadow"/>
<feBlend mode="normal" in="SourceGraphic" in2="effect1_dropShadow" result="shape"/>
</filter>
<filter id="filter2_d" x="365" y="200" width="161" height="146" filterUnits="userSpaceOnUse" color-interpolation-filters="sRGB">
<feFlood flood-opacity="0" result="BackgroundImageFix"/>
<feColorMatrix in="SourceAlpha" type="matrix" values="0 0 0 0 0 0 0 0 0 0 0 0 0 0 0 0 0 0 127 0"/>
<feOffset/>
<feGaussianBlur stdDeviation="5"/>
<feColorMatrix type="matrix" values="0 0 0 0 0 0 0 0 0 0 0 0 0 0 0 0 0 0 0.14 0"/>
<feBlend mode="normal" in2="BackgroundImageFix" result="effect1_dropShadow"/>
<feBlend mode="normal" in="SourceGraphic" in2="effect1_dropShadow" result="shape"/>
</filter>
<linearGradient id="paint0_linear" x1="49.5549" y1="85" x2="450.055" y2="173" gradientUnits="userSpaceOnUse">
<stop stop-color="#2280EE"/>
<stop offset="1" stop-color="#17BCF2"/>
</linearGradient>
</defs>
</svg>
