<svg width="469" height="422" viewBox="0 0 469 422" fill="none" xmlns="http://www.w3.org/2000/svg">
<path d="M90.2691 406.376L39.7846 88.2497C39.3575 85.5582 41.1644 83.0204 43.8475 82.5433L358.374 26.6168C360.849 26.1767 363.266 27.6426 364.019 30.0408L446.582 292.81C447.406 295.433 445.958 298.229 443.341 299.07L96.7357 410.353C93.8168 411.29 90.7496 409.404 90.2691 406.376Z" fill="#E8FBFF"/>
<g filter="url(#filter0_d)">
<path d="M10 50.7822C10 46.4842 13.4842 43 17.7822 43H450.862C455.16 43 458.644 46.4842 458.644 50.7822V328.218C458.644 332.516 455.16 336 450.862 336H17.7822C13.4842 336 10 332.516 10 328.218V50.7822Z" fill="white"/>
</g>
<mask id="mask0" mask-type="alpha" maskUnits="userSpaceOnUse" x="11" y="46" width="450" height="294">
<path d="M11.9453 53.8366C11.9453 49.5387 15.4295 46.0544 19.7275 46.0544H452.807C457.105 46.0544 460.589 49.5387 460.589 53.8366V331.272C460.589 335.57 457.105 339.054 452.807 339.054H19.7275C15.4295 339.054 11.9453 335.57 11.9453 331.272V53.8366Z" fill="white"/>
</mask>
<g mask="url(#mask0)">
<path d="M9.94531 55.7822C9.94531 51.4842 13.4295 48 17.7275 48H450.807C455.105 48 458.589 51.4842 458.589 55.7822V333.218C458.589 337.516 455.105 341 450.807 341H17.7275C13.4295 341 9.94531 337.516 9.94531 333.218V55.7822Z" fill="white"/>
<path d="M42 130.915C42 129.857 42.4808 128.999 43.074 128.999H252.926C253.519 128.999 254 129.857 254 130.915V168.083C254 169.141 253.519 169.999 252.926 169.999H43.074C42.4808 169.999 42 169.141 42 168.083V130.915Z" fill="#FBFBFB"/>
<path d="M42 168.999H254V195.054C254 196.128 253.519 196.999 252.926 196.999H43.074C42.4808 196.999 42 196.128 42 195.054V168.999Z" fill="#F5F5F5"/>
<path opacity="0.4" d="M65 145.499C65 144.67 65.3878 143.999 65.8661 143.999H119.134C119.612 143.999 120 144.67 120 145.499C120 146.327 119.612 146.999 119.134 146.999H65.8661C65.3878 146.999 65 146.327 65 145.499Z" fill="#C4C4C4"/>
<path opacity="0.4" d="M65 153.499C65 152.67 65.3812 151.999 65.8515 151.999H107.149C107.619 151.999 108 152.67 108 153.499C108 154.327 107.619 154.999 107.149 154.999H65.8515C65.3812 154.999 65 154.327 65 153.499Z" fill="#C4C4C4"/>
<path d="M65 179.499C65 178.67 65.3901 177.999 65.8713 177.999H108.129C108.61 177.999 109 178.67 109 179.499C109 180.327 108.61 180.999 108.129 180.999H65.8713C65.3901 180.999 65 180.327 65 179.499Z" fill="#E0E0E0"/>
<path d="M65 186.499C65 185.67 65.3883 184.999 65.8673 184.999H113.133C113.612 184.999 114 185.67 114 186.499C114 187.327 113.612 187.999 113.133 187.999H65.8673C65.3883 187.999 65 187.327 65 186.499Z" fill="#E0E0E0"/>
<path d="M42 210.915C42 209.857 42.4808 208.999 43.074 208.999H252.926C253.519 208.999 254 209.857 254 210.915V248.083C254 249.141 253.519 249.999 252.926 249.999H43.074C42.4808 249.999 42 249.141 42 248.083V210.915Z" fill="#FBFBFB"/>
<path opacity="0.4" d="M65 225.499C65 224.67 65.3878 223.999 65.8661 223.999H119.134C119.612 223.999 120 224.67 120 225.499C120 226.327 119.612 226.999 119.134 226.999H65.8661C65.3878 226.999 65 226.327 65 225.499Z" fill="#C4C4C4"/>
<path opacity="0.4" d="M65 233.499C65 232.67 65.3812 231.999 65.8515 231.999H107.149C107.619 231.999 108 232.67 108 233.499C108 234.327 107.619 234.999 107.149 234.999H65.8515C65.3812 234.999 65 234.327 65 233.499Z" fill="#C4C4C4"/>
<path d="M42 263.962C42 262.878 42.4808 261.999 43.074 261.999H252.926C253.519 261.999 254 262.878 254 263.962V302.036C254 303.12 253.519 303.999 252.926 303.999H43.074C42.4808 303.999 42 303.12 42 302.036V263.962Z" fill="#FBFBFB"/>
<path opacity="0.4" d="M65 281.499C65 280.67 65.3878 279.999 65.8661 279.999H119.134C119.612 279.999 120 280.67 120 281.499C120 282.327 119.612 282.999 119.134 282.999H65.8661C65.3878 282.999 65 282.327 65 281.499Z" fill="#C4C4C4"/>
<path opacity="0.4" d="M65 289.499C65 288.67 65.3812 287.999 65.8515 287.999H107.149C107.619 287.999 108 288.67 108 289.499C108 290.327 107.619 290.999 107.149 290.999H65.8515C65.3812 290.999 65 290.327 65 289.499Z" fill="#C4C4C4"/>
<path opacity="0.8" d="M18.9456 63.9535C18.9456 61.8045 20.6877 60.0624 22.8367 60.0624H445.799C447.948 60.0624 449.691 61.8045 449.691 63.9535V110.647C449.691 112.796 447.948 114.538 445.799 114.538H22.8367C20.6877 114.538 18.9456 112.796 18.9456 110.647V63.9535Z" fill="url(#paint0_linear)"/>
<path d="M190.945 81.4635C190.945 80.389 191.816 79.5179 192.891 79.5179H276.55C277.624 79.5179 278.495 80.389 278.495 81.4635V81.8526C278.495 82.9271 277.624 83.7982 276.55 83.7982H192.891C191.816 83.7982 190.945 82.9271 190.945 81.8526V81.4635Z" fill="white"/>
<path d="M202.945 90.6076C202.945 89.8555 203.555 89.2457 204.307 89.2457H264.619C265.371 89.2457 265.981 89.8555 265.981 90.6076C265.981 91.3598 265.371 91.9695 264.619 91.9695H204.307C203.555 91.9695 202.945 91.3598 202.945 90.6076Z" fill="white"/>
</g>
<rect x="270.75" y="128.75" width="82.5" height="65.5" rx="9.25" fill="white" stroke="#F5F5F5" stroke-width="1.5"/>
<path opacity="0.4" d="M283 173.5C283 172.672 283.409 172 283.913 172H340.087C340.591 172 341 172.672 341 173.5C341 174.328 340.591 175 340.087 175H283.913C283.409 175 283 174.328 283 173.5Z" fill="#C4C4C4"/>
<path opacity="0.4" d="M289 180.5C289 179.672 289.408 179 289.911 179H334.089C334.592 179 335 179.672 335 180.5C335 181.328 334.592 182 334.089 182H289.911C289.408 182 289 181.328 289 180.5Z" fill="#C4C4C4"/>
<rect x="362.75" y="128.75" width="82.5" height="65.5" rx="9.25" fill="white" stroke="#F5F5F5" stroke-width="1.5"/>
<path opacity="0.4" d="M375 173.5C375 172.672 375.409 172 375.913 172H432.087C432.591 172 433 172.672 433 173.5C433 174.328 432.591 175 432.087 175H375.913C375.409 175 375 174.328 375 173.5Z" fill="#C4C4C4"/>
<path opacity="0.4" d="M381 180.5C381 179.672 381.408 179 381.911 179H426.089C426.592 179 427 179.672 427 180.5C427 181.328 426.592 182 426.089 182H381.911C381.408 182 381 181.328 381 180.5Z" fill="#C4C4C4"/>
<circle cx="312" cy="153" r="6" stroke="#FF9A81" stroke-width="6"/>
<circle cx="404" cy="153" r="6" stroke="#FF9A81" stroke-width="6"/>
<rect x="270.75" y="205.75" width="82.5" height="65.5" rx="9.25" fill="white" stroke="#F5F5F5" stroke-width="1.5"/>
<path opacity="0.4" d="M283 250.5C283 249.672 283.409 249 283.913 249H340.087C340.591 249 341 249.672 341 250.5C341 251.328 340.591 252 340.087 252H283.913C283.409 252 283 251.328 283 250.5Z" fill="#C4C4C4"/>
<path opacity="0.4" d="M289 257.5C289 256.672 289.408 256 289.911 256H334.089C334.592 256 335 256.672 335 257.5C335 258.328 334.592 259 334.089 259H289.911C289.408 259 289 258.328 289 257.5Z" fill="#C4C4C4"/>
<rect x="362.75" y="205.75" width="82.5" height="65.5" rx="9.25" fill="white" stroke="#F5F5F5" stroke-width="1.5"/>
<path opacity="0.4" d="M375 250.5C375 249.672 375.409 249 375.913 249H432.087C432.591 249 433 249.672 433 250.5C433 251.328 432.591 252 432.087 252H375.913C375.409 252 375 251.328 375 250.5Z" fill="#C4C4C4"/>
<path opacity="0.4" d="M381 257.5C381 256.672 381.408 256 381.911 256H426.089C426.592 256 427 256.672 427 257.5C427 258.328 426.592 259 426.089 259H381.911C381.408 259 381 258.328 381 257.5Z" fill="#C4C4C4"/>
<circle cx="312" cy="230" r="6" stroke="#FF9A81" stroke-width="6"/>
<circle cx="404" cy="230" r="6" stroke="#FF9A81" stroke-width="6"/>
<g filter="url(#filter1_d)">
<rect x="286" y="286" width="141" height="126" rx="10" fill="white"/>
</g>
<path d="M360.006 361.446L366.552 363.628L362.188 367.991L357.824 363.628" fill="#9CE283"/>
<path d="M352.37 369.081L363.279 379.99L370.915 372.354L367.643 369.081L365.461 371.263L357.824 363.626" fill="#9CE283"/>
<path d="M353.46 317.808V318.169C353.46 327.717 349.667 336.874 342.916 343.625L332.6 353.941C331.986 354.554 331.641 355.387 331.641 356.255V356.817C331.641 357.685 331.986 358.517 332.6 359.131L344.865 371.396C345.479 372.009 346.311 372.354 347.179 372.354H347.741C348.609 372.354 349.442 372.009 350.055 371.395L360.371 361.079C367.121 354.328 376.278 350.535 385.826 350.535H386.187" fill="#FFECC8"/>
<path d="M329.46 362.535L332.733 359.263L344.733 371.263L341.461 374.536" fill="#9CE283"/>
<path d="M324 363.622L327.273 360.35L343.634 376.711L340.361 379.983L324 363.622Z" fill="#9CE283"/>
<path d="M356.735 364.718L339.28 347.264L336.007 350.537L353.462 367.991" fill="#FFECC8"/>
<path d="M353.456 317.814L356.729 314.542L389.451 347.264L386.178 350.536L353.456 317.814Z" fill="#9CE283"/>
<path d="M377.974 329.939L388.877 323.387L390 325.257L379.097 331.809L377.974 329.939Z" fill="#ECECEC"/>
<path d="M372.175 324.903L378.727 314L380.597 315.124L374.045 326.027L372.175 324.903Z" fill="#ECECEC"/>
<defs>
<filter id="filter0_d" x="0" y="33" width="468.644" height="313" filterUnits="userSpaceOnUse" color-interpolation-filters="sRGB">
<feFlood flood-opacity="0" result="BackgroundImageFix"/>
<feColorMatrix in="SourceAlpha" type="matrix" values="0 0 0 0 0 0 0 0 0 0 0 0 0 0 0 0 0 0 127 0"/>
<feOffset/>
<feGaussianBlur stdDeviation="5"/>
<feColorMatrix type="matrix" values="0 0 0 0 0 0 0 0 0 0 0 0 0 0 0 0 0 0 0.15 0"/>
<feBlend mode="normal" in2="BackgroundImageFix" result="effect1_dropShadow"/>
<feBlend mode="normal" in="SourceGraphic" in2="effect1_dropShadow" result="shape"/>
</filter>
<filter id="filter1_d" x="276" y="276" width="161" height="146" filterUnits="userSpaceOnUse" color-interpolation-filters="sRGB">
<feFlood flood-opacity="0" result="BackgroundImageFix"/>
<feColorMatrix in="SourceAlpha" type="matrix" values="0 0 0 0 0 0 0 0 0 0 0 0 0 0 0 0 0 0 127 0"/>
<feOffset/>
<feGaussianBlur stdDeviation="5"/>
<feColorMatrix type="matrix" values="0 0 0 0 0 0 0 0 0 0 0 0 0 0 0 0 0 0 0.14 0"/>
<feBlend mode="normal" in2="BackgroundImageFix" result="effect1_dropShadow"/>
<feBlend mode="normal" in="SourceGraphic" in2="effect1_dropShadow" result="shape"/>
</filter>
<linearGradient id="paint0_linear" x1="84.9456" y1="60.0546" x2="388.446" y2="128.555" gradientUnits="userSpaceOnUse">
<stop stop-color="#2184EE"/>
<stop offset="1" stop-color="#18B9F2"/>
</linearGradient>
</defs>
</svg>
