<svg width="491" height="441" viewBox="0 0 491 441" fill="none" xmlns="http://www.w3.org/2000/svg">
<path d="M355.085 404.075L418.544 133.732C419.157 131.121 417.601 128.492 415.018 127.772L107.356 42.0565C104.935 41.3819 102.39 42.6095 101.41 44.924L8.9851 263.279C7.89949 265.843 9.11877 268.801 11.6965 269.855L348.324 407.56C351.17 408.724 354.382 407.068 355.085 404.075Z" fill="#E8FBFF"/>
<g filter="url(#filter0_d)">
<path d="M84.2983 179.727C83.5813 175.794 86.1889 172.023 90.1227 171.306L194.285 152.32C198.219 151.603 201.989 154.211 202.706 158.145L234.605 333.15C235.322 337.083 232.714 340.854 228.78 341.571L124.618 360.556C120.684 361.273 116.914 358.666 116.197 354.732L84.2983 179.727Z" fill="white"/>
</g>
<mask id="mask0" mask-type="alpha" maskUnits="userSpaceOnUse" x="84" y="152" width="151" height="209">
<path d="M84.4201 179.705C83.7031 175.771 86.3108 172.001 90.2445 171.284L194.407 152.298C198.341 151.581 202.111 154.189 202.828 158.123L234.726 333.127C235.443 337.061 232.836 340.831 228.902 341.548L124.739 360.534C120.806 361.251 117.036 358.644 116.319 354.71L84.4201 179.705Z" fill="white"/>
</mask>
<g mask="url(#mask0)">
<g filter="url(#filter1_d)">
<path d="M84.2985 179.727C83.5815 175.793 86.1892 172.023 90.1229 171.306L194.285 152.32C198.219 151.603 201.989 154.211 202.706 158.145L234.605 333.149C235.322 337.083 232.714 340.853 228.78 341.57L124.618 360.556C120.684 361.273 116.914 358.665 116.197 354.732L84.2985 179.727Z" fill="white"/>
</g>
<path opacity="0.8" d="M88.7145 181.404C88.6428 181.01 88.9036 180.633 89.297 180.562L198.557 160.646C198.951 160.575 199.328 160.836 199.399 161.229L201.627 173.449C201.698 173.842 201.438 174.219 201.044 174.291L91.784 194.206C91.3906 194.278 91.0136 194.017 90.9419 193.624L88.7145 181.404Z" fill="url(#paint0_linear)"/>
<g opacity="0.7">
<path fill-rule="evenodd" clip-rule="evenodd" d="M190.749 171.248C190.342 171.322 190.058 171.627 190.113 171.927C190.167 172.227 190.541 172.412 190.947 172.338C191.354 172.264 191.642 171.958 191.587 171.658C191.533 171.359 191.155 171.174 190.749 171.248ZM187.737 167.294L187.836 167.839L188.575 167.704L190.282 169.529L189.905 170.287C189.86 170.374 189.843 170.47 189.86 170.566C189.915 170.865 190.292 171.05 190.699 170.976L195.134 170.167L195.035 169.623L190.755 170.403C190.703 170.412 190.657 170.39 190.65 170.351L190.655 170.317L190.907 169.812L193.66 169.31C193.938 169.26 194.161 169.104 194.256 168.912L195.257 166.903C195.279 166.859 195.286 166.81 195.277 166.764C195.25 166.614 195.061 166.522 194.858 166.559L189.392 167.555L188.945 167.074L187.737 167.294ZM194.444 170.575C194.038 170.649 193.754 170.954 193.808 171.254C193.863 171.553 194.236 171.739 194.643 171.664C195.05 171.59 195.337 171.284 195.283 170.985C195.228 170.685 194.851 170.501 194.444 170.575Z" fill="#DAB879"/>
</g>
<path d="M93.2865 203.309C93.1072 202.326 93.7591 201.383 94.7426 201.204L200.622 181.905C201.606 181.726 202.548 182.378 202.727 183.361L214.488 247.885C214.668 248.868 214.016 249.811 213.032 249.99L107.153 269.289C106.169 269.468 105.227 268.816 105.047 267.833L93.2865 203.309Z" fill="#FBFBFB"/>
<path d="M113.272 316.13C113.092 315.147 113.744 314.204 114.728 314.025L221.851 294.499C222.835 294.32 223.777 294.972 223.956 295.956L225.846 306.323C226.025 307.306 225.373 308.249 224.39 308.428L117.267 327.954C116.283 328.133 115.341 327.481 115.161 326.498L113.272 316.13Z" fill="#FBFBFB"/>
<path d="M120.747 319.977C120.661 319.506 120.973 319.055 121.444 318.969L151.748 313.445C152.219 313.359 152.671 313.672 152.756 314.142C152.842 314.613 152.53 315.065 152.059 315.151L121.755 320.674C121.284 320.76 120.832 320.448 120.747 319.977Z" fill="#D6D8DB"/>
<path d="M218.141 303.4C218.053 303.416 217.968 303.403 217.895 303.362L215.584 301.987C215.445 301.902 215.415 301.734 215.523 301.604C215.632 301.481 215.831 301.444 215.978 301.528L218.021 302.744L219.504 300.885C219.604 300.757 219.811 300.719 219.957 300.796C220.103 300.873 220.135 301.047 220.035 301.176L218.358 303.277C218.303 303.342 218.229 303.384 218.141 303.4Z" fill="#DBDBDB"/>
<path d="M116.328 332.902C116.149 331.918 116.801 330.976 117.785 330.797L224.908 311.271C225.892 311.092 226.834 311.744 227.013 312.727L228.903 323.095C229.082 324.078 228.43 325.021 227.447 325.2L120.323 344.725C119.34 344.905 118.397 344.253 118.218 343.269L116.328 332.902Z" fill="#F3F3F3"/>
<path d="M123.804 336.749C123.718 336.278 124.03 335.826 124.501 335.74L151.72 330.779C152.191 330.693 152.642 331.005 152.728 331.476C152.814 331.947 152.502 332.399 152.031 332.485L124.812 337.446C124.341 337.532 123.889 337.22 123.804 336.749Z" fill="#D6D8DB"/>
<path d="M221.198 320.171C221.11 320.187 221.025 320.175 220.952 320.133L218.641 318.758C218.502 318.673 218.471 318.506 218.58 318.376C218.689 318.252 218.888 318.216 219.035 318.3L221.078 319.516L222.561 317.657C222.661 317.528 222.868 317.49 223.014 317.567C223.16 317.644 223.192 317.818 223.091 317.947L221.414 320.049C221.36 320.114 221.285 320.155 221.198 320.171Z" fill="#DBDBDB"/>
<path d="M121.241 359.852C121.061 358.868 121.713 357.926 122.697 357.747L229.82 338.221C230.804 338.042 231.746 338.694 231.925 339.677L233.815 350.045C233.994 351.028 233.342 351.971 232.359 352.15L125.236 371.675C124.252 371.855 123.31 371.203 123.13 370.219L121.241 359.852Z" fill="#FBFBFB"/>
<path d="M128.56 362.845L165.584 356.097L165.894 357.802L128.871 364.551L128.56 362.845Z" fill="#C4C4C4"/>
<path d="M226.11 347.121C226.022 347.137 225.937 347.124 225.864 347.082L223.553 345.708C223.414 345.622 223.384 345.455 223.492 345.325C223.601 345.201 223.8 345.165 223.947 345.249L225.99 346.465L227.473 344.606C227.573 344.477 227.78 344.44 227.926 344.517C228.072 344.594 228.104 344.768 228.004 344.896L226.326 346.998C226.272 347.063 226.198 347.105 226.11 347.121Z" fill="#7E8791"/>
<path opacity="0.3" d="M138.142 236.414C138.003 235.648 138.51 234.914 139.276 234.774L171.05 228.983C171.815 228.843 172.55 229.351 172.689 230.117C172.829 230.883 172.321 231.617 171.555 231.757L139.782 237.548C139.016 237.688 138.282 237.18 138.142 236.414Z" fill="#7E8791"/>
<path opacity="0.1" d="M117.691 248.573C117.517 247.617 118.15 246.702 119.105 246.528L193.868 232.9C194.824 232.726 195.739 233.359 195.913 234.315C196.088 235.27 195.454 236.186 194.499 236.36L119.736 249.987C118.78 250.161 117.865 249.528 117.691 248.573Z" fill="#7E8791"/>
<path opacity="0.1" d="M118.742 254.338C118.568 253.383 119.201 252.467 120.156 252.293L194.919 238.666C195.875 238.492 196.79 239.125 196.964 240.081C197.139 241.036 196.505 241.951 195.55 242.125L120.787 255.753C119.831 255.927 118.916 255.294 118.742 254.338Z" fill="#7E8791"/>
<path opacity="0.6" d="M125.747 181.261C125.661 180.79 125.973 180.338 126.444 180.252L163.69 173.463C164.161 173.378 164.613 173.69 164.699 174.161C164.784 174.632 164.472 175.083 164.001 175.169L126.755 181.958C126.284 182.044 125.833 181.732 125.747 181.261Z" fill="white"/>
<path d="M106.524 275.933C106.345 274.949 106.997 274.007 107.98 273.827L147.035 266.709C148.019 266.53 148.961 267.182 149.14 268.165L154.88 299.655C155.059 300.638 154.408 301.581 153.424 301.76L114.369 308.879C113.386 309.058 112.443 308.406 112.264 307.423L106.524 275.933Z" fill="#FBFBFB"/>
<path opacity="0.3" d="M117.788 297.703C117.673 297.077 118.089 296.476 118.716 296.362L145.193 291.536C145.82 291.421 146.421 291.837 146.535 292.464C146.649 293.09 146.234 293.691 145.607 293.805L119.129 298.631C118.503 298.745 117.902 298.33 117.788 297.703Z" fill="#BDC3CA"/>
<path d="M116.185 301.774C116.109 301.356 116.386 300.955 116.804 300.879L148.325 295.134C148.742 295.058 149.143 295.335 149.219 295.752C149.295 296.17 149.018 296.571 148.6 296.647L117.079 302.392C116.662 302.468 116.261 302.191 116.185 301.774Z" fill="#E9EBED"/>
<path d="M131.485 277.479C132.267 277.951 132.887 278.675 133.225 279.54C133.388 279.955 133.025 280.387 132.594 280.266C132.438 280.222 132.304 280.107 132.241 279.944C132.043 279.427 131.721 278.985 131.31 278.648C131.097 278.472 130.564 278.17 130.02 278.015C129.263 277.801 128.229 277.831 127.294 278.244C128.075 278.717 128.695 279.439 129.033 280.304C129.195 280.72 128.831 281.151 128.401 281.03C128.245 280.986 128.111 280.871 128.049 280.709C127.847 280.183 127.518 279.735 127.098 279.396C126.774 279.135 125.945 278.81 125.927 278.803C122.978 277.975 120.129 280.535 120.686 283.585C120.739 283.873 121.016 284.063 121.304 284.011L136.864 281.175C137.152 281.122 137.344 280.846 137.292 280.558C136.809 277.903 133.963 276.388 131.485 277.479Z" fill="#FF8F73"/>
<path d="M136.442 282.333C136.247 282.368 122.974 284.788 122.047 284.956C121.545 285.048 121.448 285.73 121.906 285.956L125.486 287.728C125.755 287.861 126.08 287.746 126.205 287.474L127.195 285.324L130.285 286.853C130.553 286.986 130.878 286.871 131.004 286.599L131.993 284.45L135.083 285.979C135.351 286.112 135.677 285.996 135.802 285.725L137.02 283.078C137.2 282.688 136.865 282.256 136.442 282.333Z" fill="#FF8F73"/>
<path d="M135.673 287.058C135.317 287.139 134.937 287.094 134.611 286.932L134.479 286.867C133.66 287.656 132.519 287.91 131.505 287.632C131.007 288.023 130.344 288.07 129.813 287.807L129.651 287.727C128.867 288.501 127.737 288.801 126.682 288.525C126.231 288.866 125.654 288.929 125.162 288.745C124.253 289.449 122.962 289.62 121.848 289.048C122.531 290.409 124.054 291.22 125.626 290.933L135.305 289.169C136.841 288.889 137.963 287.646 138.162 286.177C137.48 286.852 136.555 287.147 135.673 287.058Z" fill="#FF8F73"/>
<path d="M132.502 285.888L132.143 286.668C132.587 286.708 133.043 286.601 133.432 286.349L132.502 285.888Z" fill="#FF8F73"/>
<path d="M136.956 285.762C137.723 285.344 138.175 284.455 137.979 283.538L136.956 285.762Z" fill="#FF8F73"/>
<path d="M121.294 286.831C121.614 287.984 122.872 288.633 124.013 288.186C121.199 286.793 121.395 286.894 121.294 286.831Z" fill="#FF8F73"/>
<path d="M127.703 286.763L127.337 287.557C127.778 287.585 128.226 287.471 128.61 287.211L127.703 286.763Z" fill="#FF8F73"/>
<path d="M152.923 267.476C152.744 266.493 153.396 265.55 154.379 265.371L193.434 258.252C194.418 258.073 195.36 258.725 195.539 259.709L201.279 291.199C201.458 292.182 200.806 293.125 199.823 293.304L160.768 300.422C159.784 300.602 158.842 299.95 158.663 298.966L152.923 267.476Z" fill="#FBFBFB"/>
<path opacity="0.3" d="M164.186 289.248C164.072 288.621 164.488 288.02 165.114 287.906L191.592 283.08C192.219 282.966 192.819 283.381 192.933 284.008C193.048 284.634 192.632 285.235 192.006 285.349L165.528 290.175C164.901 290.29 164.301 289.874 164.186 289.248Z" fill="#BDC3CA"/>
<path d="M162.583 293.317C162.507 292.899 162.784 292.499 163.202 292.423L194.723 286.677C195.141 286.601 195.541 286.878 195.617 287.296C195.694 287.714 195.417 288.114 194.999 288.19L163.478 293.936C163.06 294.012 162.66 293.735 162.583 293.317Z" fill="#E9EBED"/>
<path d="M199.069 259.066C198.89 258.083 199.542 257.14 200.526 256.961L239.581 249.842C240.564 249.663 241.507 250.315 241.686 251.298L247.426 282.788C247.605 283.772 246.953 284.714 245.969 284.894L206.914 292.012C205.931 292.192 204.988 291.54 204.809 290.556L199.069 259.066Z" fill="#FBFBFB"/>
<path d="M214.05 268.354L214.155 268.931C214.726 272.062 217.738 274.146 220.87 273.575L222.372 273.301C225.503 272.73 227.587 269.718 227.016 266.587L226.911 266.01C222.513 266.811 218.541 267.535 214.05 268.354Z" fill="#FF8F73"/>
<path d="M218.327 266.744L221.116 266.235C220.966 265.832 220.9 265.382 220.943 264.927C219.728 264.637 218.489 265.458 218.327 266.744Z" fill="#FF8F73"/>
<path d="M215.018 262.756C215.191 262.904 215.349 263.078 215.483 263.269C216.277 264.406 217.131 265.182 217.807 265.683C217.95 265.398 218.138 265.137 218.364 264.912C217.575 264.456 216.838 263.899 216.168 263.253C215.801 262.899 215.329 262.736 215.018 262.756Z" fill="#FF8F73"/>
<path d="M213.596 262.443L213.867 262.394L213.8 263.067C213.768 263.07 213.745 263.077 213.731 263.087C213.691 263.117 213.651 263.259 213.7 263.531C213.71 263.585 213.814 265.714 214.824 267.382L217.496 266.895C217.5 266.761 217.514 266.628 217.538 266.496C215.699 265.21 214.912 263.787 214.579 263.462C214.588 263.424 214.576 263.525 214.703 262.241L215.404 262.113C215.626 262.073 215.773 261.86 215.733 261.638C215.692 261.416 215.48 261.269 215.258 261.31L213.449 261.639C213.227 261.68 213.08 261.892 213.121 262.114C213.161 262.336 213.374 262.484 213.596 262.443Z" fill="#FF8F73"/>
<path d="M222.676 263.28C223.19 263.186 223.166 263.189 223.166 263.192C221.997 263.609 221.42 264.945 221.937 266.086L226.019 265.342C226.096 264.135 225.163 263.129 223.995 263.069C224.021 262.833 224.08 262.622 224.182 262.546C224.446 262.348 224.591 262.307 224.592 262.307C224.581 262.31 224.576 262.31 224.576 262.31C224.798 262.27 224.945 262.057 224.904 261.835C224.864 261.613 224.651 261.466 224.429 261.507C224.36 261.519 224.102 261.584 223.691 261.893C223.492 262.042 223.349 262.268 223.262 262.566C222.918 262.012 222.26 261.694 221.579 261.818C221.509 261.831 220.773 261.965 220.776 261.965C220.937 262.853 221.788 263.441 222.676 263.28Z" fill="#FF8F73"/>
<path opacity="0.3" d="M210.333 280.837C210.219 280.21 210.634 279.609 211.261 279.495L237.739 274.669C238.365 274.555 238.966 274.97 239.08 275.597C239.194 276.224 238.779 276.824 238.152 276.938L211.675 281.765C211.048 281.879 210.447 281.463 210.333 280.837Z" fill="#BDC3CA"/>
<path d="M208.73 284.907C208.654 284.489 208.931 284.089 209.349 284.013L240.87 278.267C241.288 278.191 241.688 278.468 241.764 278.886C241.841 279.304 241.564 279.704 241.146 279.78L209.625 285.526C209.207 285.602 208.807 285.325 208.73 284.907Z" fill="#E9EBED"/>
<path d="M180.425 281.085L173.599 282.329C170.684 282.86 167.88 280.921 167.348 278.005C167.294 277.705 167.493 277.417 167.793 277.363L184.105 274.389C184.406 274.335 184.693 274.534 184.748 274.834C185.279 277.749 183.34 280.553 180.425 281.085Z" fill="#FF8F73"/>
<path d="M177.629 271.135L172.705 272.033C170.631 272.411 169.11 274.076 168.814 276.053L182.688 273.524C181.714 271.778 179.703 270.757 177.629 271.135ZM172.629 274.153C172.532 274.353 172.454 274.587 172.139 274.644C171.701 274.724 171.345 274.269 171.544 273.859L171.636 273.67C171.769 273.396 172.1 273.281 172.374 273.415C172.648 273.548 172.763 273.879 172.629 274.153ZM176.038 273.532C175.941 273.732 175.862 273.966 175.548 274.023C175.11 274.103 174.752 273.649 174.952 273.238L175.044 273.049C175.178 272.775 175.508 272.66 175.783 272.794C176.057 272.927 176.171 273.257 176.038 273.532ZM179.2 272.955C179.103 273.156 179.024 273.389 178.71 273.447C178.271 273.527 177.915 273.072 178.115 272.662L178.206 272.473C178.34 272.198 178.67 272.084 178.945 272.217C179.219 272.35 179.333 272.681 179.2 272.955Z" fill="#FF8F73"/>
<path d="M175.799 270.346C174.896 269.08 173.19 268.651 171.785 269.374C171.583 269.478 171.465 269.696 171.488 269.922C171.532 270.343 171.658 270.743 171.854 271.104C172.288 270.973 172.215 271 175.799 270.346Z" fill="#FF8F73"/>
<path d="M178.097 269.966C178.153 269.559 178.13 269.14 178.022 268.731C177.965 268.511 177.777 268.349 177.551 268.323C176.893 268.247 176.239 268.38 175.674 268.689C176.215 269.068 176.655 269.563 176.967 270.133C177.437 270.048 177.689 269.994 178.097 269.966Z" fill="#FF8F73"/>
<path d="M163.854 206.313L137.757 211.07C136.515 211.296 135.745 212.549 136.108 213.744C138.368 221.191 145.923 225.793 153.666 224.382C161.399 222.972 166.855 216.008 166.341 208.233C166.259 206.985 165.095 206.087 163.854 206.313ZM146.345 219.959C146.233 219.98 146.114 219.968 146.003 219.917C144.519 219.242 143.163 218.243 142.082 217.03C141.872 216.794 141.894 216.433 142.132 216.223C142.369 216.014 142.732 216.035 142.942 216.271C143.918 217.367 145.142 218.268 146.482 218.878C146.993 219.11 146.893 219.859 146.345 219.959ZM159.847 225.554L148.295 227.659C147.983 227.716 147.685 227.511 147.628 227.201C147.571 226.89 147.779 226.593 148.091 226.536L159.642 224.43C159.954 224.373 160.253 224.579 160.31 224.889C160.366 225.199 160.159 225.497 159.847 225.554ZM148.643 207.925L144.026 208.766C143.808 208.806 143.592 208.691 143.504 208.49L143.063 207.478C142.936 207.189 142.598 207.056 142.307 207.182C142.016 207.309 141.883 207.645 142.009 207.935L142.255 208.498C142.377 208.778 142.204 209.098 141.902 209.154L138.776 209.723C138.515 209.771 138.268 209.597 138.221 209.337C138.167 209.039 138.153 208.733 138.202 208.432C138.398 207.235 139.188 207.018 139.354 206.133C139.579 204.939 138.4 204.286 138.897 203.006C139.374 201.781 141.21 200.934 142.442 201.467C144.144 202.205 143.391 204.777 144.591 205.461C145.522 205.992 146.814 204.849 148.064 205.704C148.567 206.048 148.887 206.602 149.027 207.378C149.074 207.633 148.9 207.878 148.643 207.925ZM162.496 205.4L159.343 205.975C159.174 206.005 159.004 205.939 158.895 205.808C156.93 203.429 153.068 204.141 152.071 207.052C152.016 207.214 151.88 207.335 151.712 207.366L150.435 207.598C150.167 207.647 149.914 207.462 149.878 207.193C149.637 205.407 148.596 204.401 146.785 204.695C146.417 204.755 146.126 204.384 146.273 204.043C146.808 202.798 148.046 202.024 149.458 201.842C151.475 201.586 152.235 202.916 153.112 202.67C154.203 202.365 153.974 199.947 155.954 199.053C157.393 198.404 159.369 198.828 160.182 199.96C161.136 201.288 160.027 202.804 160.668 203.512C161.098 203.988 162.01 203.726 162.777 204.639C163.014 204.922 162.844 205.336 162.496 205.4Z" fill="#FD8E72"/>
<path d="M201.308 192.724C201.891 195.927 199.768 198.997 196.565 199.581C193.362 200.165 190.292 198.041 189.708 194.838C189.124 191.635 191.247 188.565 194.451 187.981C197.654 187.397 200.724 189.521 201.308 192.724Z" fill="#FFECC8"/>
<path d="M195.88 196.538L196.405 196.443L196.316 195.927C197.268 195.678 197.733 195.063 197.595 194.29C197.454 193.53 196.808 193.231 195.982 193.197L195.845 193.19L195.651 192.074C195.96 192.089 196.175 192.246 196.253 192.522L197.177 192.353C197.032 191.618 196.385 191.19 195.51 191.253L195.419 190.728L194.893 190.824L194.983 191.344C194.128 191.588 193.608 192.226 193.751 192.985C193.872 193.658 194.417 193.957 195.221 194.001L195.445 194.016L195.649 195.197C195.273 195.194 194.987 195.016 194.895 194.648L193.961 194.818C194.148 195.714 194.83 196.11 195.79 196.021L195.88 196.538ZM196.175 195.101L195.994 194.059C196.359 194.105 196.572 194.211 196.621 194.465C196.667 194.735 196.499 194.973 196.175 195.101ZM195.294 193.15C194.998 193.105 194.771 192.997 194.729 192.74C194.686 192.501 194.821 192.285 195.124 192.164L195.294 193.15Z" fill="#DAB879"/>
</g>
<g filter="url(#filter2_d)">
<path d="M180.431 88.7827C180.443 80.1167 187.479 73.1016 196.145 73.114L330.144 73.3063C338.81 73.3187 345.825 80.354 345.813 89.02L345.436 351.583C345.424 360.249 338.389 367.264 329.723 367.252L195.723 367.06C187.057 367.047 180.042 360.012 180.054 351.346L180.431 88.7827Z" fill="white"/>
</g>
<mask id="mask1" mask-type="alpha" maskUnits="userSpaceOnUse" x="180" y="73" width="166" height="295">
<path d="M180.433 88.7841C180.445 80.1181 187.481 73.103 196.147 73.1154L330.147 73.3077C338.813 73.3201 345.828 80.3554 345.815 89.0214L345.439 351.585C345.426 360.251 338.391 367.266 329.725 367.253L195.725 367.061C187.059 367.049 180.044 360.013 180.056 351.347L180.433 88.7841Z" fill="white"/>
</mask>
<g mask="url(#mask1)">
<g filter="url(#filter3_d)">
<path d="M180.431 88.7841C180.443 80.1181 187.479 73.103 196.145 73.1154L330.144 73.3077C338.81 73.3201 345.825 80.3554 345.813 89.0214L345.436 351.585C345.424 360.251 338.389 367.266 329.723 367.253L195.723 367.061C187.057 367.049 180.042 360.013 180.054 351.347L180.431 88.7841Z" fill="white"/>
</g>
<path d="M329.323 190.405C329.196 190.405 329.08 190.352 328.987 190.247L326.095 186.816C325.922 186.605 325.922 186.275 326.108 186.065C326.294 185.867 326.583 185.868 326.769 186.079L329.325 189.114L331.89 186.086C332.064 185.876 332.366 185.876 332.551 186.074C332.736 186.272 332.735 186.615 332.561 186.825L329.659 190.247C329.567 190.353 329.451 190.405 329.323 190.405Z" fill="#7E8791"/>
<path d="M185.519 232.643C185.522 230.477 187.281 228.723 189.448 228.726L335.68 228.936C337.847 228.939 339.601 230.698 339.598 232.864L339.57 252.472C339.566 254.639 337.808 256.393 335.641 256.39L189.408 256.18C187.242 256.177 185.488 254.418 185.491 252.251L185.519 232.643Z" fill="#FCFCFC"/>
<path d="M193.912 242.175C193.913 241.247 194.667 240.495 195.595 240.496L260.493 240.589C261.422 240.591 262.173 241.344 262.172 242.273C262.171 243.201 261.417 243.953 260.489 243.951L195.591 243.858C194.662 243.857 193.911 243.103 193.912 242.175Z" fill="#D6D8DB"/>
<path d="M329.356 246.309C329.229 246.308 329.113 246.255 329.02 246.15L326.128 242.719C325.955 242.508 325.955 242.179 326.141 241.968C326.327 241.771 326.616 241.771 326.802 241.982L329.358 245.017L331.923 241.99C332.097 241.779 332.399 241.779 332.584 241.977C332.769 242.175 332.768 242.518 332.594 242.729L329.692 246.151C329.6 246.256 329.484 246.309 329.356 246.309Z" fill="#D4D5D7"/>
<path d="M185.472 265.697C185.475 263.53 187.234 261.776 189.401 261.779L335.633 261.989C337.8 261.992 339.554 263.751 339.551 265.918L339.522 285.526C339.519 287.693 337.76 289.446 335.594 289.443L189.361 289.233C187.195 289.23 185.441 287.472 185.444 285.305L185.472 265.697Z" fill="#FBFBFB"/>
<path d="M193.863 275.232C193.864 274.303 194.618 273.552 195.546 273.553L253.259 273.636C254.187 273.637 254.939 274.391 254.937 275.319C254.936 276.248 254.182 276.999 253.254 276.998L195.541 276.915C194.613 276.914 193.861 276.16 193.863 275.232Z" fill="#D6D8DB"/>
<path d="M329.32 278.437C329.192 278.437 329.076 278.384 328.984 278.278L326.092 274.847C325.918 274.636 325.919 274.307 326.104 274.096C326.29 273.899 326.58 273.899 326.765 274.11L329.321 277.145L331.887 274.118C332.061 273.907 332.362 273.908 332.547 274.106C332.732 274.304 332.732 274.646 332.558 274.857L329.656 278.279C329.563 278.384 329.447 278.437 329.32 278.437Z" fill="#D4D5D7"/>
<path d="M185.426 298.754C185.429 296.587 187.188 294.833 189.355 294.836L335.587 295.046C337.754 295.049 339.508 296.808 339.505 298.975L339.477 318.583C339.473 320.75 337.715 322.503 335.548 322.5L189.315 322.29C187.149 322.287 185.395 320.529 185.398 318.362L185.426 298.754Z" fill="#FCFCFC"/>
<path d="M193.817 308.287C193.819 307.359 194.572 306.607 195.501 306.609L261.897 306.704C262.825 306.705 263.576 307.459 263.575 308.387C263.574 309.316 262.82 310.067 261.892 310.066L195.496 309.97C194.568 309.969 193.816 309.215 193.817 308.287Z" fill="#D6D8DB"/>
<path d="M329.284 310.562C329.156 310.561 329.041 310.509 328.948 310.403L326.056 306.972C325.883 306.761 325.883 306.432 326.069 306.221C326.254 306.024 326.544 306.024 326.729 306.235L329.286 309.27L331.851 306.243C332.025 306.032 332.326 306.032 332.511 306.23C332.696 306.428 332.696 306.771 332.522 306.982L329.62 310.404C329.527 310.509 329.411 310.562 329.284 310.562Z" fill="#D4D5D7"/>
<path d="M185.379 331.809C185.382 329.642 187.141 327.889 189.307 327.892L335.54 328.102C337.706 328.105 339.46 329.864 339.457 332.03L339.435 347.157L185.357 346.936L185.379 331.809Z" fill="#FBFBFB"/>
<path d="M193.77 341.347C193.771 340.419 194.525 339.668 195.453 339.669L241.794 339.735C242.723 339.737 243.474 340.49 243.473 341.419C243.471 342.347 242.718 343.098 241.79 343.097L195.448 343.031C194.52 343.029 193.769 342.276 193.77 341.347Z" fill="#D6D8DB"/>
<path d="M329.268 341.083C329.141 341.082 329.025 341.03 328.933 340.924L326.041 337.493C325.867 337.282 325.868 336.953 326.053 336.742C326.239 336.545 326.529 336.545 326.714 336.756L329.27 339.791L331.835 336.764C332.01 336.553 332.311 336.553 332.496 336.751C332.681 336.949 332.681 337.292 332.506 337.503L329.605 340.925C329.512 341.03 329.396 341.083 329.268 341.083Z" fill="#D4D5D7"/>
<path opacity="0.8" d="M186.031 91.4768C186.033 90.6102 186.736 89.9087 187.603 89.9099L338.543 90.1265C339.41 90.1277 340.111 90.8312 340.11 91.6978L340.076 115.453C340.074 116.32 339.371 117.021 338.504 117.02L187.564 116.804C186.698 116.802 185.996 116.099 185.997 115.232L186.031 91.4768Z" fill="url(#paint1_linear)"/>
<path opacity="0.6" d="M234.761 103.987C234.762 103.059 235.516 102.307 236.444 102.308L289.671 102.385C290.599 102.386 291.351 103.14 291.35 104.068C291.348 104.996 290.595 105.748 289.666 105.747L236.439 105.67C235.511 105.669 234.759 104.915 234.761 103.987Z" fill="white"/>
<path d="M186.479 127.449C186.482 125.559 188.016 124.029 189.907 124.031L257.139 124.128C259.03 124.131 260.56 125.665 260.557 127.556L260.504 164.533C260.501 166.423 258.967 167.953 257.076 167.951L189.844 167.854C187.953 167.852 186.423 166.317 186.426 164.427L186.479 127.449Z" fill="white" stroke="#EEEEEE"/>
<path d="M186.305 176.783C186.308 174.892 187.843 173.362 189.733 173.365L256.965 173.461C258.856 173.464 260.386 174.999 260.383 176.889L260.33 213.866C260.328 215.756 258.793 217.287 256.903 217.284L189.67 217.188C187.78 217.185 186.249 215.65 186.252 213.76L186.305 176.783Z" fill="white" stroke="#EEEEEE"/>
<path opacity="0.3" d="M225.179 140.95C225.181 140.021 225.934 139.27 226.863 139.271L243.672 139.295C244.6 139.296 245.351 140.05 245.35 140.978C245.349 141.907 244.595 142.658 243.667 142.657L226.858 142.633C225.929 142.632 225.178 141.878 225.179 140.95Z" fill="#7E8791"/>
<path opacity="0.3" d="M225.005 190.284C225.006 189.356 225.76 188.605 226.688 188.606L243.498 188.63C244.426 188.631 245.177 189.385 245.176 190.313C245.175 191.242 244.421 191.993 243.493 191.992L226.684 191.968C225.755 191.966 225.004 191.213 225.005 190.284Z" fill="#7E8791"/>
<path opacity="0.1" d="M216.208 146.26C216.209 145.487 216.837 144.86 217.611 144.861L251.788 144.91C252.562 144.912 253.188 145.54 253.187 146.313C253.186 147.087 252.558 147.713 251.784 147.712L217.607 147.663C216.833 147.662 216.207 147.034 216.208 146.26Z" fill="#7E8791"/>
<path opacity="0.1" d="M216.032 195.593C216.033 194.82 216.661 194.194 217.434 194.195L251.612 194.244C252.385 194.245 253.012 194.873 253.01 195.647C253.009 196.42 252.381 197.046 251.608 197.045L217.43 196.996C216.657 196.995 216.031 196.367 216.032 195.593Z" fill="#7E8791"/>
<path opacity="0.1" d="M216.202 150.742C216.203 149.968 216.831 149.342 217.605 149.343L251.782 149.392C252.556 149.393 253.182 150.021 253.181 150.795C253.18 151.568 252.552 152.194 251.778 152.193L217.601 152.144C216.827 152.143 216.201 151.515 216.202 150.742Z" fill="#7E8791"/>
<path opacity="0.1" d="M216.027 200.078C216.028 199.305 216.656 198.678 217.43 198.679L251.607 198.728C252.381 198.73 253.007 199.358 253.006 200.131C253.005 200.905 252.377 201.531 251.603 201.53L217.426 201.481C216.652 201.48 216.026 200.852 216.027 200.078Z" fill="#7E8791"/>
<path d="M203.335 138.783C204.114 139.472 204.66 140.408 204.863 141.446C204.96 141.944 204.465 142.353 204.008 142.13C203.842 142.049 203.715 141.893 203.679 141.698C203.562 141.078 203.292 140.518 202.901 140.057C202.697 139.817 202.163 139.369 201.585 139.085C200.782 138.69 199.617 138.514 198.487 138.785C199.265 139.473 199.811 140.409 200.013 141.446C200.11 141.945 199.615 142.353 199.158 142.13C198.993 142.048 198.866 141.893 198.829 141.698C198.71 141.068 198.434 140.499 198.032 140.034C197.724 139.676 196.861 139.144 196.843 139.132C193.711 137.603 189.998 139.888 190 143.416C190 143.749 190.272 144.019 190.605 144.019L208.602 144.019C208.935 144.019 209.207 143.749 209.207 143.416C209.208 140.345 206.331 138.068 203.335 138.783Z" fill="#FF8F73"/>
<path d="M207.893 145.229C207.668 145.229 192.316 145.229 191.243 145.229C190.663 145.229 190.416 145.972 190.882 146.319L194.528 149.033C194.802 149.237 195.189 149.174 195.385 148.895L196.931 146.691L200.078 149.033C200.352 149.237 200.74 149.174 200.935 148.895L202.481 146.691L205.628 149.033C205.902 149.237 206.289 149.174 206.485 148.895L208.389 146.182C208.669 145.782 208.383 145.229 207.893 145.229Z" fill="#FF8F73"/>
<path d="M206.068 150.36C205.653 150.379 205.238 150.25 204.906 150.003L204.771 149.903C203.694 150.62 202.364 150.671 201.285 150.152C200.648 150.489 199.896 150.405 199.356 150.003L199.19 149.88C198.155 150.587 196.828 150.693 195.705 150.168C195.13 150.458 194.471 150.411 193.958 150.105C192.796 150.706 191.316 150.635 190.186 149.767C190.673 151.43 192.212 152.649 194.031 152.649L205.226 152.649C207.002 152.649 208.512 151.486 209.035 149.882C208.133 150.499 207.038 150.64 206.068 150.36Z" fill="#FF8F73"/>
<path d="M202.757 148.406L202.196 149.206C202.686 149.341 203.217 149.315 203.705 149.111L202.757 148.406Z" fill="#FF8F73"/>
<path d="M207.769 149.172C208.714 148.861 209.401 147.958 209.369 146.891L207.769 149.172Z" fill="#FF8F73"/>
<path d="M190.018 147.174C190.141 148.53 191.417 149.514 192.784 149.245C189.919 147.112 190.118 147.265 190.018 147.174Z" fill="#FF8F73"/>
<path d="M197.207 148.406L196.636 149.221C197.123 149.342 197.649 149.305 198.131 149.093L197.207 148.406Z" fill="#FF8F73"/>
<path d="M207.579 192.5L191.298 192.5C190.523 192.5 189.92 193.171 190.008 193.933C190.553 198.678 194.608 202.289 199.439 202.289C204.264 202.289 208.324 198.684 208.87 193.933C208.958 193.17 208.354 192.5 207.579 192.5ZM195.505 198.812C195.435 198.812 195.365 198.792 195.303 198.749C194.481 198.178 193.773 197.426 193.254 196.574C193.153 196.409 193.206 196.193 193.372 196.093C193.539 195.993 193.756 196.045 193.856 196.211C194.325 196.98 194.965 197.659 195.707 198.175C195.99 198.371 195.847 198.812 195.505 198.812ZM203.042 203.676L195.835 203.676C195.641 203.676 195.483 203.52 195.483 203.326C195.483 203.132 195.641 202.975 195.835 202.975L203.042 202.975C203.237 202.975 203.395 203.132 203.395 203.326C203.395 203.52 203.237 203.676 203.042 203.676ZM198.217 191.799L195.337 191.799C195.201 191.799 195.083 191.706 195.052 191.574L194.897 190.915C194.852 190.726 194.663 190.609 194.473 190.653C194.284 190.697 194.166 190.886 194.21 191.074L194.297 191.442C194.34 191.624 194.2 191.799 194.012 191.799L192.061 191.799C191.899 191.799 191.769 191.666 191.769 191.504C191.769 191.318 191.794 191.132 191.857 190.956C192.107 190.255 192.608 190.211 192.806 189.694C193.073 188.998 192.433 188.474 192.874 187.756C193.297 187.068 194.499 186.759 195.184 187.217C196.13 187.849 195.393 189.32 196.042 189.865C196.545 190.288 197.452 189.74 198.112 190.394C198.378 190.657 198.51 191.027 198.51 191.511C198.509 191.67 198.377 191.799 198.217 191.799ZM206.86 191.799L204.893 191.799C204.787 191.799 204.692 191.74 204.641 191.649C203.716 189.996 201.306 190.001 200.383 191.649C200.332 191.74 200.237 191.799 200.132 191.799L199.335 191.799C199.168 191.799 199.036 191.659 199.043 191.493C199.095 190.388 198.577 189.665 197.451 189.644C197.222 189.64 197.087 189.384 197.214 189.194C197.673 188.501 198.506 188.17 199.379 188.215C200.625 188.283 200.938 189.17 201.494 189.118C202.186 189.053 202.315 187.568 203.608 187.246C204.548 187.013 205.695 187.486 206.061 188.259C206.491 189.166 205.655 189.959 205.964 190.458C206.171 190.792 206.751 190.734 207.113 191.37C207.225 191.567 207.077 191.799 206.86 191.799Z" fill="#FF8F73"/>
<path d="M266.041 127.562C266.043 125.671 267.578 124.141 269.468 124.144L336.141 124.239C338.031 124.242 339.561 125.777 339.558 127.667L339.505 164.644C339.503 166.535 337.968 168.065 336.078 168.062L269.405 167.966C267.515 167.964 265.985 166.429 265.987 164.539L266.041 127.562Z" fill="white" stroke="#EEEEEE"/>
<path d="M265.365 176.896C265.368 174.729 267.127 172.975 269.293 172.979L335.965 173.074C338.132 173.077 339.886 174.836 339.883 177.003L339.83 213.98C339.826 216.146 338.068 217.9 335.901 217.897L269.229 217.801C267.062 217.798 265.309 216.039 265.312 213.873L265.365 176.896Z" fill="#FBFBFB"/>
<path opacity="0.3" d="M303.062 139.381L323.233 139.41L323.228 142.772L303.057 142.743L303.062 139.381Z" fill="#7E8791"/>
<path opacity="0.3" d="M302.888 188.716L323.059 188.745L323.054 192.107L302.883 192.078L302.888 188.716Z" fill="#7E8791"/>
<path opacity="0.1" d="M294.089 144.972L331.068 145.025L331.064 147.826L294.085 147.773L294.089 144.972Z" fill="#7E8791"/>
<path opacity="0.1" d="M293.914 194.305L330.893 194.358L330.889 197.159L293.91 197.106L293.914 194.305Z" fill="#7E8791"/>
<path opacity="0.1" d="M294.083 149.455L331.062 149.508L331.058 152.309L294.079 152.256L294.083 149.455Z" fill="#7E8791"/>
<path opacity="0.1" d="M293.908 198.785L330.887 198.838L330.883 201.639L293.904 201.586L293.908 198.785Z" fill="#7E8791"/>
<path d="M273.386 148.318C273.459 152.845 276.911 154.422 276.911 154.422C276.911 154.422 277.416 154.706 278.064 154.23C278.523 153.853 280.109 152.653 281.17 150.221C283.038 145.572 280.727 141.112 280.549 140.712C280.549 140.712 280.068 139.728 280.284 138.633C280.462 137.733 281.474 136.995 281.474 136.995C277.797 138.219 275.256 140.875 274.097 144.06C273.606 145.405 273.363 146.851 273.386 148.318Z" fill="#FD8E72"/>
<path d="M273.21 197.65C273.283 202.177 276.736 203.754 276.736 203.754C276.736 203.754 277.241 204.038 277.888 203.562C278.347 203.185 279.933 201.984 280.994 199.553C282.862 194.904 280.552 190.443 280.373 190.044C280.373 190.044 279.892 189.06 280.108 187.964C280.286 187.064 281.298 186.327 281.298 186.327C277.621 187.55 275.081 190.207 273.922 193.392C273.431 194.737 273.187 196.182 273.21 197.65Z" fill="#9CE283"/>
</g>
<g filter="url(#filter4_d)">
<rect x="269" y="166" width="212" height="117" rx="10" fill="white"/>
</g>
<path opacity="0.4" d="M285 191.5C285 190.119 285.698 189 286.559 189H382.441C383.302 189 384 190.119 384 191.5C384 192.881 383.302 194 382.441 194H286.559C285.698 194 285 192.881 285 191.5Z" fill="#C4C4C4"/>
<path opacity="0.4" d="M285 201.5C285 200.119 285.7 199 286.564 199H362.436C363.3 199 364 200.119 364 201.5C364 202.881 363.3 204 362.436 204H286.564C285.7 204 285 202.881 285 201.5Z" fill="#C4C4C4"/>
<path opacity="0.4" d="M285 223.5C285 222.672 285.612 222 286.366 222H352.634C353.388 222 354 222.672 354 223.5C354 224.328 353.388 225 352.634 225H286.366C285.612 225 285 224.328 285 223.5Z" fill="#C4C4C4"/>
<path opacity="0.4" d="M285 231.5C285 230.672 285.754 230 286.683 230H368.317C369.246 230 370 230.672 370 231.5C370 232.328 369.246 233 368.317 233H286.683C285.754 233 285 232.328 285 231.5Z" fill="#C4C4C4"/>
<path opacity="0.4" d="M285 239.5C285 238.672 285.612 238 286.366 238H352.634C353.388 238 354 238.672 354 239.5C354 240.328 353.388 241 352.634 241H286.366C285.612 241 285 240.328 285 239.5Z" fill="#C4C4C4"/>
<path opacity="0.4" d="M285 247.5C285 246.672 285.683 246 286.525 246H360.475C361.317 246 362 246.672 362 247.5C362 248.328 361.317 249 360.475 249H286.525C285.683 249 285 248.328 285 247.5Z" fill="#C4C4C4"/>
<path opacity="0.4" d="M285 255.5C285 254.672 285.505 254 286.129 254H340.871C341.495 254 342 254.672 342 255.5C342 256.328 341.495 257 340.871 257H286.129C285.505 257 285 256.328 285 255.5Z" fill="#C4C4C4"/>
<path d="M467.341 222.906C466.703 221.95 453.316 199 429.409 199C405.503 199 392.116 221.95 391.478 222.906C390.841 223.863 390.841 225.137 391.478 226.094C392.116 227.05 405.503 250 429.409 250C453.316 250 466.703 227.05 467.341 226.094C467.66 225.137 467.66 223.863 467.341 222.906ZM429.409 240.437C420.484 240.437 413.472 233.425 413.472 224.5C413.472 215.575 420.484 208.563 429.409 208.563C438.335 208.563 445.347 215.575 445.347 224.5C445.347 233.425 438.334 240.437 429.409 240.437Z" fill="#FFECC8"/>
<path d="M429.408 214.938C423.99 214.938 419.846 219.081 419.846 224.5C419.846 229.919 423.99 234.063 429.408 234.063C434.827 234.063 438.971 229.919 438.971 224.5C438.971 219.081 434.827 214.938 429.408 214.938ZM432.596 224.5C430.683 224.5 429.408 223.225 429.408 221.313C429.408 219.4 430.683 218.125 432.596 218.125C434.508 218.125 435.783 219.4 435.783 221.313C435.783 223.225 434.508 224.5 432.596 224.5Z" fill="#9CE283"/>
<defs>
<filter id="filter0_d" x="74.1797" y="142.202" width="170.543" height="228.473" filterUnits="userSpaceOnUse" color-interpolation-filters="sRGB">
<feFlood flood-opacity="0" result="BackgroundImageFix"/>
<feColorMatrix in="SourceAlpha" type="matrix" values="0 0 0 0 0 0 0 0 0 0 0 0 0 0 0 0 0 0 127 0"/>
<feOffset/>
<feGaussianBlur stdDeviation="5"/>
<feColorMatrix type="matrix" values="0 0 0 0 0 0 0 0 0 0 0 0 0 0 0 0 0 0 0.25 0"/>
<feBlend mode="normal" in2="BackgroundImageFix" result="effect1_dropShadow"/>
<feBlend mode="normal" in="SourceGraphic" in2="effect1_dropShadow" result="shape"/>
</filter>
<filter id="filter1_d" x="74.1799" y="142.202" width="170.543" height="228.473" filterUnits="userSpaceOnUse" color-interpolation-filters="sRGB">
<feFlood flood-opacity="0" result="BackgroundImageFix"/>
<feColorMatrix in="SourceAlpha" type="matrix" values="0 0 0 0 0 0 0 0 0 0 0 0 0 0 0 0 0 0 127 0"/>
<feOffset/>
<feGaussianBlur stdDeviation="5"/>
<feColorMatrix type="matrix" values="0 0 0 0 0 0 0 0 0 0 0 0 0 0 0 0 0 0 0.15 0"/>
<feBlend mode="normal" in2="BackgroundImageFix" result="effect1_dropShadow"/>
<feBlend mode="normal" in="SourceGraphic" in2="effect1_dropShadow" result="shape"/>
</filter>
<filter id="filter2_d" x="170.032" y="63.0915" width="185.804" height="314.183" filterUnits="userSpaceOnUse" color-interpolation-filters="sRGB">
<feFlood flood-opacity="0" result="BackgroundImageFix"/>
<feColorMatrix in="SourceAlpha" type="matrix" values="0 0 0 0 0 0 0 0 0 0 0 0 0 0 0 0 0 0 127 0"/>
<feOffset/>
<feGaussianBlur stdDeviation="5"/>
<feColorMatrix type="matrix" values="0 0 0 0 0 0 0 0 0 0 0 0 0 0 0 0 0 0 0.15 0"/>
<feBlend mode="normal" in2="BackgroundImageFix" result="effect1_dropShadow"/>
<feBlend mode="normal" in="SourceGraphic" in2="effect1_dropShadow" result="shape"/>
</filter>
<filter id="filter3_d" x="170.032" y="63.0929" width="185.804" height="314.183" filterUnits="userSpaceOnUse" color-interpolation-filters="sRGB">
<feFlood flood-opacity="0" result="BackgroundImageFix"/>
<feColorMatrix in="SourceAlpha" type="matrix" values="0 0 0 0 0 0 0 0 0 0 0 0 0 0 0 0 0 0 127 0"/>
<feOffset/>
<feGaussianBlur stdDeviation="5"/>
<feColorMatrix type="matrix" values="0 0 0 0 0 0 0 0 0 0 0 0 0 0 0 0 0 0 0.15 0"/>
<feBlend mode="normal" in2="BackgroundImageFix" result="effect1_dropShadow"/>
<feBlend mode="normal" in="SourceGraphic" in2="effect1_dropShadow" result="shape"/>
</filter>
<filter id="filter4_d" x="259" y="156" width="232" height="137" filterUnits="userSpaceOnUse" color-interpolation-filters="sRGB">
<feFlood flood-opacity="0" result="BackgroundImageFix"/>
<feColorMatrix in="SourceAlpha" type="matrix" values="0 0 0 0 0 0 0 0 0 0 0 0 0 0 0 0 0 0 127 0"/>
<feOffset/>
<feGaussianBlur stdDeviation="5"/>
<feColorMatrix type="matrix" values="0 0 0 0 0 0 0 0 0 0 0 0 0 0 0 0 0 0 0.14 0"/>
<feBlend mode="normal" in2="BackgroundImageFix" result="effect1_dropShadow"/>
<feBlend mode="normal" in="SourceGraphic" in2="effect1_dropShadow" result="shape"/>
</filter>
<linearGradient id="paint0_linear" x1="105.544" y1="177.598" x2="186.617" y2="181.431" gradientUnits="userSpaceOnUse">
<stop stop-color="#2184EE"/>
<stop offset="1" stop-color="#18B9F2"/>
</linearGradient>
<linearGradient id="paint1_linear" x1="209.642" y1="89.9377" x2="320.737" y2="108.269" gradientUnits="userSpaceOnUse">
<stop stop-color="#2184EE"/>
<stop offset="1" stop-color="#18B9F2"/>
</linearGradient>
</defs>
</svg>
