<svg width="40" height="26" viewBox="0 0 40 26" fill="none" xmlns="http://www.w3.org/2000/svg">
<path d="M34.4873 0H4.84395C2.19427 0 0 2.15287 0 4.84395V21.1561C0 23.8057 2.15287 26 4.84395 26H34.5287C37.1783 26 39.3726 23.8471 39.3726 21.1561V4.80255C39.3312 2.15287 37.1783 0 34.4873 0ZM37.7994 21.1146C37.7994 22.9363 36.3089 24.3853 34.5287 24.3853H4.84395C3.02229 24.3853 1.57325 22.8949 1.57325 21.1146V4.80255C1.57325 2.98089 3.06369 1.53185 4.84395 1.53185H34.5287C36.3503 1.53185 37.7994 3.02229 37.7994 4.80255V21.1146Z" fill="#B1B1B1"/>
<path d="M32.8726 6.08569H21.9426C21.5286 6.08569 21.156 6.4169 21.156 6.87232C21.156 7.32773 21.4872 7.65894 21.9426 7.65894H32.8726C33.2866 7.65894 33.6592 7.32773 33.6592 6.87232C33.6592 6.4169 33.328 6.08569 32.8726 6.08569Z" fill="#B1B1B1"/>
<path d="M32.8726 12.1721H21.9426C21.5286 12.1721 21.156 12.5033 21.156 12.9587C21.156 13.4142 21.4872 13.7454 21.9426 13.7454H32.8726C33.2866 13.7454 33.6592 13.4142 33.6592 12.9587C33.6592 12.5033 33.328 12.1721 32.8726 12.1721Z" fill="#B1B1B1"/>
<path d="M32.8726 18.2991H21.9426C21.5286 18.2991 21.156 18.6303 21.156 19.0857C21.156 19.4997 21.4872 19.8723 21.9426 19.8723H32.8726C33.2866 19.8723 33.6592 19.5411 33.6592 19.0857C33.6592 18.6303 33.328 18.2991 32.8726 18.2991Z" fill="#B1B1B1"/>
<path d="M13.8278 12.131C14.6558 11.4272 15.194 10.3508 15.194 9.19152C15.194 7.03866 13.4552 5.2998 11.3023 5.2998C9.14945 5.2998 7.4106 7.03866 7.4106 9.19152C7.4106 10.3922 7.94882 11.4272 8.77684 12.131C6.78958 13.166 5.42334 15.3603 5.42334 17.9272C5.42334 18.5482 5.71315 19.666 7.4934 20.4113C8.52844 20.8253 9.85328 21.0737 11.3023 21.0737C14.2418 21.0737 17.1813 20.1215 17.1813 17.9686C17.1813 15.4017 15.8151 13.166 13.8278 12.131ZM8.98385 9.19152C8.98385 7.90809 10.0189 6.87305 11.3023 6.87305C12.5858 6.87305 13.6208 7.90809 13.6208 9.19152C13.6208 10.475 12.5858 11.51 11.3023 11.51C10.0189 11.51 8.98385 10.475 8.98385 9.19152ZM11.3023 19.5004C8.94245 19.5004 6.99659 18.7966 6.99659 17.9272C6.99659 15.2361 8.94245 13.0418 11.3023 13.0418C13.6622 13.0418 15.6081 15.2361 15.6081 17.9272C15.6495 18.7966 13.6622 19.5004 11.3023 19.5004Z" fill="#B1B1B1"/>
</svg>
