<svg width="38" height="27" viewBox="0 0 38 27" fill="none" xmlns="http://www.w3.org/2000/svg">
<path d="M31.8864 1H6.11364C4.7579 1.00159 3.45816 1.54086 2.49951 2.49951C1.54086 3.45816 1.00159 4.7579 1 6.11364V21.5388C1.00159 22.8945 1.54086 24.1943 2.49951 25.1529C3.45816 26.1115 4.7579 26.6508 6.11364 26.6524H31.8864C33.2421 26.6508 34.5419 26.1115 35.5005 25.1529C36.4591 24.1943 36.9984 22.8945 37 21.5388V6.11364C36.9984 4.7579 36.4591 3.45816 35.5005 2.49951C34.5419 1.54086 33.2421 1.00159 31.8864 1ZM35.1952 21.5448L26.0929 13.4231L35.1952 6.54077V21.5388V21.5448ZM6.11364 2.80481H31.8864C32.488 2.80444 33.0784 2.96843 33.5937 3.27909C34.109 3.58974 34.5296 4.03525 34.8102 4.56751L24.1377 12.623L20.9973 15.0294C20.4205 15.46 19.7199 15.6927 19 15.6927C18.2801 15.6927 17.5795 15.46 17.0027 15.0294L13.8683 12.623L3.18984 4.56751C3.47041 4.03525 3.89104 3.58974 4.40632 3.27909C4.9216 2.96843 5.51196 2.80444 6.11364 2.80481ZM2.80481 21.5388V6.54077L11.9071 13.4231L2.80481 21.5448V21.5388ZM31.8864 24.8476H6.11364C5.58248 24.8503 5.05852 24.7248 4.58619 24.4818C4.11386 24.2389 3.70709 23.8855 3.4004 23.4519L13.375 14.5301L15.9138 16.4552C16.8041 17.123 17.8871 17.484 19 17.484C20.1129 17.484 21.1959 17.123 22.0862 16.4552L24.625 14.5301L34.5996 23.4519C34.2929 23.8855 33.8861 24.2389 33.4138 24.4818C32.9415 24.7248 32.4175 24.8503 31.8864 24.8476Z" fill="#B1B1B1" stroke="white" stroke-width="0.2"/>
</svg>
