<svg width="30" height="30" viewBox="0 0 30 30" fill="none" xmlns="http://www.w3.org/2000/svg">
<path d="M28.4408 22.3494L24.745 18.6537C24.3783 18.2935 23.8848 18.0916 23.3707 18.0916C22.8566 18.0916 22.3631 18.2935 21.9964 18.6537L20.0883 20.559C19.9808 20.6668 19.853 20.7524 19.7124 20.8108C19.5718 20.8692 19.421 20.8992 19.2687 20.8992C19.1164 20.8992 18.9657 20.8692 18.825 20.8108C18.6844 20.7524 18.5567 20.6668 18.4492 20.559L9.44102 11.5508C9.33318 11.4433 9.24761 11.3156 9.18923 11.175C9.13084 11.0343 9.10079 10.8836 9.10079 10.7313C9.10079 10.579 9.13084 10.4282 9.18923 10.2876C9.24761 10.147 9.33318 10.0192 9.44102 9.91172L11.3491 8.00643C11.7127 7.63918 11.9167 7.14328 11.9167 6.62649C11.9167 6.1097 11.7127 5.61379 11.3491 5.24655L7.65341 1.56204C7.28665 1.20182 6.79314 1 6.27907 1C5.76501 1 5.27149 1.20182 4.90474 1.56204L2.9434 3.52337C2.11088 4.32723 1.50658 5.33761 1.19221 6.45137C0.766316 8.07367 1.0409 9.66516 2.08882 10.7131L19.2869 27.9112C20.3348 28.9591 21.9263 29.2337 23.5486 28.8078C24.6612 28.4954 25.6707 27.893 26.4738 27.0622L28.4352 25.1009C28.797 24.7347 29.0003 24.241 29.0014 23.7263C29.0024 23.2115 28.8011 22.717 28.4408 22.3494ZM27.4517 24.1174L25.4904 26.0787C24.8623 26.7328 24.0726 27.2093 23.2012 27.4601C22.8493 27.5543 22.4868 27.6033 22.1225 27.6058C21.4441 27.6323 20.783 27.3884 20.2844 26.9277L3.06108 9.74361C2.40823 9.09076 2.22051 8.02884 2.52872 6.82682C2.78087 5.95392 3.25936 5.1632 3.91566 4.53486L5.877 2.57353C5.98149 2.47252 6.12113 2.41606 6.26646 2.41606C6.41179 2.41606 6.55144 2.47252 6.65593 2.57353L10.3488 6.24963C10.4498 6.35412 10.5063 6.49377 10.5063 6.6391C10.5063 6.78442 10.4498 6.92407 10.3488 7.02856L8.45195 8.92545C7.97287 9.40602 7.70385 10.0569 7.70385 10.7355C7.70385 11.4141 7.97287 12.065 8.45195 12.5455L17.4601 21.5509C17.6977 21.7887 17.9798 21.9775 18.2904 22.1062C18.601 22.235 18.9339 22.3013 19.2701 22.3013C19.6063 22.3013 19.9393 22.235 20.2498 22.1062C20.5604 21.9775 20.8426 21.7887 21.0802 21.5509L22.977 19.654C23.0814 19.5538 23.2205 19.4978 23.3651 19.4978C23.5098 19.4978 23.6488 19.5538 23.7532 19.654L27.4405 23.3385C27.5415 23.443 27.5979 23.5826 27.5979 23.7279C27.5979 23.8733 27.5415 24.0129 27.4405 24.1174H27.4517Z" fill="#B1B1B1" stroke="#B1B1B1" stroke-width="0.2"/>
</svg>
