<svg width="34" height="31" viewBox="0 0 34 31" fill="none" xmlns="http://www.w3.org/2000/svg">
<path d="M33.5443 7.5055C33.5443 6.54266 32.7612 5.75947 31.7983 5.75947H22.7004V3.41132C22.7004 2.08179 21.6186 1 20.2891 1H14.2728C12.9432 1 11.8614 2.08179 11.8614 3.41132V5.75947H2.76428C1.80108 5.75947 1.01755 6.54231 1.01755 7.50375L1 15.8093C0.99965 16.0788 1.15334 16.3248 1.39545 16.4423C1.76599 16.622 2.14741 16.7879 2.53058 16.9525V28.254C2.53058 29.2165 3.31377 30 4.27661 30H30.2846C31.2474 30 32.0306 29.2168 32.0306 28.254V16.7834C32.4233 16.602 32.8099 16.4142 33.1868 16.2156C33.4177 16.0939 33.5619 15.8542 33.5612 15.5935L33.5443 7.5055ZM13.265 3.41132C13.265 2.85551 13.7173 2.40356 14.2728 2.40356H20.2891C20.8355 2.40356 21.2969 2.86498 21.2969 3.41132V5.75947H13.265V3.41132ZM30.6274 28.254C30.6274 28.4364 30.4674 28.5964 30.2849 28.5964H4.27696C4.09134 28.5964 3.93449 28.4396 3.93449 28.254V17.5094C6.98934 18.6312 10.4024 19.3042 14.1243 19.5105V20.4842C14.1243 21.1902 14.6987 21.7646 15.4047 21.7646H19.1575C19.8631 21.7646 20.4372 21.1899 20.4372 20.4842V19.5C24.2075 19.2708 27.6213 18.5599 30.627 17.3809V28.254H30.6274ZM15.5279 20.3611V18.0325H19.034V20.3611H15.5279ZM20.4375 18.0887V17.9104C20.4375 17.2037 19.8635 16.6293 19.1579 16.6293H15.4047C14.6987 16.6293 14.1243 17.2041 14.1243 17.9104V18.1038C9.72839 17.8518 5.78754 16.9357 2.40496 15.3672L2.42146 7.5055C2.42146 7.31988 2.57865 7.16303 2.76463 7.16303H31.7987C31.9843 7.16303 32.1411 7.31953 32.1411 7.50655L32.1573 15.1668C28.8558 16.83 24.9142 17.8073 20.4375 18.0887Z" fill="#B1B1B1" stroke="#B1B1B1" stroke-width="0.4"/>
</svg>
