<svg width="31" height="31" viewBox="0 0 31 31" fill="none" xmlns="http://www.w3.org/2000/svg">
<path d="M15.5 30C7.49187 30 1 23.5081 1 15.5C1 7.49187 7.49187 1 15.5 1C23.5081 1 30 7.49187 30 15.5C30 23.5081 23.5081 30 15.5 30ZM15.5 27.3636C22.0521 27.3636 27.3636 22.0521 27.3636 15.5C27.3636 8.94789 22.0521 3.63636 15.5 3.63636C8.94789 3.63636 3.63636 8.94789 3.63636 15.5C3.63636 22.0521 8.94789 27.3636 15.5 27.3636ZM15.5 16.0035L20.0441 18.2755C20.6952 18.6011 20.9591 19.3929 20.6336 20.0441C20.308 20.6952 19.5162 20.9591 18.865 20.6336L13.5923 17.9972C13.1457 17.7739 12.8636 17.3175 12.8636 16.8182V8.90909C12.8636 8.18108 13.4538 7.59091 14.1818 7.59091C14.9098 7.59091 15.5 8.18108 15.5 8.90909V16.0035Z" fill="#B1B1B1" stroke="white" stroke-width="0.7"/>
</svg>
