<svg width="9" height="14" viewBox="0 0 9 14" fill="none" xmlns="http://www.w3.org/2000/svg">
<path fill-rule="evenodd" clip-rule="evenodd" d="M2.70126 0.599763L8.34459 1.57673C8.72081 1.64187 8.92642 1.94639 8.87476 2.24479L7.0215 12.9499C6.96984 13.2483 6.67382 13.466 6.2976 13.4009L0.654268 12.4239C0.319849 12.366 0.0724332 12.0542 0.124092 11.7558L1.97736 1.05071C2.02902 0.752311 2.36684 0.541869 2.70126 0.599763ZM3.31198 1.05125C3.39558 1.06573 3.46627 1.1548 3.45336 1.2294C3.44044 1.304 3.34392 1.36413 3.26032 1.34965C3.13491 1.32794 3.06422 1.23887 3.07714 1.16427C3.09005 1.08967 3.18657 1.02954 3.31198 1.05125ZM3.16004 11.6283L4.2469 11.8165C4.33051 11.8309 4.3594 11.9128 4.34648 11.9874L4.26899 12.435C4.25608 12.5096 4.20136 12.5769 4.11776 12.5625L3.03089 12.3743C2.94729 12.3598 2.8766 12.2708 2.88951 12.1962L2.967 11.7486C2.97991 11.674 3.07643 11.6138 3.16004 11.6283ZM4.72035 1.37191L6.18343 1.62519C6.30884 1.6469 6.27655 1.8334 6.15115 1.81169L4.68806 1.55841C4.60446 1.54393 4.63674 1.35743 4.72035 1.37191ZM2.33693 1.95816L8.27287 2.98578L6.7231 11.9378L0.787156 10.9102L2.33693 1.95816Z" fill="white"/>
</svg>
