<svg width="24" height="21" viewBox="0 0 24 21" fill="none" xmlns="http://www.w3.org/2000/svg">
<path d="M14.2148 7.70333C11.9898 7.70333 10.1797 9.51345 10.1797 11.7384C10.1797 13.9633 11.9898 15.7735 14.2148 15.7735C16.4397 15.7735 18.2498 13.9633 18.2498 11.7384C18.2498 9.51345 16.4397 7.70333 14.2148 7.70333ZM14.2148 14.8564C12.4954 14.8564 11.0967 13.4577 11.0967 11.7384C11.0967 10.0191 12.4954 8.62039 14.2148 8.62039C15.9341 8.62039 17.3328 10.0191 17.3328 11.7384C17.3328 13.4577 15.9341 14.8564 14.2148 14.8564Z" fill="#FF9A81"/>
<path d="M14.2146 9.67518C13.9614 9.67518 13.7561 9.88045 13.7561 10.1337C13.7561 10.387 13.9614 10.5922 14.2146 10.5922C14.8465 10.5922 15.3608 11.1065 15.3608 11.7384C15.3608 11.9917 15.566 12.1969 15.8193 12.1969C16.0726 12.1969 16.2778 11.9917 16.2778 11.7384C16.2778 10.6007 15.3524 9.67518 14.2146 9.67518Z" fill="#FF9A81"/>
<path d="M2.82654 3.45742C2.71012 3.23263 2.43357 3.14469 2.2086 3.26093C1.98363 3.37735 1.89569 3.65409 2.01211 3.87905L3.24639 6.26341C3.32627 6.41781 3.48783 6.5122 3.6605 6.51113C3.83424 6.50844 3.99168 6.40778 4.06691 6.25105L4.81417 4.69527L5.62573 6.26341C5.70472 6.41566 5.8618 6.51113 6.03304 6.51113H6.03984C6.21376 6.50844 6.37102 6.40778 6.44643 6.25105L7.5915 3.86669C7.70112 3.6385 7.60494 3.36446 7.37675 3.25484C7.14838 3.14522 6.87451 3.24141 6.76489 3.46978L6.01763 5.02556L5.20589 3.45742C5.126 3.30302 4.9648 3.20827 4.79196 3.2097C4.61804 3.21239 4.4606 3.31305 4.38537 3.46978L3.63829 5.02556L2.82654 3.45742Z" fill="#FF9A81"/>
<path d="M5.77689 0.917062C5.89761 0.917062 6.01583 0.867985 6.10109 0.782727C6.18652 0.697469 6.23542 0.579074 6.23542 0.458531C6.23542 0.337987 6.18652 0.219593 6.10109 0.134335C6.01583 0.0490771 5.89761 0 5.77689 0C5.65635 0 5.53813 0.0490771 5.45287 0.134335C5.36744 0.219593 5.31836 0.337987 5.31836 0.458531C5.31836 0.579074 5.36744 0.697469 5.45287 0.782727C5.53813 0.867985 5.65635 0.917062 5.77689 0.917062Z" fill="#FF9A81"/>
<path d="M23.4768 7.88673V1.83412C23.4768 0.822848 22.6539 0 21.6427 0H7.70278C7.44969 0 7.24425 0.205264 7.24425 0.458531C7.24425 0.711798 7.44969 0.917062 7.70278 0.917062H21.6427C22.1483 0.917062 22.5597 1.32849 22.5597 1.83412V7.88673C22.5597 8.39237 22.1483 8.80379 21.6427 8.80379H19.4417C19.4285 8.80379 19.4156 8.80469 19.4027 8.80576C18.695 7.55877 17.551 6.59084 16.1795 6.11064L16.8593 4.69546L17.671 6.26342C17.7498 6.41585 17.9069 6.51114 18.0781 6.51114H18.0851C18.2588 6.50845 18.4163 6.40779 18.4915 6.25107L19.6366 3.86671C19.7462 3.63851 19.65 3.36465 19.4218 3.25503C19.1936 3.14524 18.9196 3.24142 18.81 3.46979L18.0629 5.02557L17.2512 3.45743C17.1713 3.30303 17.0102 3.20828 16.837 3.2099C16.6631 3.2124 16.5059 3.31307 16.4306 3.46979L15.6834 5.02557L14.8718 3.45743C14.7554 3.23264 14.4787 3.1447 14.2537 3.26112C14.0287 3.37755 13.941 3.6541 14.0572 3.87906L15.0721 5.83946C14.7921 5.79898 14.5059 5.77749 14.2148 5.77749C13.6511 5.77749 13.1054 5.8563 12.5881 6.00317L13.6142 3.86671C13.7239 3.63851 13.6277 3.36465 13.3993 3.25503C13.1711 3.14524 12.8971 3.24142 12.7876 3.46979L12.0404 5.02557L11.2286 3.45743C11.1487 3.30303 10.9884 3.20828 10.8145 3.2099C10.6408 3.2124 10.4833 3.31307 10.4081 3.46979L9.66103 5.02557L8.84929 3.45743C8.73287 3.23264 8.45631 3.1447 8.23135 3.26112C8.00638 3.37755 7.91844 3.6541 8.03486 3.87906L9.26913 6.26342C9.34902 6.41782 9.50986 6.51221 9.68324 6.51114C9.85698 6.50845 10.0144 6.40779 10.0897 6.25107L10.8369 4.69546L11.6485 6.26342C11.6621 6.28975 11.6787 6.31358 11.6968 6.33632C10.5724 6.86256 9.63811 7.72947 9.02787 8.80379H1.83412C1.32849 8.80379 0.917062 8.39237 0.917062 7.88673V1.83412C0.917062 1.32849 1.32849 0.917062 1.83412 0.917062H3.71374C3.96701 0.917062 4.17227 0.711798 4.17227 0.458531C4.17227 0.205264 3.96701 0 3.71374 0H1.83412C0.822848 0 0 0.822848 0 1.83412V7.88673C0 8.89819 0.822848 9.72086 1.83412 9.72086H8.60552C8.37804 10.3513 8.25374 11.0305 8.25374 11.7384C8.25374 15.0253 10.9277 17.6993 14.2146 17.6993C15.2947 17.6993 16.3087 17.4106 17.1833 16.9062L20.8225 20.5454C21.1256 20.8485 21.5237 21 21.9219 21C22.3201 21 22.7182 20.8485 23.0213 20.5454C23.6276 19.9391 23.6276 18.9527 23.0213 18.3464L21.5914 16.9166C21.4123 16.7376 21.122 16.7375 20.943 16.9166C20.7639 17.0957 20.7639 17.3858 20.943 17.565L22.3729 18.995C22.6215 19.2436 22.6215 19.6482 22.3729 19.897C22.1243 20.1456 21.7197 20.1456 21.4711 19.897L17.9524 16.3782C19.3072 15.2847 20.1755 13.6112 20.1755 11.7384C20.1755 11.0305 20.0512 10.3513 19.8238 9.72086H21.6427C22.6541 9.72086 23.4768 8.89801 23.4768 7.88673ZM14.2146 16.7822C11.4335 16.7822 9.1708 14.5195 9.1708 11.7384C9.1708 8.95729 11.4335 6.69455 14.2146 6.69455C16.9957 6.69455 19.2585 8.95729 19.2585 11.7384C19.2585 14.5195 16.9959 16.7822 14.2146 16.7822Z" fill="#FF9A81"/>
<path d="M19.8553 15.829C19.77 15.9143 19.7209 16.0325 19.7209 16.1532C19.7209 16.2738 19.77 16.392 19.8553 16.4774C19.9411 16.5627 20.0589 16.6118 20.1795 16.6118C20.3 16.6118 20.4184 16.5627 20.5037 16.4774C20.5895 16.392 20.638 16.2738 20.638 16.1532C20.638 16.0325 20.5895 15.9143 20.5037 15.829C20.4184 15.7438 20.3006 15.6947 20.1795 15.6947C20.0589 15.6947 19.9405 15.7438 19.8553 15.829Z" fill="#FF9A81"/>
</svg>
