<svg width="19" height="19" viewBox="0 0 19 19" fill="none" xmlns="http://www.w3.org/2000/svg">
<path d="M18.8369 0.16304C18.6195 -0.0543466 18.267 -0.0543466 18.0496 0.16304L16.4283 1.78435C16.3287 1.73685 16.2235 1.69859 16.1137 1.67116L11.0753 0.426405C10.5095 0.284981 9.90184 0.453272 9.48944 0.865668L0.488313 9.85199C-0.162771 10.5031 -0.162771 11.5626 0.488313 12.2137L6.78625 18.5116C7.43737 19.1628 8.49684 19.1628 9.148 18.5116L18.1343 9.51048C18.5467 9.09808 18.7151 8.49038 18.5736 7.92457L17.3288 2.88624C17.3014 2.77647 17.2631 2.67126 17.2156 2.57158L18.837 0.950278C19.0543 0.732891 19.0543 0.380426 18.8369 0.16304ZM17.4934 8.19465C17.5406 8.38324 17.4845 8.58579 17.347 8.72328L8.36069 17.7244C8.14364 17.9415 7.79047 17.9415 7.57342 17.7244L1.27551 11.4265C1.05846 11.2094 1.05846 10.8562 1.27551 10.6392L10.2767 1.65291C10.382 1.54763 10.5254 1.49007 10.6716 1.49007C10.7162 1.49007 10.7612 1.49545 10.8053 1.50647L15.5379 2.67479L14.1973 4.01536C13.5766 3.71975 12.81 3.82818 12.2969 4.34126C11.6458 4.99241 11.6458 6.05185 12.2969 6.70301C12.6224 7.02857 13.0501 7.19136 13.4778 7.19136C13.9054 7.19136 14.3331 7.0286 14.6586 6.70301C15.1718 6.18986 15.2802 5.42325 14.9845 4.8026L16.3251 3.46202L17.4934 8.19465ZM13.8714 5.91581C13.6544 6.13282 13.3012 6.13286 13.0842 5.91581C12.8671 5.69879 12.8671 5.34558 13.0842 5.12857C13.1927 5.02002 13.3352 4.96581 13.4778 4.96581C13.6203 4.96581 13.7628 5.02006 13.8713 5.12853L13.8714 5.12857L13.8714 5.1286C14.0884 5.34562 14.0884 5.69879 13.8714 5.91581Z" fill="#FF9A81"/>
<path d="M9.14791 6.70305C8.49679 6.05193 7.43732 6.05193 6.78616 6.70305C6.13508 7.35417 6.13508 8.41364 6.78616 9.0648C7.43728 9.71592 8.49679 9.71592 9.14791 9.0648C9.79907 8.41364 9.79907 7.3542 9.14791 6.70305ZM8.36071 8.27752C8.14366 8.49457 7.79049 8.49457 7.57348 8.27752C7.35646 8.06047 7.35639 7.7073 7.57344 7.49028C7.79049 7.27327 8.14362 7.27323 8.36071 7.49028C8.57773 7.7073 8.57773 8.06047 8.36071 8.27752Z" fill="#FF9A81"/>
<path d="M9.93504 12.2137C9.2824 11.561 8.22608 11.5609 7.57333 12.2137C6.92217 12.8648 6.92217 13.9243 7.57333 14.5754C8.22601 15.2281 9.28233 15.2282 9.93504 14.5754C10.5862 13.9243 10.5862 12.8648 9.93504 12.2137ZM9.14781 13.7882C8.93031 14.0057 8.5781 14.0057 8.36057 13.7882C8.14355 13.5712 8.14355 13.218 8.36057 13.0009C8.5781 12.7834 8.93027 12.7834 9.14781 13.0009C9.36482 13.218 9.36482 13.5711 9.14781 13.7882Z" fill="#FF9A81"/>
<path d="M12.4564 10.1842C12.4224 9.8786 12.1472 9.65839 11.8416 9.69234L4.75649 10.4796C4.45094 10.5135 4.23073 10.7887 4.26468 11.0943C4.29634 11.379 4.53733 11.5896 4.81728 11.5896C4.8378 11.5896 4.85858 11.5884 4.87944 11.5861L11.9646 10.7989C12.2702 10.7649 12.4904 10.4897 12.4564 10.1842Z" fill="#FF9A81"/>
</svg>
