<svg width="22" height="22" viewBox="0 0 22 22" fill="none" xmlns="http://www.w3.org/2000/svg">
<path d="M17.424 19.5203H4.40308V20.9999H17.424V19.5203Z" fill="#FF9A81" stroke="#EAFFE2" stroke-width="0.4"/>
<path d="M13.2564 7.60912H8.69419C8.28555 7.60912 7.95435 7.94032 7.95435 8.34896C7.95435 8.75759 8.28555 9.0888 8.69419 9.0888H13.2564C13.665 9.0888 13.9963 8.75759 13.9963 8.34896C13.9963 7.94032 13.665 7.60912 13.2564 7.60912Z" fill="#FF9A81" stroke="#EAFFE2" stroke-width="0.4"/>
<path d="M16.7089 11.0617H8.69419C8.28555 11.0617 7.95435 11.3929 7.95435 11.8015C7.95435 12.2102 8.28555 12.5414 8.69419 12.5414H16.709C17.1176 12.5414 17.4488 12.2102 17.4488 11.8015C17.4488 11.3929 17.1176 11.0617 16.7089 11.0617Z" fill="#FF9A81" stroke="#EAFFE2" stroke-width="0.4"/>
<path d="M20.6872 1.0901C20.4216 0.970739 20.1111 1.01786 19.8931 1.21045L17.8214 3.04323L15.7472 1.18848C15.4663 0.937174 15.0416 0.937174 14.7607 1.18848L12.6892 3.04099L10.6175 1.18848C10.3366 0.937174 9.91218 0.937174 9.63128 1.18848L7.55706 3.04323L5.48531 1.21045C5.26757 1.0181 4.95684 0.970975 4.69123 1.0901C4.4259 1.2097 4.25524 1.47358 4.25524 1.76458V14.9334H1.73984C1.33121 14.9334 1 15.2646 1 15.6732V17.4735C1 19.418 2.58199 21 4.52647 21V19.5203C3.39776 19.5203 2.47964 18.602 2.47964 17.4735V16.4131H14.0702V17.4735C14.0702 19.418 15.6522 21 17.5967 21C19.5412 21 21.1232 19.418 21.1232 17.4735V1.76454C21.1232 1.47354 20.9525 1.2097 20.6872 1.0901ZM19.6435 17.4735C19.6435 18.602 18.7252 19.5203 17.5967 19.5203C16.4683 19.5203 15.5499 18.602 15.5499 17.4735V15.6732C15.5499 15.2646 15.2187 14.9334 14.8101 14.9334H5.73489V3.40671L7.06978 4.58773C7.35091 4.83632 7.77358 4.83506 8.05298 4.58501L10.1245 2.7325L12.196 4.58478C12.4769 4.83608 12.9015 4.83608 13.1824 4.58478L15.2542 2.73227L17.3257 4.58478C17.6053 4.83482 18.028 4.83581 18.3089 4.58749L19.6435 3.40675V17.4735Z" fill="#FF9A81" stroke="#EAFFE2" stroke-width="0.4"/>
</svg>
