<svg width="19" height="22" viewBox="0 0 19 22" fill="none" xmlns="http://www.w3.org/2000/svg">
<path d="M15.0605 15.0209L13.0973 14.3666L12.3925 12.957C13.0274 12.3108 13.4683 11.4557 13.6169 10.5638L13.7048 10.037H14.4565C15.1398 10.037 15.6957 9.48108 15.6957 8.79783V6.19565C15.6957 2.77937 12.9163 0 9.5 0C6.07496 0 3.30435 2.7714 3.30435 6.19565V8.79783C3.30435 9.33627 3.64969 9.79541 4.13043 9.96591V10.45C4.13043 11.1333 4.68631 11.6891 5.36957 11.6891H5.7323C5.91135 12.0781 6.14311 12.4383 6.42514 12.762C6.48363 12.8292 6.54463 12.8944 6.60713 12.9578L5.90272 14.3666L3.93948 15.0209C1.6568 15.7821 0 18.1851 0 20.7348C0 20.9629 0.18492 21.1478 0.413043 21.1478H18.587C18.815 21.1478 19 20.9629 19 20.7348C19 18.1851 17.3432 15.7821 15.0605 15.0209ZM14.8696 8.79783C14.8696 9.02558 14.6843 9.21087 14.4565 9.21087H13.8261C13.9311 8.39759 14.0011 7.53214 14.0292 6.67974C14.0301 6.6557 14.0307 6.63232 14.0315 6.6087H14.8696V8.79783ZM4.54348 9.21087C4.31573 9.21087 4.13043 9.02558 4.13043 8.79783V6.6087H4.96883C4.97019 6.65178 4.97164 6.69506 4.97325 6.73864C4.97329 6.74013 4.97337 6.74157 4.97341 6.74306C4.97341 6.74318 4.97341 6.74331 4.97341 6.74343C5.00233 7.57249 5.07139 8.41547 5.17399 9.21083H4.54348V9.21087ZM5.36957 10.863C5.14181 10.863 4.95652 10.6778 4.95652 10.45V10.037H5.29513L5.38303 10.564C5.3998 10.6641 5.42041 10.7639 5.44424 10.863H5.36957ZM4.95722 5.78261H4.14613C4.35534 3.01435 6.66557 0.826087 9.5 0.826087C12.3218 0.826087 14.6422 3.01406 14.8538 5.78261H14.0428C14.0131 3.50149 12.1555 1.65217 9.86971 1.65217H9.13037C6.84463 1.65217 4.98692 3.50149 4.95722 5.78261ZM9.13033 2.47826H9.86967C11.7205 2.47826 13.2185 3.99211 13.2174 5.84085C13.2174 5.97083 13.2164 6.08401 13.2142 6.18698C13.2142 6.1883 13.2141 6.18966 13.2141 6.19103L12.6975 6.11721C11.294 5.91681 9.96876 5.2542 8.96598 4.25142C8.88849 4.17397 8.78345 4.13043 8.67391 4.13043C7.56464 4.13043 6.50279 4.63583 5.80087 5.48968C5.97385 3.80781 7.39567 2.47826 9.13033 2.47826ZM6.30056 10.863C6.0938 10.1752 5.8572 8.15129 5.80491 6.85433L6.36083 6.11308C6.87139 5.43255 7.66572 5.00972 8.51068 4.96119C9.62247 6.01924 11.0608 6.71795 12.5807 6.93496L13.1888 7.02186C13.1481 7.8845 13.0651 8.75016 12.9461 9.5463C12.946 9.54655 12.946 9.54684 12.9459 9.54713C12.9081 9.80309 12.8783 9.96781 12.8021 10.4279C12.5834 11.7399 11.6044 12.9264 10.312 13.2495C9.78013 13.3823 9.21979 13.3823 8.6882 13.2495C7.88124 13.0478 7.14131 12.4894 6.6638 11.6891H7.50583C7.67633 12.1699 8.13543 12.5152 8.67391 12.5152H9.5C10.1846 12.5152 10.7391 11.9607 10.7391 11.2761C10.7391 10.5928 10.1833 10.037 9.5 10.037H8.67391C8.12345 10.037 7.67113 10.3925 7.50512 10.863H6.30056ZM8.63918 14.0854C8.92248 14.1451 9.21132 14.1757 9.5 14.1757C9.72598 14.1757 9.95199 14.1567 10.1754 14.1201L9.4456 14.8919L8.63918 14.0854ZM8.87775 15.4924L7.56766 16.8778C7.20699 16.1875 6.89708 15.469 6.6429 14.7334L7.13487 13.7495L8.87775 15.4924ZM11.7951 13.6095L12.357 14.7334C12.1024 15.4702 11.7924 16.1889 11.4321 16.8784L10.0299 15.4762L11.7951 13.6095ZM8.26087 11.2761C8.26087 11.048 8.44583 10.863 8.67391 10.863H9.5C9.72775 10.863 9.91304 11.0483 9.91304 11.2761C9.91304 11.5042 9.72804 11.6891 9.5 11.6891H8.67391C8.44616 11.6891 8.26087 11.5038 8.26087 11.2761ZM0.842609 20.3217C1.0063 18.2756 2.36806 16.4157 4.20073 15.8046L5.9394 15.2252C6.25794 16.106 6.65256 16.9621 7.11505 17.7753C7.11583 17.7767 7.11657 17.7781 7.11736 17.7795C7.11736 17.7795 7.1174 17.7795 7.1174 17.7795C7.45531 18.3739 7.83564 18.9546 8.24798 19.506L8.75611 20.3217H0.842609ZM9.5 19.9536L8.93983 19.0542C8.93355 19.0442 8.92686 19.0344 8.91976 19.0249C8.58527 18.5787 8.27326 18.1121 7.98909 17.6345L9.46212 16.0767L11.0143 17.6289C10.7282 18.1099 10.4151 18.5785 10.0803 19.0248C10.0601 19.0518 10.0888 19.0093 9.5 19.9536ZM10.2439 20.3217L10.752 19.5061C11.1661 18.9526 11.5492 18.3671 11.8905 17.7658C11.8926 17.7622 11.8945 17.7585 11.8966 17.7548C11.8968 17.7544 11.8971 17.754 11.8973 17.7535C12.3539 16.9481 12.7444 16.0994 13.0606 15.2252L14.7992 15.8046C16.6319 16.4157 17.9937 18.2756 18.1574 20.3217H10.2439Z" fill="#FF9A81"/>
</svg>
